<svg xmlns="http://www.w3.org/2000/svg" id="Layer_2" viewBox="0 0 739.71 163.27"><defs><style>.cls-1,.cls-2{fill:#fff;}.cls-2{font-family:MyriadPro-Bold, 'Myriad Pro';font-size:25px;isolation:isolate;}</style></defs><g id="Layer_1-2"><g><g><g><path class="cls-1" d="M170.18,45.05V14.24h100.14v30.81h-32.93v103.99h-34.09V45.05h-33.12Zm51.23,91.09c0-35.63-.19-70.29-.39-105.73h36.21v-1.73h-74.14v1.73h36.4v105.73h1.92Z"></path><path class="cls-1" d="M372.58,45.05h-49.88v19.07h45.83v30.62h-45.83v23.69h51.61v30.62h-85.89V14.24h84.16v30.81h0Zm-67.98,89.74h56.62v-1.93h-54.5v-52.57h48.92v-1.93h-48.92V30.41h52.77v-1.93h-54.89v106.31Z"></path><path class="cls-1" d="M433.05,118.04h48.92v31.01h-83.58V14.24h34.66V118.04Zm35.82,14.64h-52V27.33h-2.12v107.08h54.12v-1.73Z"></path></g><g><g><path class="cls-1" d="M526.44,80.77c-.56-.37-1.18-.64-1.85-.82-.65-.19-1.51-.28-2.57-.28-.91-.01-1.75,.15-2.51,.47s-1.41,.77-1.95,1.33c-.54,.57-.96,1.23-1.26,2s-.44,1.59-.43,2.48c0,.94,.16,1.8,.48,2.58s.75,1.44,1.3,1.98c.55,.55,1.19,.97,1.92,1.27s1.52,.45,2.35,.45c.4,0,.73-.01,.99-.02,.27-.02,.49-.04,.68-.06,.19-.03,.35-.06,.49-.09s.28-.07,.42-.1v-4.88h-3.38v-1.89h5.67v8.34c-.43,.16-1.05,.31-1.84,.47-.39,.08-.84,.14-1.34,.19-.51,.04-1.08,.06-1.71,.06-1.27,0-2.43-.2-3.47-.59-1.04-.39-1.93-.95-2.67-1.68-.74-.73-1.31-1.61-1.71-2.64-.4-1.03-.61-2.18-.61-3.46s.21-2.37,.63-3.38,1.01-1.88,1.76-2.59c.75-.72,1.65-1.27,2.68-1.67,1.04-.39,2.17-.59,3.4-.59,.59,0,1.11,.02,1.54,.06,.44,.04,.83,.1,1.19,.17s.69,.16,1.01,.26c.31,.1,.64,.2,.98,.31l-.19,2.32Z"></path><path class="cls-1" d="M534.97,77.92h2.3v14.04h6.72v2.02h-9.02v-16.06h0Z"></path><path class="cls-1" d="M549.82,85.95c0-1.19,.17-2.29,.52-3.3,.35-1.01,.85-1.89,1.51-2.63s1.47-1.32,2.43-1.74c.96-.42,2.05-.63,3.27-.63s2.3,.21,3.25,.63,1.76,1,2.43,1.74c.66,.74,1.17,1.62,1.52,2.63,.35,1.01,.53,2.11,.53,3.3s-.17,2.34-.52,3.36c-.34,1.02-.85,1.89-1.51,2.63-.66,.73-1.47,1.3-2.43,1.71s-2.05,.61-3.28,.61-2.32-.2-3.28-.61c-.96-.41-1.77-.98-2.43-1.71-.66-.73-1.16-1.61-1.5-2.63-.34-1.02-.51-2.14-.51-3.36Zm2.43,0c0,.8,.1,1.58,.31,2.33s.52,1.42,.95,2.01c.43,.58,.98,1.05,1.65,1.41,.67,.36,1.46,.53,2.38,.53s1.71-.18,2.38-.53c.66-.36,1.21-.83,1.64-1.41,.43-.58,.75-1.25,.96-2.01,.21-.75,.31-1.53,.31-2.33-.01-.81-.12-1.59-.34-2.36-.22-.76-.54-1.43-.98-2.02-.44-.58-.99-1.05-1.65-1.4s-1.44-.52-2.32-.51c-.89-.01-1.67,.16-2.32,.51-.66,.35-1.21,.81-1.65,1.4-.44,.58-.77,1.26-.99,2.02-.22,.77-.33,1.55-.33,2.36Z"></path><path class="cls-1" d="M572.53,77.92h4.35c.83,0,1.59,.07,2.29,.22,.69,.15,1.29,.38,1.79,.7s.88,.74,1.16,1.26,.41,1.14,.41,1.88c0,1.09-.3,1.94-.9,2.54-.59,.59-1.4,1.02-2.41,1.28v.04c.55,.04,1.05,.16,1.5,.36s.85,.46,1.18,.79c.33,.33,.59,.73,.77,1.18,.18,.46,.28,.97,.28,1.53,0,.86-.17,1.57-.49,2.12-.33,.55-.78,.99-1.34,1.31s-1.21,.54-1.95,.66-1.52,.19-2.34,.19h-4.28v-16.06h-.02Zm2.3,6.86h1.26c.55,0,1.08-.02,1.58-.07,.5-.05,.94-.16,1.31-.33,.38-.17,.68-.43,.9-.77,.22-.34,.33-.81,.33-1.4,0-.47-.09-.86-.28-1.17-.18-.31-.42-.55-.71-.74-.29-.18-.61-.31-.96-.38-.35-.07-.69-.11-1.02-.11h-2.41v4.97Zm0,7.31h1.72c.52,0,1.02-.04,1.5-.11,.48-.07,.89-.2,1.26-.39,.36-.19,.65-.45,.87-.79,.21-.34,.32-.77,.32-1.3,0-.62-.12-1.12-.37-1.49s-.57-.66-.97-.86-.85-.33-1.34-.39c-.49-.06-.99-.09-1.48-.09h-1.49v5.42h-.02Z"></path><path class="cls-1" d="M595.94,77.92h2.41l6.78,16.06h-2.5l-1.64-4.04h-7.86l-1.63,4.04h-2.41l6.85-16.06Zm1.13,2.17l-3.19,7.96h6.39l-3.2-7.96Z"></path><path class="cls-1" d="M611.58,77.92h2.3v14.04h6.72v2.02h-9.02v-16.06h0Z"></path><path class="cls-1" d="M640.98,79.94h-4.99v-2.02h12.28v2.02h-4.99v14.04h-2.3v-14.04h0Z"></path><path class="cls-1" d="M654.57,77.92h3.93c.4,0,.8,.01,1.18,.03,.39,.02,.76,.06,1.13,.11,.37,.06,.72,.13,1.05,.22s.65,.22,.94,.38,.56,.34,.79,.56c.24,.21,.44,.47,.61,.76s.3,.63,.39,1.01,.14,.81,.14,1.29-.09,.94-.26,1.35c-.17,.42-.41,.78-.7,1.09-.3,.31-.65,.57-1.05,.78-.4,.21-.84,.35-1.3,.42v.04c.17,.07,.33,.16,.48,.25,.15,.09,.27,.19,.38,.3,.22,.22,.46,.58,.72,1.07l3.03,6.39h-2.63l-2.46-5.57c-.18-.38-.36-.68-.55-.89-.19-.21-.39-.37-.6-.47-.21-.1-.44-.16-.69-.17-.25-.02-.53-.03-.84-.03h-1.38v7.13h-2.3v-16.05h0Zm2.3,6.9h1.95c1.11,0,1.96-.22,2.57-.66,.6-.44,.9-1.06,.9-1.85s-.27-1.33-.81-1.75-1.34-.62-2.41-.62h-2.2v4.88h0Z"></path><path class="cls-1" d="M673.02,77.92h8.98v2.02h-6.69v4.71h6.1v2.02h-6.1v5.29h6.69v2.02h-8.98v-16.06Z"></path><path class="cls-1" d="M689.81,77.92h3.13l7.09,12.93h.04v-12.93h2.29v16.06h-2.94l-7.27-13.21h-.04v13.21h-2.3v-16.06Z"></path><path class="cls-1" d="M710.44,77.92h4.74c1.19,0,2.3,.18,3.34,.54,1.04,.36,1.94,.88,2.72,1.56,.77,.68,1.39,1.5,1.83,2.48s.67,2.08,.67,3.32c0,1.35-.2,2.53-.6,3.55-.4,1.02-.97,1.87-1.71,2.56s-1.64,1.19-2.7,1.54c-1.06,.34-2.24,.52-3.56,.52h-4.74v-16.07h.01Zm2.31,14.04h2.41c.99,0,1.86-.12,2.63-.37,.76-.24,1.41-.61,1.93-1.11s.92-1.13,1.18-1.89c.27-.76,.4-1.66,.4-2.69,0-.94-.15-1.77-.45-2.51-.3-.74-.71-1.36-1.24-1.87-.53-.51-1.15-.9-1.86-1.17-.71-.27-1.49-.4-2.32-.4h-2.68v12.01Z"></path><path class="cls-1" d="M738.62,80.34c-.28-.11-.55-.21-.79-.29-.24-.08-.47-.15-.7-.21s-.46-.1-.71-.13c-.24-.03-.51-.04-.81-.04-.32,0-.65,.03-.98,.1-.33,.07-.63,.18-.9,.35-.27,.16-.49,.39-.66,.66-.17,.28-.26,.62-.26,1.03,0,.52,.17,.95,.51,1.27,.34,.34,.76,.64,1.28,.92,.52,.27,1.07,.54,1.66,.81,.43,.21,.86,.45,1.27,.71,.42,.27,.79,.58,1.11,.95,.33,.37,.59,.79,.78,1.28s.29,1.06,.29,1.72c0,.85-.16,1.58-.47,2.19-.31,.61-.73,1.1-1.27,1.48-.54,.38-1.16,.66-1.87,.84s-1.46,.27-2.26,.27c-.57,0-1.12-.07-1.67-.21-.54-.14-1.08-.29-1.62-.46l.22-2.13c.2,.07,.43,.16,.69,.25s.53,.17,.83,.25,.59,.14,.9,.2c.31,.05,.62,.08,.92,.08,.32,0,.67-.05,1.04-.15s.71-.25,1.03-.46c.31-.21,.57-.48,.78-.81s.31-.73,.31-1.2-.1-.83-.29-1.15-.45-.6-.78-.84-.7-.46-1.11-.66c-.42-.2-.84-.4-1.27-.61s-.85-.43-1.27-.67c-.42-.24-.79-.53-1.11-.87-.33-.33-.59-.73-.78-1.18-.19-.45-.29-.99-.29-1.61,0-.7,.13-1.33,.4-1.88,.27-.55,.63-1,1.1-1.37s1.01-.65,1.64-.84,1.3-.29,2.02-.29c.54,0,1.1,.04,1.7,.13,.59,.09,1.17,.24,1.73,.44l-.34,2.13Z"></path><path class="cls-1" d="M514.25,105.29h2.3v16.06h-2.3v-16.06Z"></path><path class="cls-1" d="M524.75,105.29h3.13l7.09,12.93h.04v-12.93h2.29v16.06h-2.94l-7.27-13.21h-.04v13.21h-2.3v-16.06Z"></path><path class="cls-1" d="M556.18,105.29h8.98v2.02h-6.69v4.71h6.1v2.02h-6.1v5.29h6.69v2.02h-8.98v-16.06Z"></path><path class="cls-1" d="M571.82,114.29h5.91v1.75h-5.91v-1.75Z"></path><path class="cls-1" d="M584.76,105.29h2.3v14.04h6.72v2.02h-9.02v-16.06h0Z"></path><path class="cls-1" d="M600.55,105.29h8.98v2.02h-6.69v4.71h6.1v2.02h-6.1v5.29h6.69v2.02h-8.98v-16.06Z"></path><path class="cls-1" d="M622.45,105.29h2.41l6.78,16.06h-2.5l-1.64-4.04h-7.86l-1.63,4.04h-2.41l6.85-16.06Zm1.12,2.17l-3.19,7.96h6.39l-3.2-7.96Z"></path><path class="cls-1" d="M637.97,105.29h3.93c.4,0,.8,.01,1.18,.03,.39,.02,.76,.06,1.13,.11,.37,.06,.72,.13,1.05,.22s.65,.22,.94,.38,.56,.34,.79,.56c.24,.21,.44,.47,.61,.76s.3,.63,.39,1.01,.14,.81,.14,1.29-.09,.94-.26,1.35c-.17,.42-.41,.78-.7,1.09-.3,.31-.65,.57-1.05,.78-.4,.21-.84,.35-1.3,.42v.04c.17,.07,.33,.16,.48,.25,.15,.09,.27,.19,.38,.3,.22,.22,.46,.58,.72,1.07l3.03,6.39h-2.63l-2.46-5.57c-.18-.38-.36-.68-.55-.89-.19-.21-.39-.37-.6-.47-.21-.1-.44-.16-.69-.17-.25-.02-.53-.03-.84-.03h-1.38v7.13h-2.3v-16.05h0Zm2.31,6.91h1.95c1.11,0,1.96-.22,2.57-.66,.6-.44,.9-1.06,.9-1.85s-.27-1.33-.81-1.75-1.34-.62-2.41-.62h-2.2v4.88h0Z"></path><path class="cls-1" d="M656.28,105.29h3.13l7.09,12.93h.04v-12.93h2.29v16.06h-2.94l-7.27-13.21h-.04v13.21h-2.3v-16.06Z"></path><path class="cls-1" d="M677.05,105.29h2.3v16.06h-2.3v-16.06Z"></path><path class="cls-1" d="M687.56,105.29h3.13l7.09,12.93h.04v-12.93h2.29v16.06h-2.94l-7.27-13.21h-.04v13.21h-2.3v-16.06Z"></path><path class="cls-1" d="M720.52,108.15c-.56-.37-1.18-.64-1.85-.82-.65-.19-1.51-.28-2.57-.28-.91-.01-1.75,.15-2.51,.47s-1.41,.77-1.95,1.33c-.54,.57-.96,1.23-1.26,2s-.44,1.59-.43,2.48c0,.94,.16,1.8,.48,2.58s.75,1.44,1.3,1.98c.55,.55,1.19,.97,1.92,1.27s1.52,.45,2.35,.45c.4,0,.73-.01,.99-.02,.27-.02,.49-.04,.68-.06,.19-.03,.35-.06,.49-.09s.28-.07,.42-.1v-4.88h-3.38v-1.89h5.67v8.34c-.43,.16-1.05,.31-1.84,.47-.39,.08-.84,.14-1.34,.19-.51,.04-1.08,.06-1.71,.06-1.27,0-2.43-.2-3.47-.59-1.04-.39-1.93-.95-2.67-1.68-.74-.73-1.31-1.61-1.71-2.64-.4-1.03-.61-2.18-.61-3.46s.21-2.37,.63-3.38,1.01-1.88,1.76-2.59c.75-.72,1.65-1.27,2.68-1.67,1.04-.39,2.17-.59,3.4-.59,.59,0,1.11,.02,1.54,.06,.44,.04,.83,.1,1.19,.17s.69,.16,1.01,.26c.31,.1,.64,.2,.98,.31l-.19,2.32Z"></path><path class="cls-1" d="M513.17,145.67c.4-.36,.82-.72,1.24-1.08s.83-.72,1.24-1.08,.8-.72,1.18-1.07c.38-.36,.74-.71,1.08-1.06s.65-.7,.93-1.03c.28-.34,.52-.66,.73-.98,.21-.32,.36-.62,.48-.92,.11-.3,.17-.58,.17-.85,0-.72-.22-1.24-.66-1.55s-.98-.47-1.62-.47c-.35,0-.72,.03-1.11,.09s-.77,.14-1.15,.24c-.37,.1-.73,.22-1.07,.35s-.63,.27-.88,.42l-.16-3.34c1.15-.42,2.1-.68,2.88-.77,.77-.11,1.4-.17,1.89-.17,.89,0,1.71,.1,2.47,.29,.76,.19,1.41,.48,1.95,.88,.55,.39,.97,.89,1.28,1.48,.31,.59,.46,1.28,.46,2.08s-.19,1.54-.56,2.32c-.19,.38-.39,.75-.61,1.11s-.46,.7-.72,1.04c-.26,.34-.53,.66-.79,.95-.27,.3-.54,.59-.81,.86-.55,.55-1.02,.98-1.4,1.3l-1.15,.99h6.35v3.03h-11.61v-3.06h-.03Z"></path><path class="cls-1" d="M537.45,149.01c-1.33,0-2.41-.24-3.22-.71-.82-.49-1.45-1.11-1.89-1.88-.44-.79-.74-1.67-.9-2.66-.08-.5-.13-1.01-.17-1.52-.04-.51-.06-1.03-.06-1.55s.02-1.04,.06-1.54c.04-.51,.09-1.01,.17-1.51,.16-.98,.46-1.86,.9-2.65,.44-.78,1.07-1.4,1.89-1.88s1.89-.72,3.22-.72,2.41,.24,3.21,.72c.82,.47,1.44,1.1,1.89,1.88,.46,.79,.76,1.67,.9,2.65,.16,1,.24,2.02,.24,3.05s-.08,2.07-.24,3.07c-.14,.99-.44,1.88-.9,2.66-.43,.76-1.06,1.39-1.89,1.88-.8,.47-1.87,.71-3.21,.71Zm0-2.9c.32,0,.6-.07,.83-.22,.23-.15,.42-.35,.57-.61s.28-.56,.36-.92c.09-.35,.16-.73,.21-1.13,.05-.4,.08-.82,.1-1.25,.01-.43,.02-.86,.02-1.29,0-.64-.02-1.28-.06-1.92s-.13-1.22-.27-1.74-.35-.94-.63-1.26-.66-.48-1.13-.48c-.33,0-.61,.07-.84,.22-.23,.15-.42,.35-.57,.61-.15,.26-.27,.56-.36,.91-.09,.35-.16,.72-.2,1.12-.05,.4-.08,.82-.09,1.25-.02,.43-.03,.86-.03,1.29,.01,.42,.02,.85,.03,1.28s.04,.85,.09,1.25c.04,.4,.11,.78,.2,1.13s.21,.66,.36,.92c.15,.26,.34,.46,.57,.61,.24,.16,.51,.23,.84,.23Z"></path><path class="cls-1" d="M549.59,145.67c.4-.36,.82-.72,1.24-1.08s.83-.72,1.24-1.08,.8-.72,1.18-1.07c.38-.36,.74-.71,1.08-1.06s.65-.7,.93-1.03c.28-.34,.52-.66,.73-.98,.21-.32,.36-.62,.48-.92,.11-.3,.17-.58,.17-.85,0-.72-.22-1.24-.66-1.55s-.98-.47-1.62-.47c-.35,0-.72,.03-1.11,.09s-.77,.14-1.15,.24c-.37,.1-.73,.22-1.07,.35s-.63,.27-.88,.42l-.16-3.34c1.15-.42,2.1-.68,2.88-.77,.77-.11,1.4-.17,1.89-.17,.89,0,1.71,.1,2.47,.29,.76,.19,1.41,.48,1.95,.88,.55,.39,.97,.89,1.28,1.48,.31,.59,.46,1.28,.46,2.08s-.19,1.54-.56,2.32c-.19,.38-.39,.75-.61,1.11s-.46,.7-.72,1.04c-.26,.34-.53,.66-.79,.95-.27,.3-.54,.59-.81,.86-.55,.55-1.02,.98-1.4,1.3l-1.15,.99h6.35v3.03h-11.61v-3.06h-.03Z"></path><text class="cls-2" transform="translate(566.04 148.73)"><tspan x="0" y="0">3</tspan></text></g><g><path class="cls-1" d="M519.53,27.25c0,.29,.02,.54,.05,.74,.03,.2,.1,.36,.21,.47,.11,.12,.26,.2,.45,.25s.44,.08,.76,.08h.77c.26,0,.46,.04,.59,.13,.13,.09,.2,.24,.2,.45v.76c0,.14-.02,.25-.06,.34-.04,.08-.1,.15-.17,.19-.07,.04-.16,.07-.25,.09-.1,0-.2,.02-.31,.02h-1.27c-.49,0-.91-.05-1.25-.14s-.63-.21-.85-.36-.4-.33-.52-.53-.21-.41-.27-.63c-.54,.33-1.06,.57-1.55,.7-.49,.14-.99,.21-1.5,.21-.44,0-.89-.06-1.33-.19-.45-.12-.85-.32-1.22-.59-.36-.27-.66-.61-.89-1.03-.23-.42-.35-.92-.35-1.51,0-.55,.11-1.04,.34-1.48,.23-.44,.53-.83,.9-1.17,.37-.35,.79-.65,1.27-.9,.48-.26,.97-.48,1.47-.68,.5-.19,1-.36,1.48-.5s.93-.26,1.32-.37v-1.17h1.98v6.82h0Zm-1.99-3.88c-.73,.14-1.4,.3-2,.5-.6,.19-1.12,.41-1.55,.67-.43,.25-.77,.54-1.01,.85-.24,.32-.36,.67-.36,1.07,0,.32,.07,.59,.2,.81,.14,.22,.31,.4,.53,.53,.22,.13,.47,.23,.74,.29s.55,.09,.83,.09c.52,0,1-.07,1.44-.2,.44-.13,.83-.32,1.18-.55v-4.06h0Zm-3.53-5.61c0-.16,.03-.31,.09-.46s.14-.27,.25-.37c.1-.11,.23-.19,.37-.25s.3-.09,.46-.09,.31,.03,.46,.09c.14,.06,.27,.15,.37,.25,.11,.11,.19,.23,.25,.37s.09,.3,.09,.46-.03,.31-.09,.46c-.06,.14-.15,.27-.25,.37-.11,.1-.23,.19-.37,.25s-.3,.09-.46,.09c-.33,0-.61-.11-.83-.34-.23-.23-.34-.5-.34-.83Zm3.14,0c0-.16,.03-.31,.09-.46,.06-.14,.14-.27,.25-.37,.1-.11,.23-.19,.37-.25s.3-.09,.46-.09,.31,.03,.46,.09c.14,.06,.27,.15,.37,.25,.11,.11,.19,.23,.25,.37s.09,.3,.09,.46-.03,.31-.09,.46c-.06,.14-.15,.27-.25,.37-.11,.1-.23,.19-.37,.25s-.3,.09-.46,.09c-.33,0-.61-.11-.83-.34-.23-.23-.34-.5-.34-.83Z"></path><path class="cls-1" d="M526.72,28.11c.33,.23,.72,.4,1.17,.51s.99,.17,1.61,.17h.09c.26,0,.46,.04,.59,.13,.13,.09,.2,.24,.2,.45v.76c0,.14-.02,.25-.06,.34-.04,.08-.1,.15-.17,.19-.07,.04-.16,.07-.25,.09-.1,0-.2,.02-.31,.02h-.11c-.76,0-1.4-.1-1.9-.3-.51-.2-.94-.45-1.3-.75-.18,.29-.43,.54-.73,.74-.31,.2-.69,.3-1.16,.3h-2.63c-.26,0-.46-.04-.59-.13-.13-.09-.2-.24-.2-.45v-.76c0-.14,.02-.25,.06-.34,.04-.08,.1-.15,.17-.19,.07-.04,.16-.07,.25-.09,.1,0,.2-.02,.31-.02h2.22c.23,0,.42-.1,.56-.31,.14-.21,.2-.52,.2-.94v-5.27h1.98v5.85Zm-3.86,5.96c0-.16,.03-.31,.09-.46,.06-.14,.14-.27,.25-.37,.1-.11,.23-.19,.37-.25s.3-.09,.46-.09,.31,.03,.46,.09c.14,.06,.27,.15,.37,.25,.11,.11,.19,.23,.25,.37s.09,.3,.09,.46-.03,.31-.09,.46c-.06,.14-.15,.27-.25,.37-.11,.1-.23,.19-.37,.25s-.3,.09-.46,.09c-.33,0-.61-.11-.83-.34-.23-.22-.34-.5-.34-.83Zm3.14,0c0-.16,.03-.31,.09-.46,.06-.14,.14-.27,.25-.37,.1-.11,.23-.19,.37-.25s.3-.09,.46-.09,.31,.03,.46,.09c.14,.06,.27,.15,.37,.25,.11,.11,.19,.23,.25,.37s.09,.3,.09,.46-.03,.31-.09,.46c-.06,.14-.15,.27-.25,.37-.11,.1-.23,.19-.37,.25s-.3,.09-.46,.09c-.33,0-.61-.11-.83-.34-.23-.22-.34-.5-.34-.83Z"></path><path class="cls-1" d="M532.99,29.25c-.15,.29-.32,.53-.49,.72s-.36,.35-.56,.47-.42,.2-.67,.25c-.24,.05-.51,.08-.81,.08h-.86c-.26,0-.46-.04-.59-.13-.13-.09-.2-.24-.2-.45v-.76c0-.14,.02-.25,.06-.34,.04-.08,.1-.15,.17-.19,.07-.04,.16-.07,.25-.09,.1,0,.2-.02,.31-.02h.52c.45,0,.86-.1,1.22-.31,.36-.21,.6-.54,.72-1,.21-.79,.45-1.46,.72-2.03,.26-.57,.54-1.05,.83-1.45,.29-.4,.59-.72,.89-.97s.6-.44,.89-.58c.29-.14,.57-.23,.84-.28s.52-.07,.74-.07c.49,0,.94,.07,1.34,.21s.76,.33,1.08,.57,.59,.52,.83,.83c.23,.32,.43,.64,.58,.99,.15,.34,.27,.69,.34,1.04,.07,.35,.11,.69,.11,1,0,.4-.07,.83-.22,1.29,.35,.26,.75,.45,1.22,.58s1.03,.19,1.69,.19h.09c.26,0,.46,.04,.59,.13,.13,.09,.2,.24,.2,.45v.76c0,.14-.02,.25-.06,.34-.04,.08-.1,.15-.17,.19-.07,.04-.16,.07-.25,.09-.1,0-.2,.02-.31,.02h-.11c-.45,0-.86-.04-1.23-.11-.36-.07-.69-.17-.97-.3-.29-.13-.54-.28-.77-.45-.23-.17-.43-.36-.62-.56-.35,.44-.8,.81-1.35,1.1-.55,.29-1.21,.43-1.99,.43-.48,0-.92-.05-1.34-.15-.42-.1-.79-.23-1.12-.38-.33-.15-.63-.33-.89-.52-.27-.21-.48-.4-.65-.59Zm6.47-2.29c0-.27-.05-.58-.15-.92-.1-.34-.25-.67-.46-.98s-.48-.57-.8-.78c-.32-.21-.71-.31-1.16-.31s-.82,.11-1.17,.34c-.36,.23-.67,.53-.94,.9s-.5,.79-.68,1.27c-.18,.48-.32,.97-.4,1.48,.07,.1,.22,.21,.43,.32s.46,.22,.74,.31c.28,.09,.58,.17,.9,.23s.63,.09,.92,.09c.42,0,.8-.03,1.14-.09s.63-.16,.88-.3c.24-.14,.43-.34,.56-.59,.13-.26,.19-.58,.19-.97Z"></path><path class="cls-1" d="M544.02,30.77c-.26,0-.46-.04-.59-.13-.13-.09-.2-.24-.2-.45v-.76c0-.14,.02-.25,.06-.34,.04-.08,.1-.15,.17-.19,.07-.04,.16-.07,.25-.09,.1,0,.2-.02,.31-.02h2.99V14.95h1.98v15.82h-4.97Z"></path><path class="cls-1" d="M552.52,14.96h1.98v11.81c0,.4,.02,.72,.05,.99,.03,.26,.09,.47,.18,.62,.08,.15,.2,.26,.34,.32,.14,.06,.33,.09,.56,.09h.74c.26,0,.46,.04,.59,.13,.13,.09,.2,.24,.2,.45v.76c0,.14-.02,.25-.06,.34-.04,.08-.1,.15-.17,.19-.07,.04-.16,.07-.25,.09-.1,0-.2,.02-.31,.02h-1.03c-.48,0-.9-.08-1.26-.24-.35-.16-.64-.39-.88-.67-.23-.29-.4-.62-.51-1.01s-.17-.81-.17-1.27V14.96Z"></path><path class="cls-1" d="M561.08,28.26c-.32-.23-.64-.52-.94-.87-.3-.34-.59-.69-.85-1.04-.26-.35-.5-.68-.72-.98-.21-.3-.39-.53-.52-.68,.03-.15,.07-.33,.13-.52s.12-.39,.19-.57c.07-.19,.14-.35,.22-.49,.08-.14,.15-.23,.23-.28,.23-.12,.5-.26,.83-.4,.32-.14,.68-.27,1.08-.38s.84-.21,1.31-.29c.47-.08,.97-.12,1.5-.12,.4,0,.8,.04,1.2,.12s.77,.19,1.1,.35c.33,.15,.6,.35,.81,.59,.21,.24,.31,.52,.31,.84,0,.23-.03,.5-.08,.81s-.17,.66-.34,1.06c-.17,.39-.42,.83-.75,1.3-.33,.48-.77,.99-1.32,1.55,.17,.08,.38,.15,.63,.21,.25,.06,.52,.12,.83,.16,.3,.04,.62,.08,.97,.1,.35,.03,.7,.04,1.07,.04h.91c.26,0,.46,.04,.59,.13,.13,.09,.2,.24,.2,.45v.76c0,.14-.02,.25-.06,.34-.04,.08-.1,.15-.17,.19-.07,.04-.16,.07-.25,.09-.1,0-.2,.02-.31,.02h-1.49c-.59,0-1.15-.05-1.66-.14-.51-.1-.97-.21-1.38-.34-.41-.13-.77-.27-1.07-.42s-.54-.27-.7-.37c-.3,.17-.63,.33-.98,.48s-.73,.29-1.13,.41c-.4,.12-.83,.21-1.28,.28s-.92,.1-1.4,.1h-1.42c-.26,0-.46-.04-.59-.13-.13-.09-.2-.24-.2-.45v-.76c0-.14,.02-.25,.06-.34,.04-.08,.1-.15,.17-.19,.07-.04,.16-.07,.25-.09,.1,0,.2-.02,.31-.02h1.55c.4,0,.78-.02,1.13-.05s.67-.07,.94-.12c.28-.05,.5-.1,.69-.17,.18-.04,.32-.1,.4-.17Zm3.96-3.63c0-.16-.05-.32-.15-.46-.1-.15-.25-.28-.45-.4s-.44-.21-.72-.28-.6-.1-.96-.1c-.41,0-.86,.05-1.35,.16s-1.02,.29-1.6,.54c.1,.18,.25,.43,.46,.73s.45,.61,.73,.94c.28,.32,.58,.64,.89,.94,.32,.3,.62,.55,.93,.74,.34-.21,.65-.44,.93-.71,.28-.27,.51-.53,.7-.79s.34-.51,.45-.74c.09-.24,.14-.43,.14-.57Z"></path><path class="cls-1" d="M568.88,30.77c-.26,0-.46-.04-.59-.13-.13-.09-.2-.24-.2-.45v-.76c0-.14,.02-.25,.06-.34,.04-.08,.1-.15,.17-.19,.07-.04,.16-.07,.25-.09,.1,0,.2-.02,.31-.02h2.99V14.95h1.98v15.82h-4.97Z"></path><path class="cls-1" d="M577.6,14.96h1.98v15.82h-1.98V14.96Z"></path><path class="cls-1" d="M593.8,30.77c-.88,0-1.64-.05-2.28-.14-.64-.1-1.18-.23-1.62-.41-.44-.18-.8-.39-1.07-.63-.27-.25-.48-.52-.63-.81s-.25-.61-.3-.95-.08-.69-.08-1.06c0-.14,.01-.3,.02-.48s.03-.37,.05-.57c.02-.19,.05-.39,.07-.58,.03-.19,.05-.37,.08-.53l1.87,.18c-.04,.26-.07,.51-.11,.77-.04,.26-.05,.51-.05,.77,0,.44,.05,.82,.17,1.13,.11,.31,.35,.57,.71,.77,.36,.2,.89,.34,1.59,.44,.7,.09,1.63,.14,2.81,.14h8.9v-6.53h1.98v8.51h-12.11v-.02Zm.95-12.46c0-.16,.03-.31,.09-.46,.06-.14,.14-.27,.25-.37,.1-.11,.23-.19,.37-.25s.3-.09,.46-.09,.31,.03,.46,.09c.14,.06,.27,.15,.37,.25,.11,.11,.19,.23,.25,.37s.09,.3,.09,.46-.03,.31-.09,.46c-.06,.14-.15,.27-.25,.37-.11,.1-.23,.19-.37,.25s-.3,.09-.46,.09c-.33,0-.61-.11-.83-.34-.23-.23-.34-.5-.34-.83Zm3.13,0c0-.16,.03-.31,.09-.46,.06-.14,.14-.27,.25-.37,.1-.11,.23-.19,.37-.25s.29-.09,.46-.09c.16,0,.31,.03,.46,.09,.14,.06,.27,.15,.37,.25,.11,.11,.19,.23,.25,.37s.09,.3,.09,.46-.03,.31-.09,.46c-.06,.14-.15,.27-.25,.37-.11,.1-.23,.19-.37,.25s-.3,.09-.46,.09c-.33,0-.61-.11-.83-.34-.22-.23-.34-.5-.34-.83Z"></path><path class="cls-1" d="M609.43,14.96h1.98v11.81c0,.4,.02,.72,.05,.99,.03,.26,.09,.47,.18,.62,.08,.15,.2,.26,.34,.32,.14,.06,.33,.09,.56,.09h.74c.26,0,.46,.04,.59,.13s.2,.24,.2,.45v.76c0,.14-.02,.25-.06,.34-.04,.08-.1,.15-.17,.19-.07,.04-.16,.07-.25,.09-.1,0-.2,.02-.31,.02h-1.03c-.48,0-.9-.08-1.26-.24-.35-.16-.64-.39-.88-.67-.23-.29-.4-.62-.51-1.01s-.17-.81-.17-1.27V14.96Z"></path><path class="cls-1" d="M613.28,30.77c-.26,0-.46-.04-.59-.13-.13-.09-.2-.24-.2-.45v-.76c0-.14,.02-.25,.06-.34,.04-.08,.1-.15,.17-.19,.07-.04,.16-.07,.25-.09,.1,0,.2-.02,.31-.02h2.65c.18-.84,.41-1.6,.69-2.26,.28-.66,.58-1.25,.9-1.75s.66-.93,1-1.28,.67-.63,.98-.86c.31-.22,.59-.39,.85-.48,.25-.1,.46-.15,.61-.15,.42,0,.81,.12,1.17,.35,.36,.23,.68,.54,.95,.92s.48,.81,.63,1.29,.23,.97,.23,1.46c0,.56-.1,1.06-.29,1.52s-.45,.85-.78,1.18v.06h3.38c.26,0,.46,.04,.59,.13s.2,.24,.2,.45v.76c0,.14-.02,.25-.06,.34-.04,.08-.1,.15-.17,.19-.07,.04-.16,.07-.25,.09-.1,0-.2,.02-.31,.02h-3.62v.06c.32,.29,.59,.67,.81,1.12,.22,.46,.33,1,.33,1.64,0,.59-.1,1.12-.31,1.59-.21,.46-.47,.85-.79,1.16s-.68,.55-1.07,.72-.78,.25-1.15,.25c-.3,0-.63-.04-.97-.12-.35-.08-.7-.22-1.05-.41s-.69-.46-1.02-.78c-.33-.33-.62-.73-.88-1.21-.25-.48-.45-1.05-.6-1.71-.15-.66-.23-1.42-.23-2.29h-2.42v-.02Zm4.23,0c0,.83,.1,1.54,.3,2.12,.2,.59,.45,1.06,.76,1.43,.3,.37,.64,.63,1,.8s.7,.25,1.02,.25c.21,0,.39-.06,.57-.17,.17-.11,.32-.26,.45-.44,.13-.18,.22-.39,.29-.63s.1-.49,.1-.74c0-.34-.06-.66-.17-.98-.11-.32-.28-.6-.48-.84-.21-.25-.46-.44-.76-.59s-.63-.22-1.01-.22h-2.07Zm4.68-4.31c0-.32-.05-.62-.14-.91-.1-.29-.22-.55-.37-.77s-.33-.4-.52-.54-.38-.2-.57-.2c-.11,0-.25,.06-.42,.18s-.35,.29-.54,.5c-.2,.21-.39,.47-.59,.77s-.38,.62-.55,.97-.32,.73-.44,1.12c-.12,.4-.21,.8-.24,1.21h1.86c.37,0,.72-.06,1.03-.18,.31-.12,.58-.28,.8-.49s.4-.45,.52-.74c.12-.27,.17-.58,.17-.92Z"></path><path class="cls-1" d="M628.32,22.14c.43-.12,.87-.24,1.32-.34,.44-.1,.95-.15,1.5-.15s1.07,.09,1.5,.26c.44,.18,.81,.42,1.12,.74s.56,.69,.76,1.13c.19,.44,.33,.91,.41,1.43,.07,.47,.15,.92,.22,1.35,.07,.43,.17,.81,.28,1.15s.26,.59,.43,.79c.17,.19,.39,.29,.67,.29v1.98h-10.27c-.26,0-.46-.04-.59-.13-.13-.09-.2-.24-.2-.45v-.76c0-.14,.02-.25,.06-.34,.04-.08,.1-.15,.17-.19,.07-.04,.16-.07,.25-.09,.1,0,.2-.02,.31-.02h7.83c-.15-.15-.28-.36-.38-.63-.1-.26-.18-.63-.25-1.09-.06-.43-.13-.86-.23-1.29-.09-.43-.24-.81-.44-1.15s-.48-.62-.83-.83c-.35-.21-.81-.31-1.38-.31-.16,0-.34,0-.55,.04-.21,.03-.41,.06-.63,.1-.21,.04-.41,.09-.6,.14s-.35,.11-.48,.17v-1.8h0Zm2.23,11.93c0-.16,.03-.31,.09-.46,.06-.14,.14-.27,.25-.37,.1-.11,.23-.19,.37-.25s.29-.09,.46-.09c.16,0,.31,.03,.46,.09,.14,.06,.27,.15,.37,.25,.11,.11,.19,.23,.25,.37s.09,.3,.09,.46-.03,.31-.09,.46c-.06,.14-.15,.27-.25,.37s-.23,.19-.37,.25-.3,.09-.46,.09c-.33,0-.61-.11-.83-.34-.23-.22-.34-.5-.34-.83Z"></path><path class="cls-1" d="M644.12,30.77c-.9,0-1.66-.13-2.28-.39-.62-.26-1.12-.59-1.5-1s-.66-.87-.83-1.38c-.17-.51-.25-1.02-.25-1.53,0-.64,.11-1.24,.33-1.79,.22-.56,.54-1.04,.95-1.46,.41-.41,.91-.74,1.48-.97,.58-.23,1.23-.35,1.95-.35,.29,0,.59,.03,.9,.08,.32,.06,.63,.15,.93,.3,.3,.14,.59,.34,.87,.58,.27,.24,.51,.55,.72,.92,.21,.37,.37,.81,.49,1.33s.18,1.12,.18,1.8v1.88h2.38c.26,0,.46,.04,.59,.13,.13,.09,.2,.24,.2,.45v.76c0,.14-.02,.25-.06,.34-.04,.08-.1,.15-.17,.19-.07,.04-.16,.07-.25,.09-.1,0-.2,.02-.31,.02h-2.52c-.19,.8-.5,1.48-.93,2.04s-.95,1.02-1.56,1.38-1.31,.65-2.09,.85c-.78,.2-1.62,.35-2.5,.43l-.21-1.9c1.5-.1,2.7-.39,3.61-.88,.91-.48,1.48-1.12,1.71-1.92h-1.83Zm1.95-1.98v-1.24c0-.79-.07-1.43-.22-1.92-.14-.5-.33-.88-.56-1.16s-.5-.46-.79-.56c-.3-.1-.6-.15-.9-.15-.34,0-.65,.06-.95,.19-.29,.12-.55,.3-.77,.53-.22,.23-.39,.5-.51,.82s-.19,.67-.19,1.05c0,.33,.05,.64,.16,.94s.28,.56,.51,.78,.54,.4,.9,.53c.37,.13,.81,.2,1.34,.2h1.98Z"></path><path class="cls-1" d="M655.38,28.11c.33,.23,.72,.4,1.17,.51s.99,.17,1.61,.17h.09c.26,0,.46,.04,.59,.13,.13,.09,.2,.24,.2,.45v.76c0,.14-.02,.25-.06,.34-.04,.08-.1,.15-.17,.19-.07,.04-.16,.07-.25,.09-.1,0-.2,.02-.31,.02h-.11c-.76,0-1.4-.1-1.9-.3s-.94-.45-1.3-.75c-.18,.29-.43,.54-.73,.74-.31,.2-.69,.3-1.16,.3h-2.63c-.26,0-.46-.04-.59-.13-.13-.09-.2-.24-.2-.45v-.76c0-.14,.02-.25,.06-.34,.04-.08,.1-.15,.17-.19,.07-.04,.16-.07,.25-.09,.1,0,.2-.02,.31-.02h2.22c.23,0,.42-.1,.56-.31,.14-.21,.2-.52,.2-.94v-5.27h1.98v5.85Zm-3.79-9.8c0-.16,.03-.31,.09-.46,.06-.14,.14-.27,.25-.37,.1-.11,.23-.19,.37-.25s.3-.09,.46-.09,.31,.03,.46,.09c.14,.06,.27,.15,.37,.25,.11,.11,.19,.23,.25,.37s.09,.3,.09,.46-.03,.31-.09,.46c-.06,.14-.15,.27-.25,.37-.11,.1-.23,.19-.37,.25s-.3,.09-.46,.09c-.33,0-.61-.11-.83-.34-.23-.23-.34-.5-.34-.83Zm3.14,0c0-.16,.03-.31,.09-.46,.06-.14,.14-.27,.25-.37,.1-.11,.23-.19,.37-.25s.3-.09,.46-.09,.31,.03,.46,.09c.14,.06,.27,.15,.37,.25,.11,.11,.19,.23,.25,.37s.09,.3,.09,.46-.03,.31-.09,.46c-.06,.14-.15,.27-.25,.37-.11,.1-.23,.19-.37,.25s-.3,.09-.46,.09c-.33,0-.61-.11-.83-.34-.23-.23-.34-.5-.34-.83Z"></path><path class="cls-1" d="M658.26,30.77c-.26,0-.46-.04-.59-.13-.13-.09-.2-.24-.2-.45v-.76c0-.14,.02-.25,.06-.34,.04-.08,.1-.15,.17-.19,.07-.04,.16-.07,.25-.09,.1,0,.2-.02,.31-.02h2.99V14.95h1.98v15.82h-4.97Z"></path><path class="cls-1" d="M666.98,14.96h1.98v15.82h-1.98V14.96Z"></path><path class="cls-1" d="M689.31,26.64c0-1.46,.37-2.56,1.11-3.29s1.89-1.1,3.44-1.1h2.93v4.53c0,.45,.02,.8,.07,1.07,.05,.26,.12,.47,.22,.61s.22,.23,.37,.28c.15,.04,.32,.07,.52,.07h1.06c.26,0,.46,.04,.59,.13,.13,.09,.2,.24,.2,.45v.76c0,.14-.02,.25-.06,.34-.04,.08-.1,.15-.17,.19-.07,.04-.16,.07-.25,.09-.1,0-.2,.02-.31,.02h-1.39c-.36,0-.71-.06-1.05-.17-.34-.11-.64-.29-.9-.54s-.48-.58-.64-.99c-.16-.41-.24-.91-.24-1.5v-3.45h-.4c-.48,0-.92,.03-1.3,.1s-.71,.2-.98,.4-.48,.48-.62,.83-.22,.82-.22,1.4v3.25c0,.68-.15,1.35-.46,2-.3,.65-.75,1.23-1.32,1.75-.58,.51-1.28,.92-2.11,1.23-.83,.31-1.78,.47-2.84,.47-1,0-1.88-.1-2.64-.3-.75-.2-1.4-.46-1.95-.79-.55-.33-1-.7-1.35-1.12-.36-.42-.64-.84-.85-1.28s-.36-.86-.44-1.27-.13-.77-.13-1.09c0-.41,.03-.81,.09-1.21,.06-.4,.15-.77,.27-1.13,.11-.36,.25-.69,.41-1s.33-.57,.51-.81l1.63,.89c-.14,.19-.27,.41-.38,.66s-.21,.5-.3,.78c-.08,.27-.15,.55-.19,.83s-.07,.56-.07,.83c0,.25,.03,.52,.08,.81,.06,.29,.16,.59,.3,.88,.15,.29,.35,.58,.6,.85,.26,.28,.58,.52,.98,.73s.87,.38,1.44,.5c.56,.12,1.22,.19,1.97,.19s1.4-.09,1.99-.27c.59-.18,1.08-.42,1.49-.72s.72-.64,.93-1.02c.22-.38,.32-.78,.32-1.19v-3.68h.04Z"></path><path class="cls-1" d="M710.47,30.77c-.87,0-1.65-.03-2.36-.09-.71-.06-1.36-.15-1.95-.28-.42,.07-.87,.13-1.35,.18-.48,.04-.98,.08-1.5,.11-.51,.03-1.04,.05-1.57,.06s-1.06,.02-1.57,.02h-1.14c-.26,0-.46-.04-.59-.13-.13-.09-.2-.24-.2-.45v-.76c0-.14,.02-.25,.06-.34,.04-.08,.1-.15,.17-.19,.07-.04,.16-.07,.25-.09,.1,0,.2-.02,.31-.02h3.07v-.04c-.21-.17-.38-.36-.52-.58s-.26-.45-.35-.68c-.1-.23-.17-.47-.21-.69-.04-.23-.07-.43-.07-.62,0-.58,.11-1.13,.33-1.66,.22-.52,.53-.99,.94-1.38,.41-.4,.9-.71,1.49-.94,.59-.23,1.24-.35,1.97-.35,.64,0,1.2,.1,1.69,.31,.49,.21,.9,.48,1.23,.84,.33,.35,.59,.77,.75,1.24,.17,.47,.25,.98,.25,1.51,0,.32-.03,.63-.08,.93-.05,.3-.12,.58-.2,.84s-.17,.5-.26,.72-.17,.4-.24,.56h2.83c.26,0,.46,.04,.59,.13s.2,.24,.2,.45v.76c0,.14-.02,.25-.06,.34-.04,.08-.1,.15-.17,.19-.07,.04-.16,.07-.25,.09-.1,0-.2,.02-.31,.02h-1.18Zm-7.98-12.47c0-.16,.03-.31,.09-.46,.06-.14,.14-.27,.25-.37,.1-.11,.23-.19,.37-.25s.3-.09,.46-.09,.31,.03,.46,.09c.14,.06,.27,.15,.37,.25,.11,.11,.19,.23,.25,.37s.09,.3,.09,.46-.03,.31-.09,.46c-.06,.14-.15,.27-.25,.37-.11,.1-.23,.19-.37,.25s-.3,.09-.46,.09c-.33,0-.61-.11-.83-.34-.23-.23-.34-.5-.34-.83Zm.32,7.63c0,.43,.08,.82,.25,1.17,.17,.35,.4,.65,.69,.9s.64,.44,1.03,.58,.81,.2,1.26,.2h.69c.09-.12,.18-.28,.29-.47,.1-.19,.2-.4,.28-.63,.08-.23,.16-.48,.22-.75s.09-.55,.09-.83c0-.4-.06-.76-.19-1.07-.13-.31-.3-.57-.51-.78-.21-.21-.46-.37-.74-.47-.28-.11-.57-.16-.87-.16s-.6,.05-.9,.14c-.3,.09-.56,.23-.8,.42-.23,.19-.43,.43-.57,.72-.15,.29-.22,.63-.22,1.03Zm2.82-7.63c0-.16,.03-.31,.09-.46,.06-.14,.14-.27,.25-.37,.1-.11,.23-.19,.37-.25s.3-.09,.46-.09,.31,.03,.46,.09c.14,.06,.27,.15,.37,.25,.11,.11,.19,.23,.25,.37s.09,.3,.09,.46-.03,.31-.09,.46c-.06,.14-.15,.27-.25,.37-.11,.1-.23,.19-.37,.25s-.3,.09-.46,.09c-.33,0-.61-.11-.83-.34-.23-.23-.34-.5-.34-.83Z"></path><path class="cls-1" d="M716.63,28.11c.33,.23,.72,.4,1.17,.51s.99,.17,1.61,.17h.09c.26,0,.46,.04,.59,.13,.13,.09,.2,.24,.2,.45v.76c0,.14-.02,.25-.06,.34-.04,.08-.1,.15-.17,.19-.07,.04-.16,.07-.25,.09-.1,0-.2,.02-.31,.02h-.11c-.76,0-1.4-.1-1.9-.3-.51-.2-.94-.45-1.3-.75-.18,.29-.43,.54-.73,.74-.31,.2-.69,.3-1.16,.3h-2.63c-.26,0-.46-.04-.59-.13-.13-.09-.2-.24-.2-.45v-.76c0-.14,.02-.25,.06-.34,.04-.08,.1-.15,.17-.19,.07-.04,.16-.07,.25-.09,.1,0,.2-.02,.31-.02h2.22c.23,0,.42-.1,.56-.31,.14-.21,.2-.52,.2-.94v-5.27h1.98v5.85Zm-3.79-9.8c0-.16,.03-.31,.09-.46,.06-.14,.14-.27,.25-.37,.1-.11,.23-.19,.37-.25s.3-.09,.46-.09,.31,.03,.46,.09c.14,.06,.27,.15,.37,.25,.11,.11,.19,.23,.25,.37s.09,.3,.09,.46-.03,.31-.09,.46c-.06,.14-.15,.27-.25,.37-.11,.1-.23,.19-.37,.25s-.3,.09-.46,.09c-.33,0-.61-.11-.83-.34-.23-.23-.34-.5-.34-.83Zm3.14,0c0-.16,.03-.31,.09-.46,.06-.14,.14-.27,.25-.37,.1-.11,.23-.19,.37-.25s.3-.09,.46-.09,.31,.03,.46,.09c.14,.06,.27,.15,.37,.25,.11,.11,.19,.23,.25,.37s.09,.3,.09,.46-.03,.31-.09,.46c-.06,.14-.15,.27-.25,.37-.11,.1-.23,.19-.37,.25s-.3,.09-.46,.09c-.33,0-.61-.11-.83-.34-.23-.23-.34-.5-.34-.83Z"></path><path class="cls-1" d="M724.48,28.08c.34,.23,.73,.41,1.19,.53,.45,.12,1,.18,1.63,.18h.09c.26,0,.46,.04,.59,.13,.13,.09,.2,.24,.2,.45v.76c0,.14-.02,.25-.06,.34-.04,.08-.1,.15-.17,.19-.07,.04-.16,.07-.25,.09-.1,0-.2,.02-.31,.02h-.11c-.77,0-1.41-.1-1.92-.3s-.94-.45-1.3-.76c-.17,.3-.42,.55-.73,.75s-.7,.3-1.18,.3h-2.63c-.26,0-.46-.04-.59-.13-.13-.09-.2-.24-.2-.45v-.76c0-.14,.02-.25,.06-.34,.04-.08,.1-.15,.17-.19,.07-.04,.16-.07,.25-.09,.1,0,.2-.02,.31-.02h2.22c.23,0,.42-.1,.56-.31,.14-.21,.2-.52,.2-.94V14.93h1.98v13.15h0Z"></path><path class="cls-1" d="M730.79,29.25c-.15,.29-.32,.53-.49,.72s-.36,.35-.56,.47-.42,.2-.67,.25c-.24,.05-.51,.08-.81,.08h-.86c-.26,0-.46-.04-.59-.13-.13-.09-.2-.24-.2-.45v-.76c0-.14,.02-.25,.06-.34,.04-.08,.1-.15,.17-.19,.07-.04,.16-.07,.25-.09,.1,0,.2-.02,.31-.02h.52c.45,0,.86-.1,1.22-.31,.36-.21,.6-.54,.72-1,.21-.79,.45-1.46,.72-2.03,.26-.57,.54-1.05,.83-1.45,.29-.4,.59-.72,.89-.97s.6-.44,.89-.58c.29-.14,.57-.23,.84-.28s.52-.07,.74-.07c.49,0,.94,.07,1.34,.21s.76,.33,1.08,.57,.59,.52,.83,.83c.23,.32,.43,.64,.58,.99,.15,.34,.27,.69,.34,1.04,.07,.35,.11,.69,.11,1,0,.29-.04,.59-.11,.91s-.18,.63-.33,.94c-.15,.3-.34,.6-.57,.88s-.5,.52-.82,.74c-.32,.21-.68,.38-1.08,.51-.4,.12-.86,.19-1.35,.19s-.92-.05-1.34-.15c-.42-.1-.79-.23-1.12-.38-.33-.15-.63-.33-.89-.52-.27-.23-.48-.42-.65-.61Zm6.47-2.29c0-.27-.05-.58-.15-.92-.1-.34-.25-.67-.46-.98s-.48-.57-.8-.78c-.32-.21-.71-.31-1.16-.31s-.82,.11-1.17,.34c-.36,.23-.67,.53-.94,.9s-.5,.79-.68,1.27c-.18,.48-.32,.97-.4,1.48,.07,.1,.22,.21,.43,.32s.46,.22,.74,.31c.28,.09,.58,.17,.9,.23s.63,.09,.92,.09c.42,0,.8-.03,1.14-.09s.63-.16,.88-.3c.24-.14,.43-.34,.56-.59,.13-.26,.19-.58,.19-.97Z"></path><path class="cls-1" d="M523.6,55.88c0-1.46,.37-2.56,1.11-3.29s1.89-1.1,3.44-1.1h2.93v4.53c0,.45,.02,.8,.07,1.07,.05,.26,.12,.47,.22,.61s.22,.23,.37,.28c.15,.04,.32,.07,.52,.07h1.06c.26,0,.46,.04,.59,.13,.13,.09,.2,.24,.2,.45v.76c0,.14-.02,.25-.06,.34-.04,.08-.1,.15-.17,.19-.07,.04-.16,.07-.25,.09-.1,0-.2,.02-.31,.02h-1.39c-.36,0-.71-.06-1.05-.17-.34-.11-.64-.29-.9-.54s-.48-.58-.64-.99c-.16-.41-.24-.91-.24-1.5v-3.45h-.4c-.48,0-.92,.03-1.3,.1s-.71,.2-.98,.4c-.27,.2-.48,.48-.62,.83-.14,.36-.22,.82-.22,1.4v3.25c0,.68-.15,1.35-.46,2-.3,.65-.75,1.23-1.32,1.75-.58,.51-1.28,.92-2.11,1.23-.83,.31-1.78,.47-2.83,.47s-1.88-.1-2.64-.3c-.75-.2-1.4-.46-1.95-.79s-1-.7-1.35-1.12c-.36-.42-.64-.84-.85-1.28s-.36-.86-.44-1.27-.13-.77-.13-1.09c0-.41,.03-.81,.09-1.21,.06-.4,.15-.77,.27-1.13,.11-.36,.25-.69,.41-1,.16-.3,.33-.57,.51-.81l1.63,.89c-.14,.19-.27,.41-.38,.66s-.21,.5-.3,.78c-.08,.27-.15,.55-.19,.83s-.07,.56-.07,.83c0,.25,.03,.52,.08,.81,.06,.29,.16,.59,.3,.88,.15,.29,.35,.58,.6,.85,.26,.28,.58,.52,.98,.73,.4,.21,.87,.38,1.44,.5,.56,.12,1.22,.19,1.97,.19s1.4-.09,1.99-.27c.59-.18,1.08-.42,1.49-.72s.72-.64,.93-1.02c.22-.38,.32-.78,.32-1.19v-3.68h.03Zm-7.42,11.63c0-.16,.03-.31,.09-.46,.06-.14,.14-.27,.25-.37,.1-.11,.23-.19,.37-.25s.29-.09,.46-.09c.16,0,.31,.03,.46,.09,.14,.06,.27,.15,.37,.25,.11,.11,.19,.23,.25,.37,.06,.14,.09,.3,.09,.46s-.03,.31-.09,.46c-.06,.14-.15,.27-.25,.37-.11,.1-.23,.19-.37,.25s-.3,.09-.46,.09c-.33,0-.61-.11-.83-.34-.23-.23-.34-.5-.34-.83Zm3.14,0c0-.16,.03-.31,.09-.46,.06-.14,.14-.27,.25-.37,.1-.11,.23-.19,.37-.25s.3-.09,.46-.09,.31,.03,.46,.09c.14,.06,.27,.15,.37,.25,.11,.11,.19,.23,.25,.37,.06,.14,.09,.3,.09,.46s-.03,.31-.09,.46c-.06,.14-.15,.27-.25,.37-.11,.1-.23,.19-.37,.25s-.3,.09-.46,.09c-.33,0-.61-.11-.83-.34-.23-.23-.34-.5-.34-.83Z"></path><path class="cls-1" d="M537.59,59.37c0,.14-.02,.25-.06,.34-.04,.08-.1,.15-.17,.19-.07,.04-.16,.07-.25,.09-.1,0-.2,.02-.31,.02h-3.49c-.11,0-.21,0-.31-.02-.1,0-.18-.04-.25-.09-.07-.04-.13-.11-.17-.19s-.06-.2-.06-.34v-.76c0-.21,.07-.36,.2-.45s.33-.13,.59-.13h3.49c.26,0,.46,.04,.59,.13,.13,.09,.2,.24,.2,.45v.76h0Z"></path><path class="cls-1" d="M536.8,60.01c-.26,0-.46-.04-.59-.13-.13-.09-.2-.24-.2-.45v-.76c0-.14,.02-.25,.06-.34,.04-.08,.1-.15,.17-.19,.07-.04,.16-.07,.25-.09,.1,0,.2-.02,.31-.02h3.62v-6.53h1.98v8.51h-5.6Zm3.53-12.47c0-.16,.03-.31,.09-.46,.06-.14,.14-.27,.25-.37,.1-.11,.23-.19,.37-.25s.3-.09,.46-.09,.31,.03,.46,.09c.14,.06,.27,.15,.37,.25,.11,.11,.19,.23,.25,.37s.09,.3,.09,.46-.03,.31-.09,.46c-.06,.14-.15,.27-.25,.37-.11,.1-.23,.19-.37,.25s-.3,.09-.46,.09c-.33,0-.61-.11-.83-.34-.22-.22-.34-.5-.34-.83Z"></path><path class="cls-1" d="M552.88,59.6c-.18,.08-.36,.15-.56,.21-.2,.06-.4,.11-.59,.14-.2,.03-.39,.06-.57,.07-.18,0-.35,.02-.51,.02-.84,0-1.54-.13-2.12-.39s-1.05-.6-1.42-1.01c-.36-.41-.63-.88-.79-1.39-.17-.52-.25-1.03-.25-1.54,0-.64,.11-1.24,.33-1.79,.22-.56,.54-1.04,.95-1.46,.41-.41,.91-.74,1.48-.97,.58-.23,1.23-.35,1.95-.35,.29,0,.59,.03,.9,.08,.32,.06,.63,.15,.93,.3s.59,.34,.87,.58c.27,.24,.51,.55,.72,.92s.37,.81,.49,1.33,.18,1.12,.18,1.8v1.85c0,1.2-.18,2.2-.54,3.01s-.86,1.47-1.5,1.99-1.4,.91-2.29,1.17c-.89,.26-1.85,.45-2.91,.55l-.21-1.9c.81-.06,1.54-.18,2.16-.35,.63-.18,1.17-.4,1.62-.68s.82-.6,1.1-.96c.27-.39,.47-.79,.58-1.23Zm-1.92-1.54c.18,0,.37,0,.56-.03s.37-.04,.54-.08c.17-.03,.33-.07,.47-.11s.25-.08,.34-.12v-.96c0-.78-.07-1.42-.22-1.92-.14-.49-.33-.88-.56-1.15-.23-.27-.5-.46-.79-.56-.3-.1-.6-.15-.9-.15-.34,0-.65,.06-.95,.19-.29,.12-.55,.3-.77,.53-.22,.23-.39,.5-.51,.82s-.19,.67-.19,1.05c0,.33,.05,.64,.17,.94,.11,.3,.28,.56,.52,.79s.54,.41,.92,.54c.39,.15,.84,.22,1.37,.22Z"></path><path class="cls-1" d="M556.29,62.72c.78-.1,1.41-.26,1.88-.47,.47-.21,.82-.48,1.06-.8,.24-.33,.4-.71,.47-1.15,.07-.44,.11-.94,.11-1.5v-7.3h1.98v6.53h2.59c.26,0,.46,.04,.59,.13,.13,.09,.2,.24,.2,.45v.76c0,.14-.02,.25-.06,.34-.04,.08-.1,.15-.17,.19-.07,.04-.16,.07-.25,.09-.1,0-.2,.02-.31,.02h-2.7c-.11,.77-.3,1.42-.56,1.95s-.61,.98-1.03,1.34c-.43,.36-.94,.64-1.54,.84s-1.29,.36-2.06,.47l-.2-1.89Z"></path><path class="cls-1" d="M568.66,59.37c0,.14-.02,.25-.06,.34-.04,.08-.1,.15-.17,.19-.07,.04-.16,.07-.25,.09-.1,0-.2,.02-.31,.02h-3.49c-.11,0-.21,0-.31-.02-.1,0-.18-.04-.25-.09-.07-.04-.13-.11-.17-.19s-.06-.2-.06-.34v-.76c0-.21,.07-.36,.2-.45s.33-.13,.59-.13h3.49c.26,0,.46,.04,.59,.13,.13,.09,.2,.24,.2,.45v.76h0Z"></path><path class="cls-1" d="M572.84,57.34c.33,.23,.72,.4,1.17,.51s.99,.17,1.61,.17h.09c.26,0,.46,.04,.59,.13,.13,.09,.2,.24,.2,.45v.76c0,.14-.02,.25-.06,.34-.04,.08-.1,.15-.17,.19-.07,.04-.16,.07-.25,.09-.1,0-.2,.02-.31,.02h-.11c-.76,0-1.4-.1-1.9-.3-.51-.2-.94-.45-1.3-.75-.18,.29-.43,.54-.73,.74-.31,.2-.69,.3-1.16,.3h-2.63c-.26,0-.46-.04-.59-.13-.13-.09-.2-.24-.2-.45v-.76c0-.14,.02-.25,.06-.34,.04-.08,.1-.15,.17-.19,.07-.04,.16-.07,.25-.09,.1,0,.2-.02,.31-.02h2.22c.23,0,.42-.1,.56-.31,.14-.21,.2-.52,.2-.94v-5.27h1.98v5.85Zm-3.79-9.8c0-.16,.03-.31,.09-.46,.06-.14,.14-.27,.25-.37,.1-.11,.23-.19,.37-.25s.3-.09,.46-.09,.31,.03,.46,.09c.14,.06,.27,.15,.37,.25,.11,.11,.19,.23,.25,.37s.09,.3,.09,.46-.03,.31-.09,.46c-.06,.14-.15,.27-.25,.37-.11,.1-.23,.19-.37,.25s-.3,.09-.46,.09c-.33,0-.61-.11-.83-.34-.23-.22-.34-.5-.34-.83Zm3.14,0c0-.16,.03-.31,.09-.46,.06-.14,.14-.27,.25-.37,.1-.11,.23-.19,.37-.25s.3-.09,.46-.09,.31,.03,.46,.09c.14,.06,.27,.15,.37,.25,.11,.11,.19,.23,.25,.37s.09,.3,.09,.46-.03,.31-.09,.46c-.06,.14-.15,.27-.25,.37-.11,.1-.23,.19-.37,.25s-.3,.09-.46,.09c-.33,0-.61-.11-.83-.34-.23-.22-.34-.5-.34-.83Z"></path><path class="cls-1" d="M580,59.37c0,.14-.02,.25-.06,.34-.04,.08-.1,.15-.17,.19-.07,.04-.16,.07-.25,.09-.1,0-.2,.02-.31,.02h-3.49c-.11,0-.21,0-.31-.02-.1,0-.18-.04-.25-.09-.07-.04-.13-.11-.17-.19s-.06-.2-.06-.34v-.76c0-.21,.07-.36,.2-.45s.33-.13,.59-.13h3.49c.26,0,.46,.04,.59,.13,.13,.09,.2,.24,.2,.45v.76h0Z"></path><path class="cls-1" d="M579.21,60.01c-.26,0-.46-.04-.59-.13-.13-.09-.2-.24-.2-.45v-.76c0-.14,.02-.25,.06-.34,.04-.08,.1-.15,.17-.19,.07-.04,.16-.07,.25-.09,.1,0,.2-.02,.31-.02h3.31c.52,0,.95-.03,1.28-.09s.6-.15,.79-.28c.19-.12,.32-.27,.4-.44,.07-.17,.11-.37,.11-.59,0-.36-.1-.72-.3-1.07-.2-.36-.49-.71-.85-1.07-.37-.36-.8-.71-1.31-1.06-.51-.35-1.06-.7-1.66-1.04l4.39-7.55,1.44,1.01-3.36,5.88c.51,.3,.97,.63,1.4,.98,.42,.35,.79,.73,1.09,1.13,.3,.4,.54,.82,.71,1.26,.17,.44,.25,.9,.25,1.39,0,.31-.03,.59-.08,.84,.34,.23,.74,.41,1.19,.53,.46,.12,1,.18,1.62,.18h.09c.26,0,.46,.04,.59,.13,.13,.09,.2,.24,.2,.45v.76c0,.14-.02,.25-.06,.34-.04,.08-.1,.15-.17,.19-.07,.04-.16,.07-.25,.09-.1,0-.2,.02-.31,.02h-.11c-.43,0-.81-.03-1.15-.09s-.65-.15-.92-.26c-.28-.11-.52-.25-.74-.4s-.42-.31-.61-.49c-.32,.4-.76,.7-1.32,.92s-1.26,.32-2.1,.32h-3.56Z"></path><path class="cls-1" d="M589.74,60.01c-.26,0-.46-.04-.59-.13-.13-.09-.2-.24-.2-.45v-.76c0-.14,.02-.25,.06-.34,.04-.08,.1-.15,.17-.19,.07-.04,.16-.07,.25-.09,.1,0,.2-.02,.31-.02h2.99v-13.84h1.98v15.82h-4.97Z"></path><path class="cls-1" d="M610.67,44.19v15.82h-12.54v-1.98h4.88v-9.56h1.98v9.56h3.7v-13.84h1.98Z"></path><path class="cls-1" d="M614.41,44.2h1.98v15.82h-1.98v-15.82Z"></path><path class="cls-1" d="M629.51,58.69c-.35,.04-.69,.11-1.04,.21-.35,.11-.66,.28-.94,.52s-.51,.56-.68,.96c-.18,.4-.26,.91-.26,1.53,0,.37,.03,.79,.08,1.24,.05,.45,.13,.93,.23,1.43s.23,1.01,.39,1.54c.16,.53,.34,1.06,.56,1.6l-1.85,.62c-.17-.49-.33-1.03-.5-1.61-.16-.58-.3-1.16-.43-1.73-.12-.57-.23-1.12-.3-1.64-.08-.52-.12-.97-.12-1.34,0-.62,.07-1.16,.2-1.63s.3-.88,.51-1.23c.21-.35,.45-.66,.72-.91,.27-.25,.54-.47,.82-.66s.54-.35,.8-.48c.26-.14,.49-.26,.68-.38,.21-.79,.45-1.46,.72-2.03,.26-.57,.54-1.05,.83-1.45,.29-.4,.59-.72,.89-.97s.6-.44,.89-.58c.29-.14,.57-.23,.84-.28s.51-.07,.74-.07c.49,0,.94,.07,1.34,.21s.76,.33,1.08,.57,.59,.52,.83,.83c.23,.32,.43,.64,.58,.99,.15,.34,.27,.69,.34,1.04,.07,.35,.11,.69,.11,1,0,.46-.09,.94-.26,1.42,.33,.21,.72,.37,1.16,.48s.96,.16,1.55,.16h.09c.26,0,.46,.04,.59,.13,.13,.09,.2,.24,.2,.45v.76c0,.14-.02,.25-.06,.34-.04,.08-.1,.15-.17,.19-.07,.04-.16,.07-.25,.09-.1,0-.2,.02-.31,.02h-.11c-.43,0-.82-.03-1.17-.1s-.66-.16-.94-.27-.53-.25-.75-.4-.42-.32-.61-.51c-.35,.4-.79,.74-1.32,1s-1.16,.39-1.9,.39c-.44,0-.85-.04-1.23-.12s-.73-.19-1.05-.32c-.32-.14-.61-.29-.86-.46-.26-.2-.48-.38-.66-.55Zm6.27-2.49c0-.27-.05-.58-.15-.92-.1-.34-.25-.67-.46-.98s-.48-.57-.8-.78c-.32-.21-.71-.31-1.16-.31s-.82,.11-1.17,.34c-.36,.23-.67,.53-.94,.9s-.5,.79-.68,1.27c-.18,.48-.32,.97-.4,1.48,.07,.1,.22,.21,.43,.32s.46,.22,.74,.31c.28,.09,.58,.17,.9,.23s.63,.09,.92,.09c.42,0,.8-.03,1.14-.09s.63-.16,.87-.3,.43-.34,.56-.59c.14-.26,.2-.58,.2-.97Z"></path><path class="cls-1" d="M644.38,59.37c0,.14-.02,.25-.06,.34-.04,.08-.1,.15-.17,.19-.07,.04-.16,.07-.25,.09-.1,0-.2,.02-.31,.02h-3.49c-.11,0-.21,0-.31-.02-.1,0-.18-.04-.25-.09-.07-.04-.13-.11-.17-.19s-.06-.2-.06-.34v-.76c0-.21,.07-.36,.2-.45s.33-.13,.59-.13h3.49c.26,0,.46,.04,.59,.13,.13,.09,.2,.24,.2,.45v.76h0Z"></path><path class="cls-1" d="M648.55,57.34c.33,.23,.72,.4,1.17,.51s.99,.17,1.61,.17h.09c.26,0,.46,.04,.59,.13,.13,.09,.2,.24,.2,.45v.76c0,.14-.02,.25-.06,.34-.04,.08-.1,.15-.17,.19-.07,.04-.16,.07-.25,.09-.1,0-.2,.02-.31,.02h-.11c-.76,0-1.4-.1-1.9-.3-.51-.2-.94-.45-1.3-.75-.18,.29-.43,.54-.73,.74-.31,.2-.69,.3-1.16,.3h-2.63c-.26,0-.46-.04-.59-.13-.13-.09-.2-.24-.2-.45v-.76c0-.14,.02-.25,.06-.34,.04-.08,.1-.15,.17-.19,.07-.04,.16-.07,.25-.09,.1,0,.2-.02,.31-.02h2.22c.23,0,.42-.1,.56-.31,.14-.21,.2-.52,.2-.94v-5.27h1.98v5.85Zm-3.85,5.97c0-.16,.03-.31,.09-.46,.06-.14,.14-.27,.25-.37,.1-.11,.23-.19,.37-.25s.3-.09,.46-.09,.31,.03,.46,.09c.14,.06,.27,.15,.37,.25,.11,.11,.19,.23,.25,.37s.09,.3,.09,.46-.03,.31-.09,.46c-.06,.14-.15,.27-.25,.37s-.23,.19-.37,.25-.3,.09-.46,.09c-.33,0-.61-.11-.83-.34-.23-.22-.34-.5-.34-.83Zm3.14,0c0-.16,.03-.31,.09-.46,.06-.14,.14-.27,.25-.37,.1-.11,.23-.19,.37-.25s.3-.09,.46-.09,.31,.03,.46,.09c.14,.06,.27,.15,.37,.25,.11,.11,.19,.23,.25,.37s.09,.3,.09,.46-.03,.31-.09,.46c-.06,.14-.15,.27-.25,.37-.11,.1-.23,.19-.37,.25s-.3,.09-.46,.09c-.33,0-.61-.11-.83-.34-.23-.22-.34-.5-.34-.83Z"></path><path class="cls-1" d="M655.72,59.37c0,.14-.02,.25-.06,.34-.04,.08-.1,.15-.17,.19-.07,.04-.16,.07-.25,.09-.1,0-.2,.02-.31,.02h-3.49c-.11,0-.21,0-.31-.02-.1,0-.18-.04-.25-.09-.07-.04-.13-.11-.17-.19s-.06-.2-.06-.34v-.76c0-.21,.07-.36,.2-.45s.33-.13,.59-.13h3.49c.26,0,.46,.04,.59,.13,.13,.09,.2,.24,.2,.45v.76h0Z"></path><path class="cls-1" d="M659.89,57.32c.34,.23,.73,.41,1.19,.53,.45,.12,1,.18,1.63,.18h.09c.26,0,.46,.04,.59,.13,.13,.09,.2,.24,.2,.45v.76c0,.14-.02,.25-.06,.34-.04,.08-.1,.15-.17,.19-.07,.04-.16,.07-.25,.09-.1,0-.2,.02-.31,.02h-.11c-.77,0-1.41-.1-1.92-.3s-.94-.45-1.3-.76c-.17,.3-.42,.55-.73,.75s-.7,.3-1.18,.3h-2.63c-.26,0-.46-.04-.59-.13-.13-.09-.2-.24-.2-.45v-.76c0-.14,.02-.25,.06-.34,.04-.08,.1-.15,.17-.19,.07-.04,.16-.07,.25-.09,.1,0,.2-.02,.31-.02h2.22c.23,0,.42-.1,.56-.31,.14-.21,.2-.52,.2-.94v-12.6h1.98v13.15h0Z"></path><path class="cls-1" d="M667.52,57.5c-.32-.23-.64-.52-.94-.87-.3-.34-.59-.69-.85-1.04-.26-.35-.5-.68-.72-.98-.21-.3-.39-.53-.52-.68,.03-.15,.07-.33,.13-.52s.12-.39,.19-.57c.07-.19,.14-.35,.22-.49,.08-.14,.15-.23,.23-.28,.23-.12,.5-.26,.83-.4,.32-.14,.68-.27,1.08-.38s.84-.21,1.31-.29c.47-.08,.97-.12,1.5-.12,.4,0,.8,.04,1.2,.12s.77,.19,1.1,.35c.33,.15,.6,.35,.81,.59,.21,.24,.31,.52,.31,.84,0,.23-.03,.5-.08,.81s-.17,.66-.34,1.06c-.17,.39-.42,.83-.75,1.3-.33,.48-.77,.99-1.32,1.55,.17,.08,.38,.15,.63,.21,.25,.06,.52,.12,.83,.16,.3,.04,.62,.08,.97,.1,.35,.03,.7,.04,1.07,.04h.91c.26,0,.46,.04,.59,.13,.13,.09,.2,.24,.2,.45v.76c0,.14-.02,.25-.06,.34-.04,.08-.1,.15-.17,.19-.07,.04-.16,.07-.25,.09-.1,0-.2,.02-.31,.02h-1.49c-.59,0-1.15-.05-1.66-.14-.51-.1-.97-.21-1.38-.34-.41-.13-.77-.27-1.07-.42s-.54-.27-.7-.37c-.3,.17-.63,.33-.98,.48s-.73,.29-1.13,.41c-.4,.12-.83,.21-1.28,.28-.45,.07-.92,.1-1.4,.1h-1.42c-.26,0-.46-.04-.59-.13-.13-.09-.2-.24-.2-.45v-.76c0-.14,.02-.25,.06-.34,.04-.08,.1-.15,.17-.19,.07-.04,.16-.07,.25-.09,.1,0,.2-.02,.31-.02h1.55c.4,0,.78-.02,1.13-.05s.67-.07,.94-.12c.28-.05,.5-.1,.69-.17,.19-.04,.32-.11,.4-.17Zm3.97-3.64c0-.16-.05-.32-.15-.46-.1-.15-.25-.28-.45-.4s-.44-.21-.72-.28-.6-.1-.96-.1c-.41,0-.86,.05-1.35,.16s-1.02,.29-1.6,.54c.1,.18,.25,.43,.46,.73s.45,.61,.73,.94c.28,.32,.58,.64,.89,.94,.32,.3,.62,.55,.93,.74,.34-.21,.65-.44,.93-.71,.28-.27,.51-.53,.7-.79s.34-.51,.45-.74c.09-.23,.14-.42,.14-.57Z"></path><path class="cls-1" d="M680.3,57.34c.33,.23,.72,.4,1.17,.51s.99,.17,1.61,.17h.09c.26,0,.46,.04,.59,.13,.13,.09,.2,.24,.2,.45v.76c0,.14-.02,.25-.06,.34-.04,.08-.1,.15-.17,.19-.07,.04-.16,.07-.25,.09-.1,0-.2,.02-.31,.02h-.11c-.76,0-1.4-.1-1.9-.3-.51-.2-.94-.45-1.3-.75-.18,.29-.43,.54-.73,.74-.31,.2-.69,.3-1.16,.3h-2.63c-.26,0-.46-.04-.59-.13-.13-.09-.2-.24-.2-.45v-.76c0-.14,.02-.25,.06-.34,.04-.08,.1-.15,.17-.19,.07-.04,.16-.07,.25-.09,.1,0,.2-.02,.31-.02h2.22c.23,0,.42-.1,.56-.31,.14-.21,.2-.52,.2-.94v-5.27h1.98v5.85Zm-3.79-9.8c0-.16,.03-.31,.09-.46,.06-.14,.14-.27,.25-.37,.1-.11,.23-.19,.37-.25s.3-.09,.46-.09,.31,.03,.46,.09c.14,.06,.27,.15,.37,.25,.11,.11,.19,.23,.25,.37s.09,.3,.09,.46-.03,.31-.09,.46c-.06,.14-.15,.27-.25,.37-.11,.1-.23,.19-.37,.25s-.3,.09-.46,.09c-.33,0-.61-.11-.83-.34-.23-.22-.34-.5-.34-.83Zm3.14,0c0-.16,.03-.31,.09-.46,.06-.14,.14-.27,.25-.37,.1-.11,.23-.19,.37-.25s.3-.09,.46-.09,.31,.03,.46,.09c.14,.06,.27,.15,.37,.25,.11,.11,.19,.23,.25,.37s.09,.3,.09,.46-.03,.31-.09,.46c-.06,.14-.15,.27-.25,.37-.11,.1-.23,.19-.37,.25s-.3,.09-.46,.09c-.33,0-.61-.11-.83-.34-.23-.22-.34-.5-.34-.83Z"></path><path class="cls-1" d="M683.18,60.01c-.26,0-.46-.04-.59-.13-.13-.09-.2-.24-.2-.45v-.76c0-.14,.02-.25,.06-.34,.04-.08,.1-.15,.17-.19,.07-.04,.16-.07,.25-.09,.1,0,.2-.02,.31-.02h2.99v-13.84h1.98v15.82h-4.97Z"></path><path class="cls-1" d="M691.9,44.2h1.98v15.82h-1.98v-15.82Z"></path><path class="cls-1" d="M714.23,55.88c0-1.46,.37-2.56,1.11-3.29s1.89-1.1,3.44-1.1h2.93v4.53c0,.45,.02,.8,.07,1.07,.05,.26,.12,.47,.22,.61s.22,.23,.37,.28c.15,.04,.32,.07,.52,.07h1.06c.26,0,.46,.04,.59,.13,.13,.09,.2,.24,.2,.45v.76c0,.14-.02,.25-.06,.34-.04,.08-.1,.15-.17,.19-.07,.04-.16,.07-.25,.09-.1,0-.2,.02-.31,.02h-1.39c-.36,0-.71-.06-1.05-.17-.34-.11-.64-.29-.9-.54s-.48-.58-.64-.99c-.16-.41-.24-.91-.24-1.5v-3.45h-.4c-.48,0-.92,.03-1.3,.1s-.71,.2-.98,.4c-.27,.2-.48,.48-.62,.83-.14,.36-.22,.82-.22,1.4v3.25c0,.68-.15,1.35-.46,2-.3,.65-.75,1.23-1.32,1.75-.58,.51-1.28,.92-2.11,1.23-.83,.31-1.78,.47-2.84,.47s-1.88-.1-2.64-.3c-.75-.2-1.4-.46-1.95-.79s-1-.7-1.35-1.12c-.36-.42-.64-.84-.85-1.28s-.36-.86-.44-1.27-.13-.77-.13-1.09c0-.41,.03-.81,.09-1.21,.06-.4,.15-.77,.27-1.13,.11-.36,.25-.69,.41-1,.16-.3,.33-.57,.51-.81l1.63,.89c-.14,.19-.27,.41-.38,.66s-.21,.5-.3,.78c-.08,.27-.15,.55-.19,.83s-.07,.56-.07,.83c0,.25,.03,.52,.08,.81,.06,.29,.16,.59,.3,.88,.15,.29,.35,.58,.6,.85,.26,.28,.58,.52,.98,.73,.4,.21,.87,.38,1.44,.5,.56,.12,1.22,.19,1.97,.19s1.4-.09,1.99-.27c.59-.18,1.08-.42,1.49-.72s.72-.64,.93-1.02c.22-.38,.32-.78,.32-1.19v-3.68h.04Zm-7.42,11.63c0-.16,.03-.31,.09-.46,.06-.14,.14-.27,.25-.37,.1-.11,.23-.19,.37-.25s.29-.09,.46-.09c.16,0,.31,.03,.46,.09,.14,.06,.27,.15,.37,.25,.11,.11,.19,.23,.25,.37,.06,.14,.09,.3,.09,.46s-.03,.31-.09,.46c-.06,.14-.15,.27-.25,.37-.11,.1-.23,.19-.37,.25s-.3,.09-.46,.09c-.33,0-.61-.11-.83-.34-.23-.23-.34-.5-.34-.83Zm3.13,0c0-.16,.03-.31,.09-.46,.06-.14,.14-.27,.25-.37,.1-.11,.23-.19,.37-.25s.3-.09,.46-.09,.31,.03,.46,.09c.14,.06,.27,.15,.37,.25,.11,.11,.19,.23,.25,.37,.06,.14,.09,.3,.09,.46s-.03,.31-.09,.46c-.06,.14-.15,.27-.25,.37-.11,.1-.23,.19-.37,.25s-.3,.09-.46,.09c-.33,0-.61-.11-.83-.34-.22-.23-.34-.5-.34-.83Z"></path><path class="cls-1" d="M728.22,59.37c0,.14-.02,.25-.06,.34-.04,.08-.1,.15-.17,.19-.07,.04-.16,.07-.25,.09-.1,0-.2,.02-.31,.02h-3.49c-.11,0-.21,0-.31-.02-.1,0-.18-.04-.25-.09-.07-.04-.13-.11-.17-.19s-.06-.2-.06-.34v-.76c0-.21,.07-.36,.2-.45s.33-.13,.59-.13h3.49c.26,0,.46,.04,.59,.13,.13,.09,.2,.24,.2,.45v.76h0Z"></path><path class="cls-1" d="M730.26,55.58c0-.63,.11-1.22,.34-1.77,.23-.55,.54-1.02,.94-1.43,.4-.41,.88-.73,1.43-.96,.55-.23,1.15-.35,1.81-.35s1.21,.1,1.71,.3,.92,.49,1.27,.87c.35,.38,.62,.84,.8,1.39s.28,1.17,.28,1.86v4.5h-11.41c-.26,0-.46-.04-.59-.13-.13-.09-.2-.24-.2-.45v-.76c0-.14,.02-.25,.06-.34,.04-.08,.1-.15,.17-.19,.07-.04,.16-.07,.25-.09,.1,0,.2-.02,.31-.02h3.53v-.07c-.1-.1-.19-.23-.27-.4-.08-.16-.16-.35-.23-.56-.07-.21-.12-.44-.15-.68-.03-.21-.05-.46-.05-.72Zm6.59,2.45v-2.07c0-.57-.06-1.04-.19-1.42s-.3-.69-.52-.91c-.22-.23-.47-.39-.75-.48-.28-.1-.57-.14-.88-.14-.34,0-.65,.06-.95,.19-.29,.12-.55,.3-.77,.52-.22,.22-.39,.49-.51,.8s-.19,.65-.19,1.03,.07,.72,.2,1.02c.14,.31,.33,.57,.58,.79s.55,.39,.91,.51,.77,.18,1.22,.18h1.85v-.02Zm-3.27-10.49c0-.16,.03-.31,.09-.46s.14-.27,.25-.37c.1-.11,.23-.19,.37-.25s.29-.09,.46-.09c.16,0,.31,.03,.46,.09,.14,.06,.27,.15,.37,.25,.11,.11,.19,.23,.25,.37s.09,.3,.09,.46-.03,.31-.09,.46c-.06,.14-.15,.27-.25,.37-.11,.1-.23,.19-.37,.25s-.3,.09-.46,.09c-.33,0-.61-.11-.83-.34-.22-.22-.34-.5-.34-.83Z"></path></g></g></g><g><path class="cls-1" d="M158.78,68.58H79.1v29.57h47.64c-2.8,8.52-7.64,16.11-14.19,22.16-9.05,8.38-20.67,13-32.7,13h-4.23v21.45c-37.4-2.25-67.15-34.19-67.15-73.13,0-34.66,23.98-64.84,57.02-71.77l-1.75-8.22C26.81,9.38,0,43.02,0,81.62c0,45.02,35.82,81.65,79.85,81.65h4.23v-21.74c12.65-.97,24.68-6.24,34.24-15.09,9.08-8.4,15.33-19.32,18.08-31.59l1.15-5.11h-49.99v-12.78h63.53c.09,1.55,.14,3.11,.14,4.66,0,34.22-23.61,64.32-56.15,71.58-.85,.19-1.71,.36-2.58,.52v8.51c1.49-.24,2.97-.51,4.43-.84,36.36-8.11,62.76-41.66,62.76-79.77,0-3.11-.17-6.24-.52-9.32l-.39-3.72Z"></path><path class="cls-1" d="M41.21,78.77c1.41-21.31,18.39-38.01,38.65-38.01,9.72,0,19.03,3.84,26.21,10.8l5.92-6c-8.77-8.51-20.18-13.2-32.13-13.2-23.44,0-43.26,18.12-46.69,41.93h-10.61l-.38,3.78c-.05,.5-4.41,50.13,45.78,61.75v-8.66c-33.97-8.89-37.39-37.96-37.48-48.48h10.47l.26-3.91Z"></path><path class="cls-1" d="M22,61.19l-.75,3.32h8.68l.34-1.48c4.95-21.99,25.34-37.34,49.6-37.34h4.23V8.53c21.54,1.32,41.52,12.65,54.09,30.89l6.99-4.74C130.22,12.97,105.8,0,79.87,0h-4.23V17.42c-26.38,1.7-48.12,19.22-53.64,43.77Z"></path></g></g></g></svg>