<svg id="_7787514_data_file_document_format_extension_icon" data-name="7787514_data_file_document_format_extension_icon" xmlns="http://www.w3.org/2000/svg" width="14.802" height="16.023" viewBox="0 0 14.802 16.023">
  <path id="Path_2542" data-name="Path 2542" d="M123.75,25.071a1.03,1.03,0,0,0-1.491,0,1.192,1.192,0,0,0-.319.9V39.71a1.065,1.065,0,1,0,2.129,0V28.371l1.171,1.171a1.03,1.03,0,0,0,1.491,0,1.134,1.134,0,0,0,0-1.491Z" transform="translate(-112.209 -24.751)" fill="#fff"/>
  <path id="Path_2543" data-name="Path 2543" d="M34.575,24.75a1.065,1.065,0,0,0-1.065,1.065V37.154l-1.171-1.171a1.054,1.054,0,1,0-1.491,1.491l2.981,2.981a1.03,1.03,0,0,0,1.491,0,1.192,1.192,0,0,0,.319-.9V25.815A1.065,1.065,0,0,0,34.575,24.75Z" transform="translate(-30.54 -24.75)" fill="#fff"/>
</svg>
