<svg id="_8678127_global_fill_icon" data-name="8678127_global_fill_icon" xmlns="http://www.w3.org/2000/svg" width="17.883" height="17.883" viewBox="0 0 17.883 17.883">
  <path id="Path_2552" data-name="Path 2552" d="M0,0H17.883V17.883H0Z" fill="none"/>
  <path id="Path_2553" data-name="Path 2553" d="M2.05,10.227H6.131A13.338,13.338,0,0,0,8.31,16.844a7.455,7.455,0,0,1-6.26-6.617Zm0-1.49A7.455,7.455,0,0,1,8.31,2.12,13.338,13.338,0,0,0,6.131,8.737Zm14.828,0H12.8A13.338,13.338,0,0,0,10.617,2.12a7.455,7.455,0,0,1,6.26,6.617Zm0,1.49a7.455,7.455,0,0,1-6.26,6.617A13.338,13.338,0,0,0,12.8,10.227h4.082Zm-9.254,0H11.3a11.853,11.853,0,0,1-1.84,5.657,11.853,11.853,0,0,1-1.84-5.657Zm0-1.49A11.853,11.853,0,0,1,9.464,3.08,11.853,11.853,0,0,1,11.3,8.737Z" transform="translate(-0.523 -0.54)" fill="#fff"/>
</svg>
