<svg xmlns="http://www.w3.org/2000/svg" width="15.005" height="16.667" viewBox="0 0 15.005 16.667">
  <g id="fingerprint" transform="translate(-21.277)">
    <g id="Group_1628" data-name="Group 1628" transform="translate(21.277)">
      <g id="Group_1627" data-name="Group 1627" transform="translate(0)">
        <path id="Path_2565" data-name="Path 2565" d="M94.066,162.69a6.6,6.6,0,0,1-.771-3.213,3.895,3.895,0,0,1,7.775,0,.417.417,0,0,0,.833,0,4.727,4.727,0,0,0-9.442,0,7.416,7.416,0,0,0,.879,3.621,8.732,8.732,0,0,0,1.675,2.2.414.414,0,0,0,.3.125.374.374,0,0,0,.287-.125.411.411,0,0,0,0-.588A7.9,7.9,0,0,1,94.066,162.69Z" transform="translate(-89.681 -148.932)" fill="#4a4a4a"/>
        <path id="Path_2566" data-name="Path 2566" d="M79.52,2.008a9.741,9.741,0,0,1,9.284,0A.447.447,0,0,0,89,2.058h0a.417.417,0,0,0,.192-.788,10.588,10.588,0,0,0-10.067,0,.418.418,0,1,0,.4.733Z" transform="translate(-76.652)" fill="#4a4a4a"/>
        <path id="Path_2567" data-name="Path 2567" d="M44.572,103.04a6.921,6.921,0,0,0-6.258,3.829,6.17,6.17,0,0,0-.571,2.7,9.279,9.279,0,0,0,.608,3.3.418.418,0,0,0,.783-.292,8.314,8.314,0,0,1-.554-3,5.353,5.353,0,0,1,.488-2.338,6.079,6.079,0,0,1,5.508-3.358,5.88,5.88,0,0,1,6.038,5.7,1.737,1.737,0,0,1-3.467,0,2.569,2.569,0,0,0-5.133,0,6.1,6.1,0,0,0,1.8,4.35,6.365,6.365,0,0,0,3.1,1.75.311.311,0,0,0,.108.017.416.416,0,0,0,.108-.817,5.622,5.622,0,0,1-2.729-1.538,5.272,5.272,0,0,1-1.558-3.758,1.737,1.737,0,0,1,3.467,0,2.569,2.569,0,0,0,5.133,0A6.715,6.715,0,0,0,44.572,103.04Z" transform="translate(-37.1 -99.015)" fill="#4a4a4a"/>
        <path id="Path_2568" data-name="Path 2568" d="M36.2,55.732a8.718,8.718,0,0,0-3.125-2.708,9.615,9.615,0,0,0-8.6.008,8.679,8.679,0,0,0-3.129,2.729.415.415,0,0,0,.1.579.434.434,0,0,0,.242.075.424.424,0,0,0,.342-.171,7.825,7.825,0,0,1,2.829-2.471,8.768,8.768,0,0,1,7.833-.008,7.823,7.823,0,0,1,2.825,2.45.419.419,0,0,0,.583.1A.414.414,0,0,0,36.2,55.732Z" transform="translate(-21.277 -49.982)" fill="#4a4a4a"/>
        <path id="Path_2569" data-name="Path 2569" d="M206.908,263.313a5.468,5.468,0,0,1-.871.079,3.605,3.605,0,0,1-3.729-3.563.417.417,0,1,0-.833,0,4.443,4.443,0,0,0,1.979,3.658,4.526,4.526,0,0,0,2.583.738,5.968,5.968,0,0,0,1.017-.092.417.417,0,0,0-.146-.821Z" transform="translate(-194.436 -249.28)" fill="#4a4a4a"/>
      </g>
    </g>
  </g>
</svg>
