<svg xmlns="http://www.w3.org/2000/svg" width="15" height="15" viewBox="0 0 15 15">
  <g id="Group_1640" data-name="Group 1640" transform="translate(-730 -643)">
    <g id="Group_1610" data-name="Group 1610" transform="translate(730 643)">
      <path id="Path_2558" data-name="Path 2558" d="M14.121,9.744V1.318A1.32,1.32,0,0,0,12.8,0h-9.7A1.32,1.32,0,0,0,1.787,1.318v.469H1.318a1.318,1.318,0,1,0,0,2.637h.469V6.182H1.318a1.318,1.318,0,0,0,0,2.637h.469v1.758H1.318a1.318,1.318,0,0,0,0,2.637h.469v.439a1.355,1.355,0,0,0,.379.94A1.291,1.291,0,0,0,3.105,15h8.818a3.1,3.1,0,0,0,2.2-5.256Zm-12.8-6.2a.439.439,0,0,1,0-.879h.908a.439.439,0,0,1,0,.879Zm0,4.395a.439.439,0,0,1,0-.879h.908a.439.439,0,0,1,0,.879Zm.908,4.395H1.318a.439.439,0,0,1,0-.879h.908a.439.439,0,0,1,0,.879Zm.879,1.787a.467.467,0,0,1-.439-.469v-.515a1.318,1.318,0,0,0,0-2.486V8.743a1.318,1.318,0,0,0,0-2.486V4.348a1.318,1.318,0,0,0,0-2.486V1.318A.44.44,0,0,1,3.105.879h9.7a.44.44,0,0,1,.439.439v7.8a3.076,3.076,0,0,0-4.395,2.779,3.111,3.111,0,0,0,.934,2.227Zm8.818,0a2.212,2.212,0,1,1,2.2-2.227A2.215,2.215,0,0,1,11.924,14.121Z" fill="#4a4a4a"/>
    </g>
    <g id="Group_1639" data-name="Group 1639" transform="translate(19.802 1.703)">
      <g id="Group_1612" data-name="Group 1612" transform="translate(718.721 644.535)">
        <path id="Path_2559" data-name="Path 2559" d="M305.22,121h-2.76a.46.46,0,1,0,0,.92h2.76a.46.46,0,1,0,0-.92Z" transform="translate(-302 -121)" fill="#4a4a4a"/>
      </g>
      <g id="Group_1614" data-name="Group 1614" transform="translate(718.721 648.04)">
        <path id="Path_2560" data-name="Path 2560" d="M305.22,241h-2.76a.46.46,0,1,0,0,.92h2.76a.46.46,0,1,0,0-.92Z" transform="translate(-302 -241)" fill="#4a4a4a"/>
      </g>
      <g id="Group_1616" data-name="Group 1616" transform="translate(721.32 651.511)">
        <path id="Path_2561" data-name="Path 2561" d="M393.38,361.92h-.46v-.46a.46.46,0,1,0-.92,0v.92a.46.46,0,0,0,.46.46h.92a.46.46,0,1,0,0-.92Z" transform="translate(-392 -361)" fill="#4a4a4a"/>
      </g>
      <g id="Group_1618" data-name="Group 1618" transform="translate(714.236 643.639)">
        <path id="Path_2562" data-name="Path 2562" d="M150.457,91.134a.46.46,0,0,0-.65,0l-1.515,1.515-.724-.724a.46.46,0,0,0-.651.651l1.049,1.049a.46.46,0,0,0,.65,0l1.84-1.84A.46.46,0,0,0,150.457,91.134Z" transform="translate(-146.783 -91)" fill="#4a4a4a"/>
      </g>
      <g id="Group_1620" data-name="Group 1620" transform="translate(714.236 647.12)">
        <path id="Path_2563" data-name="Path 2563" d="M150.457,211.134a.46.46,0,0,0-.65,0l-1.515,1.515-.724-.724a.46.46,0,1,0-.651.651l1.049,1.049a.46.46,0,0,0,.65,0l1.84-1.84A.46.46,0,0,0,150.457,211.134Z" transform="translate(-146.783 -211)" fill="#4a4a4a"/>
      </g>
      <g id="Group_1622" data-name="Group 1622" transform="translate(714.236 650.601)">
        <path id="Path_2564" data-name="Path 2564" d="M150.457,331.134a.46.46,0,0,0-.65,0l-1.515,1.515-.724-.724a.46.46,0,0,0-.651.651l1.049,1.049a.46.46,0,0,0,.65,0l1.84-1.84A.46.46,0,0,0,150.457,331.134Z" transform="translate(-146.783 -331)" fill="#4a4a4a"/>
      </g>
    </g>
  </g>
</svg>
