<svg xmlns="http://www.w3.org/2000/svg" xmlns:xlink="http://www.w3.org/1999/xlink" width="1062" height="485" viewBox="0 0 1062 485">
  <defs>
    <clipPath id="clip-path">
      <rect id="Rectangle_5425" data-name="Rectangle 5425" width="1062" height="485" fill="none"/>
    </clipPath>
  </defs>
  <g id="Group_2618" data-name="Group 2618" transform="translate(0)" opacity="0.07">
    <g id="Group_2617" data-name="Group 2617" transform="translate(0)" clip-path="url(#clip-path)">
      <path id="Path_3514" data-name="Path 3514" d="M647.718,223.212l-100.574-5.438L628.4,172.584l19.52,13.939.006-1L628.7,171.79a.466.466,0,0,0-.49-.025l-82.7,45.992a.382.382,0,0,0-.2.434.424.424,0,0,0,.394.3l102.007,5.515Z" transform="translate(459.753 -46.939)" fill="#c4c4c4"/>
      <path id="Path_3515" data-name="Path 3515" d="M643.055,318.331,590.86,345.8l-39.42-9.659,91.7-32.2,0-.85-93.256,32.749a.4.4,0,0,0-.276.39.407.407,0,0,0,.319.363l40.883,10.017a.465.465,0,0,0,.109.014.443.443,0,0,0,.217-.052l51.914-27.325Z" transform="translate(463.382 43.684)" fill="#c4c4c4"/>
      <path id="Path_3516" data-name="Path 3516" d="M364.971,291.131a.463.463,0,0,1-.214-.054.4.4,0,0,1-.206-.264l-4.44-19.672a.378.378,0,0,1,.074-.313.443.443,0,0,1,.3-.162L470.285,259a.419.419,0,0,1,.474.309.392.392,0,0,1-.289.461L365.107,291.11a.468.468,0,0,1-.136.02M361.054,271.4,365.3,290.22l100.769-29.976Z" transform="translate(303.74 13.266)" fill="#c4c4c4"/>
      <path id="Path_3517" data-name="Path 3517" d="M228.975,456.447a.459.459,0,0,1-.23-.063L176.6,425.876a.389.389,0,0,1-.2-.324.379.379,0,0,1,.184-.333l89.018-57.36a.46.46,0,0,1,.514.014.372.372,0,0,1,.138.451l-36.88,87.868a.418.418,0,0,1-.269.235.466.466,0,0,1-.136.02m-51.361-30.921,51.149,29.929,36.179-86.2Z" transform="translate(148.991 88.307)" fill="#c4c4c4"/>
      <path id="Path_3518" data-name="Path 3518" d="M363.188,458.759h-.005l-158.053-2.312a.441.441,0,0,1-.35-.174.373.373,0,0,1-.046-.365l36.878-87.867a.418.418,0,0,1,.293-.242.458.458,0,0,1,.383.074l121.175,90.18a.378.378,0,0,1,.134.444.432.432,0,0,1-.409.26m-157.425-3.1,156.183,2.285L242.2,368.834Z" transform="translate(172.831 88.306)" fill="#c4c4c4"/>
      <path id="Path_3519" data-name="Path 3519" d="M602.839,355.607a.467.467,0,0,1-.158-.029L419.97,288.3a.4.4,0,0,1-.267-.308.38.38,0,0,1,.153-.365l92.5-69.922a.447.447,0,0,1,.348-.086.439.439,0,0,1,.3.186l90.21,137.2a.374.374,0,0,1-.041.463.457.457,0,0,1-.332.139m-181.87-67.794L601.8,354.4,512.52,218.609Z" transform="translate(353.944 -15.276)" fill="#c4c4c4"/>
      <path id="Path_3520" data-name="Path 3520" d="M560.545,368.3a.444.444,0,0,1-.368-.193l-90.21-137.2a.375.375,0,0,1-.042-.324.408.408,0,0,1,.238-.243l75.793-31.088a.476.476,0,0,1,.4.02.4.4,0,0,1,.21.311L560.978,367.87a.4.4,0,0,1-.3.409.529.529,0,0,1-.135.018M470.959,230.879l89.013,135.381L545.748,200.2Z" transform="translate(396.239 -27.964)" fill="#c4c4c4"/>
      <path id="Path_3521" data-name="Path 3521" d="M525.887,368.5l-.037,0a.413.413,0,0,1-.391-.363L511.045,199.842a.37.37,0,0,1,.111-.3.454.454,0,0,1,.315-.128l63.115-.49a.625.625,0,0,1,.346.152.375.375,0,0,1,.076.345L526.307,368.2a.424.424,0,0,1-.42.3M511.942,200.2l14.179,165.541,47.906-166.023Z" transform="translate(430.894 -28.165)" fill="#c4c4c4"/>
      <path id="Path_3522" data-name="Path 3522" d="M669.036,312.06l-93.029,32.671-55.589-39.222,148.736-14.618,0-.8-149.9,14.736a.424.424,0,0,0-.37.286.379.379,0,0,0,.153.422L575.672,345.5a.467.467,0,0,0,.262.081.417.417,0,0,0,.157-.025l92.94-32.639Z" transform="translate(437.486 34.716)" fill="#c4c4c4"/>
      <path id="Path_3523" data-name="Path 3523" d="M511.474,222.511a.434.434,0,0,1-.4-.248.368.368,0,0,1,.1-.434l62.85-55.125a.461.461,0,0,1,.468-.079.4.4,0,0,1,.263.363l.263,54.635a.413.413,0,0,1-.427.4l-63.116.492Zm62.425-54.6-61.336,53.8,61.594-.48Z" transform="translate(430.895 -50.466)" fill="#c4c4c4"/>
      <path id="Path_3524" data-name="Path 3524" d="M648.565,224.057,546.158,269.52,545.86,18.6l103.159,124,.007-1.3L545.769,17.185a.456.456,0,0,0-.481-.137.406.406,0,0,0-.295.378l.3,252.725a.39.39,0,0,0,.2.335.47.47,0,0,0,.418.022L648.56,224.943Z" transform="translate(459.495 -153.628)" fill="#c4c4c4"/>
      <path id="Path_3525" data-name="Path 3525" d="M545.851,222.018a.457.457,0,0,1-.21-.051.4.4,0,0,1-.221-.343l-.263-54.635a.38.38,0,0,1,.144-.3.462.462,0,0,1,.337-.1l82.964,8.641a.422.422,0,0,1,.374.309.384.384,0,0,1-.2.424l-82.7,45.992a.45.45,0,0,1-.227.057m.172-54.586.26,53.487,80.965-45.027Z" transform="translate(459.633 -50.466)" fill="#c4c4c4"/>
      <path id="Path_3526" data-name="Path 3526" d="M648.246,172.2l-19.874,21.666-81.25-8.464,101.3-44.969.006-.884L545.4,185.285a.387.387,0,0,0-.238.424.418.418,0,0,0,.378.326l82.964,8.641.046,0a.448.448,0,0,0,.333-.142l19.355-21.1Z" transform="translate(459.632 -69.119)" fill="#c4c4c4"/>
      <path id="Path_3527" data-name="Path 3527" d="M290.8,455.769l96.036,25.708,3.14.015-97.893-26.206L465.735,373.3,423.783,481.651l.916,0,42.215-109.027a.373.373,0,0,0-.122-.431.466.466,0,0,0-.483-.056l-175.586,82.9a.393.393,0,0,0-.232.392.407.407,0,0,0,.31.341" transform="translate(245.097 91.28)" fill="#c4c4c4"/>
      <path id="Path_3528" data-name="Path 3528" d="M363.753,481.655l42.055-108.61,113.87,50.677L379.4,481.727l2.082.01L520.875,424.1a.384.384,0,0,0,.011-.72L405.75,372.137a.475.475,0,0,0-.354-.01.422.422,0,0,0-.243.233L362.837,481.65Z" transform="translate(306.044 91.28)" fill="#c4c4c4"/>
      <path id="Path_3529" data-name="Path 3529" d="M413.352,313.158a.452.452,0,0,1-.258-.079l-50.41-34.822a.375.375,0,0,1-.12-.507.452.452,0,0,1,.529-.183l80.022,26.708a.4.4,0,0,1,.284.384.406.406,0,0,1-.308.368l-29.613,8.116a.39.39,0,0,1-.125.015m-47.836-33.939,47.923,33.105,28.152-7.715Z" transform="translate(305.769 26.061)" fill="#c4c4c4"/>
      <path id="Path_3530" data-name="Path 3530" d="M442.964,317.837a.439.439,0,0,1-.146-.024l-80.023-26.708a.387.387,0,0,1,.016-.75l105.362-31.341a.453.453,0,0,1,.448.1.371.371,0,0,1,.086.419l-25.34,58.05a.438.438,0,0,1-.4.25m-78.691-27.083,78.448,26.184,24.841-56.911Z" transform="translate(305.769 13.266)" fill="#c4c4c4"/>
      <path id="Path_3531" data-name="Path 3531" d="M386.222,427.208a.38.38,0,0,1-.063-.005.406.406,0,0,1-.367-.414l7.519-124.952a.406.406,0,0,1,.308-.358l29.611-8.114a.457.457,0,0,1,.424.093.381.381,0,0,1,.12.385l-37.13,133.066a.43.43,0,0,1-.422.3m7.935-125.048L386.9,422.795l35.846-128.47Z" transform="translate(325.381 36.963)" fill="#c4c4c4"/>
      <path id="Path_3532" data-name="Path 3532" d="M614.424,327.064h-.018l-208.051-9.228a.442.442,0,0,1-.343-.182.369.369,0,0,1-.037-.362l25.341-58.051a.414.414,0,0,1,.23-.216.467.467,0,0,1,.332,0L614.588,326.3a.391.391,0,0,1,.262.453.428.428,0,0,1-.426.311m-207.419-9.993,204.877,9.087L431.957,259.905Z" transform="translate(342.358 13.267)" fill="#c4c4c4"/>
      <path id="Path_3533" data-name="Path 3533" d="M429.882,321.6a.5.5,0,0,1-.157-.029.4.4,0,0,1-.269-.318L408.125,169.828a.382.382,0,0,1,.214-.394.461.461,0,0,1,.481.032l113.832,81.5a.377.377,0,0,1,.009.619L430.16,321.5a.469.469,0,0,1-.278.091M409.116,170.685l21.1,149.752,91.48-69.151Z" transform="translate(344.191 -48.542)" fill="#c4c4c4"/>
      <path id="Path_3534" data-name="Path 3534" d="M522.383,268.331a.468.468,0,0,1-.265-.084l-113.832-81.5a.382.382,0,0,1-.162-.36.4.4,0,0,1,.252-.314l99.16-40.8a.464.464,0,0,1,.391.017.4.4,0,0,1,.216.3l14.671,122.3a.392.392,0,0,1-.219.39.469.469,0,0,1-.212.051m-113-81.8,112.457,80.516L507.348,146.215Z" transform="translate(344.191 -65.199)" fill="#c4c4c4"/>
      <path id="Path_3535" data-name="Path 3535" d="M484.011,234.454a.318.318,0,0,1-.07-.005.415.415,0,0,1-.348-.3L436.265,53.917a.379.379,0,0,1,.057-.306.441.441,0,0,1,.28-.176l200.344-36.4a.446.446,0,0,1,.442.167.369.369,0,0,1,.006.438L484.376,234.273a.435.435,0,0,1-.365.181m-46.8-180.321L484.2,233.07,636.111,17.994Z" transform="translate(367.891 -153.628)" fill="#c4c4c4"/>
      <path id="Path_3536" data-name="Path 3536" d="M477.042,268.331a.5.5,0,0,1-.212-.052.4.4,0,0,1-.215-.3l-14.671-122.3a.393.393,0,0,1,.252-.406.464.464,0,0,1,.5.095l90.466,91.216a.374.374,0,0,1,.1.348.4.4,0,0,1-.247.281L477.22,268.3a.467.467,0,0,1-.179.035M462.949,146.8l14.461,120.55,74.708-30.642Z" transform="translate(389.53 -65.198)" fill="#c4c4c4"/>
      <path id="Path_3537" data-name="Path 3537" d="M552.836,237.243h-.013a.444.444,0,0,1-.3-.13L462.053,145.9a.369.369,0,0,1-.05-.471.449.449,0,0,1,.477-.179L615.8,181.337a.417.417,0,0,1,.311.284.379.379,0,0,1-.12.387l-62.85,55.125a.463.463,0,0,1-.3.11m-89.171-90.9,89.195,89.935,61.97-54.351Z" transform="translate(389.53 -65.198)" fill="#c4c4c4"/>
      <path id="Path_3538" data-name="Path 3538" d="M615.688,270.547a.554.554,0,0,1-.107-.012L462.265,234.444a.426.426,0,0,1-.295-.24.371.371,0,0,1,.041-.36L615.027,17.208a.452.452,0,0,1,.486-.164.4.4,0,0,1,.31.38l.3,252.725a.392.392,0,0,1-.168.314.471.471,0,0,1-.267.083M463.063,233.812l152.195,35.826-.3-250.873Z" transform="translate(389.53 -153.628)" fill="#c4c4c4"/>
      <path id="Path_3539" data-name="Path 3539" d="M386.222,427.208a.458.458,0,0,1-.313-.127.371.371,0,0,1-.1-.368l37.13-133.066a.409.409,0,0,1,.267-.274.469.469,0,0,1,.4.044L581.11,393.2a.378.378,0,0,1,.177.409.416.416,0,0,1-.343.308L386.3,427.2a.619.619,0,0,1-.081.007m37.4-132.814L386.811,426.307l192.952-32.994Z" transform="translate(325.381 36.963)" fill="#c4c4c4"/>
      <path id="Path_3540" data-name="Path 3540" d="M501.36,437.717a.443.443,0,0,1-.186-.039L386.036,386.436a.391.391,0,0,1-.241-.411.416.416,0,0,1,.35-.336l194.642-33.283a.448.448,0,0,1,.453.193.367.367,0,0,1-.048.456l-79.5,84.525a.44.44,0,0,1-.328.137M387.595,386.249l113.657,50.582,78.481-83.438Z" transform="translate(325.38 77.694)" fill="#c4c4c4"/>
      <path id="Path_3541" data-name="Path 3541" d="M563.886,393.925a.467.467,0,0,1-.245-.071l-157.51-99.783a.376.376,0,0,1-.164-.453.449.449,0,0,1,.429-.27l208.051,9.228a.444.444,0,0,1,.354.2.371.371,0,0,1,.011.38l-50.539,90.555a.433.433,0,0,1-.28.2.458.458,0,0,1-.107.012M407.869,294.208l155.859,98.737,50.009-89.606Z" transform="translate(342.358 36.963)" fill="#c4c4c4"/>
      <path id="Path_3542" data-name="Path 3542" d="M502.633,455.263a.453.453,0,0,1-.142-.024l-53.918-17.546a.406.406,0,0,1-.273-.27.372.372,0,0,1,.09-.362l79.5-84.523a.459.459,0,0,1,.521-.1.386.386,0,0,1,.227.443L503.056,454.955a.4.4,0,0,1-.214.259.471.471,0,0,1-.21.049M449.457,437.14l52.866,17.2,25.086-100.077Z" transform="translate(378.026 77.694)" fill="#c4c4c4"/>
      <path id="Path_3543" data-name="Path 3543" d="M477.979,455.263a.445.445,0,0,1-.323-.137.367.367,0,0,1-.1-.348l25.584-102.071a.417.417,0,0,1,.3-.291.467.467,0,0,1,.422.095l103.542,91.67a.373.373,0,0,1,.107.416.428.428,0,0,1-.37.264l-129.126,10.4-.041,0m25.838-101.694-25.28,100.854,127.587-10.275Z" transform="translate(402.679 77.694)" fill="#c4c4c4"/>
      <path id="Path_3544" data-name="Path 3544" d="M491.867,390.158a.449.449,0,0,1-.3-.117.373.373,0,0,1-.079-.461l50.539-90.555a.427.427,0,0,1,.289-.206.463.463,0,0,1,.359.073l56.636,39.962a.383.383,0,0,1,.168.35.4.4,0,0,1-.232.316L492.066,390.114a.453.453,0,0,1-.2.044m50.688-90.347-49.69,89.034L598.24,339.1Z" transform="translate(414.378 40.73)" fill="#c4c4c4"/>
      <path id="Path_3545" data-name="Path 3545" d="M595.406,461.426a.453.453,0,0,1-.3-.112l-103.54-91.669a.38.38,0,0,1-.12-.38.417.417,0,0,1,.3-.286L639.8,328.4a.457.457,0,0,1,.431.1.374.374,0,0,1,.107.4L595.823,461.147a.415.415,0,0,1-.306.265.494.494,0,0,1-.111.013M492.7,369.546,595.2,460.3l44.07-130.922Z" transform="translate(414.378 61.131)" fill="#c4c4c4"/>
      <path id="Path_3546" data-name="Path 3546" d="M491.867,373.846a.435.435,0,0,1-.4-.248.382.382,0,0,1,.2-.5L598.846,322.5a.463.463,0,0,1,.31-.03l40.881,10.017a.388.388,0,0,1,.013.762L491.992,373.829a.457.457,0,0,1-.125.017m107.227-50.569L496.211,371.845l142.127-38.952Z" transform="translate(414.378 57.042)" fill="#c4c4c4"/>
      <path id="Path_3547" data-name="Path 3547" d="M144.839,409.936a.433.433,0,0,1-.4-.26.379.379,0,0,1,.186-.478l122.613-65.849a.477.477,0,0,1,.33-.042.436.436,0,0,1,.265.189l25.355,41.387a.361.361,0,0,1,.015.363.429.429,0,0,1-.315.221L144.916,409.929a.591.591,0,0,1-.077.007m122.452-65.7L147.16,408.752l144.974-23.966Z" transform="translate(122.036 71.413)" fill="#c4c4c4"/>
      <path id="Path_3548" data-name="Path 3548" d="M236.744,391.105l-.037,0a.442.442,0,0,1-.337-.2l-25.357-41.387a.369.369,0,0,1-.015-.36.428.428,0,0,1,.308-.225l75.7-13.8a.45.45,0,0,1,.455.188.369.369,0,0,1-.04.456l-50.342,55.184a.445.445,0,0,1-.333.142m-24.685-41.5,24.758,40.41,49.152-53.881Z" transform="translate(178.099 65.781)" fill="#c4c4c4"/>
      <path id="Path_3549" data-name="Path 3549" d="M341.413,237.848a.463.463,0,0,1-.107-.013.394.394,0,0,1-.31-.483l23.78-84a.432.432,0,0,1,.525-.284.4.4,0,0,1,.309.483l-23.778,84a.428.428,0,0,1-.42.3" transform="translate(287.633 -59.804)" fill="#c4c4c4"/>
      <path id="Path_3550" data-name="Path 3550" d="M341.413,237.848a.457.457,0,0,1-.271-.09.373.373,0,0,1-.146-.407l23.778-84a.41.41,0,0,1,.206-.247.475.475,0,0,1,.337-.034l99.918,27.588a.4.4,0,0,1,.306.345.39.39,0,0,1-.239.389l-123.7,56.412a.459.459,0,0,1-.193.042m24.086-83.9-23.428,82.757,121.87-55.577Z" transform="translate(287.633 -59.804)" fill="#c4c4c4"/>
      <path id="Path_3551" data-name="Path 3551" d="M376.64,310.239a.428.428,0,0,1-.411-.282L341,203.28a.378.378,0,0,1,.162-.438.46.46,0,0,1,.5,0l145.029,95.009a.38.38,0,0,1,.168.421.42.42,0,0,1-.369.3l-109.8,11.669-.052,0M342.2,204.163l34.755,105.246L485.278,297.9Z" transform="translate(287.633 -25.516)" fill="#c4c4c4"/>
      <path id="Path_3552" data-name="Path 3552" d="M486.441,321.595a.461.461,0,0,1-.249-.073L341.163,226.514a.38.38,0,0,1,.059-.678l123.7-56.414a.455.455,0,0,1,.394.007.394.394,0,0,1,.225.3l21.333,151.418a.387.387,0,0,1-.208.392.467.467,0,0,1-.223.056M342.252,226.251l143.635,94.1L464.759,170.383Z" transform="translate(287.632 -48.543)" fill="#c4c4c4"/>
      <path id="Path_3553" data-name="Path 3553" d="M319.57,341.41a.452.452,0,0,1-.319-.13.375.375,0,0,1,0-.536l75.469-74.717a.453.453,0,0,1,.433-.113.412.412,0,0,1,.308.3l4.438,19.672a.383.383,0,0,1-.162.4l-79.909,55.043a.455.455,0,0,1-.262.079m75.218-74.28-71.633,70.919L399,285.8Z" transform="translate(269.233 18.03)" fill="#c4c4c4"/>
      <path id="Path_3554" data-name="Path 3554" d="M319.571,333.378a.43.43,0,0,1-.4-.238.377.377,0,0,1,.138-.475l79.907-55.043a.469.469,0,0,1,.52,0l50.41,34.824a.381.381,0,0,1,.16.411.417.417,0,0,1-.348.3L319.645,333.373a.277.277,0,0,1-.074.005m79.909-54.944-78.225,53.884,127.574-19.794Z" transform="translate(269.232 26.061)" fill="#c4c4c4"/>
      <path id="Path_3555" data-name="Path 3555" d="M442.371,423.894a.459.459,0,0,1-.293-.1l-122.8-104.73a.378.378,0,0,1-.12-.4.423.423,0,0,1,.343-.277l130.318-20.221a.461.461,0,0,1,.361.095.377.377,0,0,1,.142.318L442.8,423.521a.4.4,0,0,1-.269.345.432.432,0,0,1-.164.029M320.508,319.025,441.992,422.632l7.438-123.61Z" transform="translate(269.233 40.275)" fill="#c4c4c4"/>
      <path id="Path_3556" data-name="Path 3556" d="M669.559,280.891,520,367.229l48.292-167.364,101.5,39.327,0-.86L568.168,198.955a.473.473,0,0,0-.359.01.4.4,0,0,0-.227.255L518.881,368a.38.38,0,0,0,.162.421.45.45,0,0,0,.254.076.442.442,0,0,0,.232-.061l150.024-86.6Z" transform="translate(437.486 -28.165)" fill="#c4c4c4"/>
      <path id="Path_3557" data-name="Path 3557" d="M669.158,319.513l-148.049,14.55,148.445-85.69.005-.939L519.068,334.305a.382.382,0,0,0-.177.466.433.433,0,0,0,.405.267l.048,0,149.81-14.724Z" transform="translate(437.485 5.294)" fill="#c4c4c4"/>
      <path id="Path_3558" data-name="Path 3558" d="M647.529,238.332l-99.313-38.479,99.5,5.38,0-.794-101.959-5.512a.4.4,0,0,0-.446.3.389.389,0,0,0,.252.456l101.959,39.5Z" transform="translate(459.753 -28.165)" fill="#c4c4c4"/>
      <path id="Path_3559" data-name="Path 3559" d="M225.151,391.236a.445.445,0,0,1-.348-.164.373.373,0,0,1,.018-.488L275.163,335.4a.446.446,0,0,1,.33-.142L375,334.939h0a.425.425,0,0,1,.422.321.393.393,0,0,1-.263.444l-149.845,55.5a.466.466,0,0,1-.164.029M275.7,336.052l-49.1,53.825,146.16-54.138Z" transform="translate(189.692 65.65)" fill="#c4c4c4"/>
      <path id="Path_3560" data-name="Path 3560" d="M346.325,481.414a.454.454,0,0,1-.269-.088L224.88,391.146a.379.379,0,0,1-.155-.367.4.4,0,0,1,.265-.309l149.847-55.5a.474.474,0,0,1,.435.059.381.381,0,0,1,.151.379L346.752,481.088a.405.405,0,0,1-.273.3.536.536,0,0,1-.155.024m-120.33-90.461,120.037,89.334,28.4-144.314Z" transform="translate(189.692 65.65)" fill="#c4c4c4"/>
      <path id="Path_3561" data-name="Path 3561" d="M252.475,353.173a.424.424,0,0,1-.424-.326.391.391,0,0,1,.274-.443l123.619-42.262a.462.462,0,0,1,.475.11.375.375,0,0,1,.057.448l-24.113,41.941a.436.436,0,0,1-.381.211l-99.5.321Zm122.708-41.924L254.9,352.372l96.822-.311Z" transform="translate(212.71 48.53)" fill="#c4c4c4"/>
      <path id="Path_3562" data-name="Path 3562" d="M290.921,481.414a.439.439,0,0,1-.254-.078.38.38,0,0,1-.17-.389l28.672-145.683a.4.4,0,0,1,.227-.282.475.475,0,0,1,.381-.007l146.914,62.788a.4.4,0,0,1,.249.351.388.388,0,0,1-.234.36l-175.584,82.9a.467.467,0,0,1-.2.044m29-145.5L291.5,480.3,465.526,398.14Z" transform="translate(245.098 65.65)" fill="#c4c4c4"/>
      <path id="Path_3563" data-name="Path 3563" d="M453.4,415.641a.447.447,0,0,1-.18-.037L306.3,352.815a.4.4,0,0,1-.227-.231.362.362,0,0,1,.028-.311l24.113-41.943a.428.428,0,0,1,.31-.206.463.463,0,0,1,.367.1l122.8,104.731a.375.375,0,0,1,.065.512.448.448,0,0,1-.361.176M307.079,352.272,451.1,413.823,330.717,311.158Z" transform="translate(258.207 48.53)" fill="#c4c4c4"/>
      <path id="Path_3564" data-name="Path 3564" d="M624.111,357.31l-50.867-17.377,51.114-26.9,0-.918-52.349,27.555a.391.391,0,0,0-.216.377.4.4,0,0,0,.28.34l52.028,17.773Z" transform="translate(482.074 49.905)" fill="#c4c4c4"/>
      <path id="Path_3565" data-name="Path 3565" d="M354.319,178.847a.443.443,0,0,1-.357-.176.377.377,0,0,1,.12-.551l99.842-61.24a.456.456,0,0,1,.6.11.374.374,0,0,1-.118.549l-99.842,61.24a.455.455,0,0,1-.243.068" transform="translate(298.505 -84.801)" fill="#c4c4c4"/>
      <path id="Path_3566" data-name="Path 3566" d="M454.236,206.433a.5.5,0,0,1-.124-.015L354.2,178.829a.406.406,0,0,1-.3-.321.383.383,0,0,1,.188-.387l99.842-61.24a.461.461,0,0,1,.444-.02.392.392,0,0,1,.229.348l.074,88.828a.382.382,0,0,1-.173.318.444.444,0,0,1-.26.078m-98.914-28.121L453.805,205.5l-.074-87.553Z" transform="translate(298.505 -84.801)" fill="#c4c4c4"/>
      <path id="Path_3567" data-name="Path 3567" d="M408.584,206.435a.468.468,0,0,1-.232-.064.387.387,0,0,1-.2-.333l-.075-88.827a.389.389,0,0,1,.21-.34.462.462,0,0,1,.426-.012l99.234,48.023a.393.393,0,0,1,.23.363.4.4,0,0,1-.254.35l-99.16,40.8a.483.483,0,0,1-.181.036m.361-88.566.074,87.558,97.742-40.221Z" transform="translate(344.156 -84.801)" fill="#c4c4c4"/>
      <path id="Path_3568" data-name="Path 3568" d="M507.746,219.6a.469.469,0,0,1-.2-.046L408.311,171.53a.384.384,0,0,1-.206-.485L460.013,38.832a.445.445,0,0,1,.827.042l47.328,180.233a.379.379,0,0,1-.155.407.476.476,0,0,1-.267.083m-98.7-48.609L507.1,218.441,460.339,40.346Z" transform="translate(344.156 -138.77)" fill="#c4c4c4"/>
      <path id="Path_3569" data-name="Path 3569" d="M644.16,401.056l-95.317,59.014,43.908-130.442,51.468,60.736.007-1.284-51.3-60.54a.446.446,0,0,0-.418-.147.418.418,0,0,0-.335.272L547.654,460.912a.378.378,0,0,0,.155.436.466.466,0,0,0,.5.01l95.846-59.342Z" transform="translate(461.719 61.131)" fill="#c4c4c4"/>
      <path id="Path_3570" data-name="Path 3570" d="M643.708,452.748,549.115,431.2l95.041-58.842.006-.962-96.336,59.645a.385.385,0,0,0-.184.4.418.418,0,0,0,.322.316L643.7,453.564Z" transform="translate(461.719 90.794)" fill="#c4c4c4"/>
      <path id="Path_3571" data-name="Path 3571" d="M623.873,389.081,573.5,329.643l50.6,17.284.006-.843-51.731-17.673a.458.458,0,0,0-.5.137.37.37,0,0,0,.006.478l51.978,61.34Z" transform="translate(482.074 61.131)" fill="#c4c4c4"/>
      <path id="Path_3572" data-name="Path 3572" d="M472.787,214.739a5.272,5.272,0,1,0,5.7,5.279,5.51,5.51,0,0,0-5.7-5.279" transform="translate(393.818 -17.257)" fill="#c4c4c4"/>
      <path id="Path_3573" data-name="Path 3573" d="M473.578,215.388a5.272,5.272,0,1,1-5.756,5.225,5.5,5.5,0,0,1,5.756-5.225m.009-1.587c-4.112-.019-7.475,3.033-7.495,6.8s3.307,6.854,7.419,6.872,7.473-3.031,7.495-6.8-3.307-6.855-7.419-6.874" transform="translate(393.027 -17.904)" fill="#231f20"/>
      <path id="Path_3574" data-name="Path 3574" d="M514.852,200.38a2.461,2.461,0,1,0-2.465,2.237,2.355,2.355,0,0,0,2.465-2.237" transform="translate(429.971 -28.721)" fill="#c4c4c4"/>
      <path id="Path_3575" data-name="Path 3575" d="M513.2,198.767A2.258,2.258,0,1,1,510.736,201a2.352,2.352,0,0,1,2.465-2.237m.009-1.587a3.849,3.849,0,1,0,4.16,3.854,4.028,4.028,0,0,0-4.16-3.854" transform="translate(429.18 -29.369)" fill="#231f20"/>
      <path id="Path_3576" data-name="Path 3576" d="M547.942,174.115a5.2,5.2,0,1,0-5.614-5.2,5.428,5.428,0,0,0,5.614,5.2" transform="translate(457.249 -52.417)" fill="#c4c4c4"/>
      <path id="Path_3577" data-name="Path 3577" d="M548.79,164.413a5.194,5.194,0,1,1-5.671,5.149,5.417,5.417,0,0,1,5.671-5.149m.009-1.587c-4.066-.019-7.39,3-7.41,6.727s3.27,6.778,7.335,6.8,7.39-3,7.41-6.727-3.269-6.778-7.335-6.8" transform="translate(456.458 -53.064)" fill="#231f20"/>
      <path id="Path_3578" data-name="Path 3578" d="M408.536,290.815a4.694,4.694,0,1,0,5.072,4.7,4.905,4.905,0,0,0-5.072-4.7" transform="translate(340.225 35.216)" fill="#c4c4c4"/>
      <path id="Path_3579" data-name="Path 3579" d="M409.327,291.464a4.693,4.693,0,1,1-5.124,4.652,4.9,4.9,0,0,1,5.124-4.652m.009-1.587a6.286,6.286,0,1,0,6.793,6.294,6.577,6.577,0,0,0-6.793-6.294" transform="translate(339.434 34.569)" fill="#231f20"/>
      <path id="Path_3580" data-name="Path 3580" d="M493.141,350.909a2.927,2.927,0,1,0,3.163,2.93,3.058,3.058,0,0,0-3.163-2.93" transform="translate(413.122 76.665)" fill="#c4c4c4"/>
      <path id="Path_3581" data-name="Path 3581" d="M493.93,351.558a2.926,2.926,0,1,1-3.195,2.9,3.052,3.052,0,0,1,3.195-2.9m.009-1.587a4.518,4.518,0,1,0,4.883,4.525,4.728,4.728,0,0,0-4.883-4.525" transform="translate(412.331 76.018)" fill="#231f20"/>
      <path id="Path_3582" data-name="Path 3582" d="M552.687,319.353a5.665,5.665,0,1,0,6.122,5.672,5.921,5.921,0,0,0-6.122-5.672" transform="translate(460.765 54.9)" fill="#c4c4c4"/>
      <path id="Path_3583" data-name="Path 3583" d="M553.478,320a5.665,5.665,0,1,1-6.185,5.613A5.907,5.907,0,0,1,553.478,320m.009-1.588c-4.346-.019-7.9,3.209-7.924,7.195s3.5,7.247,7.843,7.268,7.9-3.207,7.924-7.195-3.5-7.247-7.843-7.268" transform="translate(459.974 54.252)" fill="#231f20"/>
      <path id="Path_3584" data-name="Path 3584" d="M145.813,381.124a2.33,2.33,0,1,0,2.519,2.333,2.436,2.436,0,0,0-2.519-2.333" transform="translate(121.077 97.506)" fill="#c4c4c4"/>
      <path id="Path_3585" data-name="Path 3585" d="M146.6,381.772a2.33,2.33,0,1,1-2.544,2.308,2.431,2.431,0,0,1,2.544-2.308m.009-1.587a3.922,3.922,0,1,0,4.239,3.927,4.1,4.1,0,0,0-4.239-3.927" transform="translate(120.286 96.858)" fill="#231f20"/>
      <path id="Path_3586" data-name="Path 3586" d="M213.085,341.306a3.768,3.768,0,1,0,4.072,3.773,3.938,3.938,0,0,0-4.072-3.773" transform="translate(176.425 70.042)" fill="#c4c4c4"/>
      <path id="Path_3587" data-name="Path 3587" d="M213.875,341.954a3.768,3.768,0,1,1-4.114,3.734,3.932,3.932,0,0,1,4.114-3.734m.009-1.587a5.36,5.36,0,1,0,5.793,5.367,5.607,5.607,0,0,0-5.793-5.367" transform="translate(175.635 69.394)" fill="#231f20"/>
      <path id="Path_3588" data-name="Path 3588" d="M342.36,201.66a2.275,2.275,0,1,0,2.46,2.278,2.379,2.379,0,0,0-2.46-2.278" transform="translate(286.7 -26.279)" fill="#c4c4c4"/>
      <path id="Path_3589" data-name="Path 3589" d="M343.15,202.309a2.274,2.274,0,1,1-2.484,2.254,2.372,2.372,0,0,1,2.484-2.254m.009-1.588a3.868,3.868,0,1,0,4.178,3.875,4.049,4.049,0,0,0-4.178-3.875" transform="translate(285.909 -26.926)" fill="#231f20"/>
      <path id="Path_3590" data-name="Path 3590" d="M422.538,256.17a5.187,5.187,0,1,0,5.6,5.193,5.419,5.419,0,0,0-5.6-5.193" transform="translate(351.567 11.319)" fill="#c4c4c4"/>
      <path id="Path_3591" data-name="Path 3591" d="M423.329,256.818a5.186,5.186,0,1,1-5.662,5.14,5.407,5.407,0,0,1,5.662-5.14m.009-1.587c-4.061-.019-7.381,2.994-7.4,6.718s3.267,6.769,7.325,6.788,7.381-3,7.4-6.718-3.265-6.769-7.325-6.788" transform="translate(350.776 10.672)" fill="#231f20"/>
      <path id="Path_3592" data-name="Path 3592" d="M361.608,269.764a2.587,2.587,0,1,0-2.8-2.59,2.7,2.7,0,0,0,2.8,2.59" transform="translate(302.652 17.14)" fill="#c4c4c4"/>
      <path id="Path_3593" data-name="Path 3593" d="M362.426,265.257a2.587,2.587,0,1,1-2.824,2.563,2.7,2.7,0,0,1,2.824-2.563m.009-1.587a4.179,4.179,0,1,0,4.518,4.185,4.374,4.374,0,0,0-4.518-4.185" transform="translate(301.861 16.493)" fill="#231f20"/>
      <path id="Path_3594" data-name="Path 3594" d="M364.215,276.052a2.925,2.925,0,1,0,3.16,2.928,3.057,3.057,0,0,0-3.16-2.928" transform="translate(304.515 25.033)" fill="#c4c4c4"/>
      <path id="Path_3595" data-name="Path 3595" d="M365.006,276.7a2.924,2.924,0,1,1-3.193,2.9,3.05,3.05,0,0,1,3.193-2.9m.009-1.587a4.517,4.517,0,1,0,4.88,4.522,4.728,4.728,0,0,0-4.88-4.522" transform="translate(303.724 24.386)" fill="#231f20"/>
      <path id="Path_3596" data-name="Path 3596" d="M391.257,297.036a2.289,2.289,0,1,0,2.474,2.293,2.394,2.394,0,0,0-2.474-2.293" transform="translate(327.879 39.507)" fill="#c4c4c4"/>
      <path id="Path_3597" data-name="Path 3597" d="M392.047,297.684a2.289,2.289,0,1,1-2.5,2.268,2.386,2.386,0,0,1,2.5-2.268m.009-1.587a3.881,3.881,0,1,0,4.2,3.886,4.063,4.063,0,0,0-4.2-3.886" transform="translate(327.089 38.859)" fill="#231f20"/>
      <path id="Path_3598" data-name="Path 3598" d="M521.1,296.7a3.98,3.98,0,1,0,4.3,3.986,4.159,4.159,0,0,0-4.3-3.986" transform="translate(435.707 39.273)" fill="#c4c4c4"/>
      <path id="Path_3599" data-name="Path 3599" d="M521.891,297.346a3.98,3.98,0,1,1-4.346,3.944,4.15,4.15,0,0,1,4.346-3.944m.009-1.588a5.572,5.572,0,1,0,6.019,5.581,5.832,5.832,0,0,0-6.019-5.581" transform="translate(434.916 38.625)" fill="#231f20"/>
      <path id="Path_3600" data-name="Path 3600" d="M547.832,196.462a4.575,4.575,0,1,0,4.943,4.581,4.782,4.782,0,0,0-4.943-4.581" transform="translate(457.678 -29.864)" fill="#c4c4c4"/>
      <path id="Path_3601" data-name="Path 3601" d="M548.622,197.111a4.574,4.574,0,1,1-4.995,4.534,4.772,4.772,0,0,1,4.995-4.534m.009-1.587A6.167,6.167,0,1,0,555.3,201.7a6.456,6.456,0,0,0-6.664-6.174" transform="translate(456.887 -30.511)" fill="#231f20"/>
      <path id="Path_3602" data-name="Path 3602" d="M227.447,365.1a4.961,4.961,0,1,0,5.361,4.968,5.187,5.187,0,0,0-5.361-4.968" transform="translate(187.426 86.451)" fill="#c4c4c4"/>
      <path id="Path_3603" data-name="Path 3603" d="M228.237,365.744a4.96,4.96,0,1,1-5.417,4.917,5.172,5.172,0,0,1,5.417-4.917m.009-1.587c-3.924-.019-7.134,2.9-7.154,6.5s3.156,6.543,7.082,6.561,7.134-2.895,7.154-6.5-3.158-6.543-7.082-6.561" transform="translate(186.636 85.803)" fill="#231f20"/>
      <path id="Path_3604" data-name="Path 3604" d="M256.8,336.54a3.115,3.115,0,1,0-3.119,2.832,2.98,2.98,0,0,0,3.119-2.832" transform="translate(211.489 64.781)" fill="#c4c4c4"/>
      <path id="Path_3605" data-name="Path 3605" d="M254.5,334.327a2.857,2.857,0,1,1-3.119,2.83,2.979,2.979,0,0,1,3.119-2.83m.009-1.587a4.449,4.449,0,1,0,4.809,4.454,4.655,4.655,0,0,0-4.809-4.454" transform="translate(210.699 64.133)" fill="#231f20"/>
      <path id="Path_3606" data-name="Path 3606" d="M308.644,332.406a4.694,4.694,0,1,0,5.072,4.7,4.906,4.906,0,0,0-5.072-4.7" transform="translate(256.074 63.903)" fill="#c4c4c4"/>
      <path id="Path_3607" data-name="Path 3607" d="M309.435,333.055a4.693,4.693,0,1,1-5.124,4.652,4.894,4.894,0,0,1,5.124-4.652m.009-1.587a6.286,6.286,0,1,0,6.791,6.294,6.578,6.578,0,0,0-6.791-6.294" transform="translate(255.283 63.256)" fill="#231f20"/>
      <path id="Path_3608" data-name="Path 3608" d="M388.083,369.918a4.094,4.094,0,1,0,4.425,4.1,4.279,4.279,0,0,0-4.425-4.1" transform="translate(323.546 89.777)" fill="#c4c4c4"/>
      <path id="Path_3609" data-name="Path 3609" d="M388.874,370.567a4.094,4.094,0,1,1-4.47,4.057,4.27,4.27,0,0,1,4.47-4.057m.009-1.588a5.687,5.687,0,1,0,6.145,5.7,5.954,5.954,0,0,0-6.145-5.7" transform="translate(322.755 89.129)" fill="#231f20"/>
      <path id="Path_3610" data-name="Path 3610" d="M320.884,308.58a3.006,3.006,0,1,0,3.248,3.01,3.142,3.142,0,0,0-3.248-3.01" transform="translate(267.938 47.469)" fill="#c4c4c4"/>
      <path id="Path_3611" data-name="Path 3611" d="M321.674,309.229a3,3,0,1,1-3.281,2.977,3.134,3.134,0,0,1,3.281-2.977m.009-1.587a4.6,4.6,0,1,0,4.969,4.6,4.809,4.809,0,0,0-4.969-4.6" transform="translate(267.148 46.822)" fill="#231f20"/>
      <path id="Path_3612" data-name="Path 3612" d="M355.928,151.171a3.595,3.595,0,1,0,3.886,3.6,3.757,3.757,0,0,0-3.886-3.6" transform="translate(296.918 -61.103)" fill="#c4c4c4"/>
      <path id="Path_3613" data-name="Path 3613" d="M356.719,151.819a3.594,3.594,0,1,1-3.924,3.562,3.749,3.749,0,0,1,3.924-3.562m.009-1.587a5.187,5.187,0,1,0,5.606,5.194,5.429,5.429,0,0,0-5.606-5.194" transform="translate(296.127 -61.751)" fill="#231f20"/>
      <path id="Path_3614" data-name="Path 3614" d="M409.7,168.042a2.67,2.67,0,1,0,2.885,2.673,2.791,2.791,0,0,0-2.885-2.673" transform="translate(343.063 -49.466)" fill="#c4c4c4"/>
      <path id="Path_3615" data-name="Path 3615" d="M410.487,168.691a2.67,2.67,0,1,1-2.915,2.646,2.783,2.783,0,0,1,2.915-2.646m.009-1.587a4.262,4.262,0,1,0,4.606,4.268A4.46,4.46,0,0,0,410.5,167.1" transform="translate(342.272 -50.113)" fill="#231f20"/>
      <path id="Path_3616" data-name="Path 3616" d="M411.137,125.111a5.747,5.747,0,1,0-6.211-5.755,6.009,6.009,0,0,0,6.211,5.755" transform="translate(341.5 -86.976)" fill="#c4c4c4"/>
      <path id="Path_3617" data-name="Path 3617" d="M411.991,114.308a5.747,5.747,0,1,1-6.275,5.7,6,6,0,0,1,6.275-5.7m.009-1.587c-4.4-.02-7.991,3.243-8.013,7.274s3.536,7.328,7.932,7.35,7.991-3.244,8.013-7.276-3.535-7.328-7.931-7.349" transform="translate(340.71 -87.624)" fill="#231f20"/>
      <path id="Path_3618" data-name="Path 3618" d="M463.649,143.739a2.933,2.933,0,1,0,3.171,2.937,3.067,3.067,0,0,0-3.171-2.937" transform="translate(388.272 -66.229)" fill="#c4c4c4"/>
      <path id="Path_3619" data-name="Path 3619" d="M464.439,144.387a2.933,2.933,0,1,1-3.2,2.906,3.058,3.058,0,0,1,3.2-2.906m.009-1.587a4.525,4.525,0,1,0,4.892,4.532,4.736,4.736,0,0,0-4.892-4.532" transform="translate(387.48 -66.877)" fill="#231f20"/>
      <path id="Path_3620" data-name="Path 3620" d="M573.936,326.386a3.793,3.793,0,1,0,4.1,3.8,3.964,3.964,0,0,0-4.1-3.8" transform="translate(480.389 59.751)" fill="#c4c4c4"/>
      <path id="Path_3621" data-name="Path 3621" d="M574.727,327.034a3.792,3.792,0,1,1-4.14,3.758,3.956,3.956,0,0,1,4.14-3.758m.009-1.587a5.384,5.384,0,1,0,5.819,5.392,5.634,5.634,0,0,0-5.819-5.392" transform="translate(479.598 59.103)" fill="#231f20"/>
    </g>
  </g>
</svg>
