<svg xmlns="http://www.w3.org/2000/svg" width="98.29" height="37.583" viewBox="0 0 98.29 37.583">
  <g id="Group_2616" data-name="Group 2616" transform="translate(-231 -5071.708)">
    <path id="Path_1525" data-name="Path 1525" d="M109.069,26.338a5.294,5.294,0,0,1-3.754,1.292,7.733,7.733,0,0,1-.884-.032v4.379H102V19.283q1.741-.083,3.551-.083a5.542,5.542,0,0,1,3.574,1.018,3.537,3.537,0,0,1,1.241,2.893A4.268,4.268,0,0,1,109.069,26.338Zm-3.7-5.092h-.926V25.5a4.8,4.8,0,0,0,1.037.1q2.352,0,2.352-2.24-.009-2.143-2.449-2.143Zm16.91,5.8q0,5.138-5.263,5.143-4.911,0-4.911-4.629V19.283h2.444V27.44a3.018,3.018,0,0,0,.532,1.963,2.572,2.572,0,0,0,2.1.764,2.66,2.66,0,0,0,2.037-.662,3.375,3.375,0,0,0,.634-2.287V19.283h2.426Zm2.629,4.93V19.283h2.44V31.976Zm15.244-4.93q0,5.138-5.263,5.143-4.916,0-4.911-4.629V19.283h2.44V27.44a3.046,3.046,0,0,0,.532,1.963,2.578,2.578,0,0,0,2.106.764,2.7,2.7,0,0,0,2.037-.662,3.375,3.375,0,0,0,.634-2.287V19.283h2.426Zm9.846,4.93-2.731-4.666-2.727,4.666h-2.893l4.041-6.481-3.791-6.2h2.838l2.569,4.4,2.564-4.4h2.777l-3.736,6.18,4.166,6.513Zm-43.828,9.892h-.671l-.759-2.68a6.956,6.956,0,0,1-.148-.685h0a6.377,6.377,0,0,1-.144.685l-.741,2.68h-.648L102,37.888h.579l.676,2.6a7.181,7.181,0,0,1,.157.768h0a5.8,5.8,0,0,1,.157-.741l.745-2.625h.616l.773,2.643a7.034,7.034,0,0,1,.162.708h0l.134-.648.694-2.7h.532Z" transform="translate(176.218 5061.396)" fill="#fef6f9"/>
    <path id="Path_1526" data-name="Path 1526" d="M115.774,61.52h-1.921c0,.713.292,1.074.926,1.074a2.088,2.088,0,0,0,.838-.171l.074.417a2.652,2.652,0,0,1-1.014.185c-.926,0-1.389-.5-1.389-1.5a1.676,1.676,0,0,1,.347-1.1,1.208,1.208,0,0,1,.977-.463,1.106,1.106,0,0,1,.884.356,1.25,1.25,0,0,1,.273.852A1.508,1.508,0,0,1,115.774,61.52Zm-.528-.38a.778.778,0,0,0-.167-.555.611.611,0,0,0-.491-.2c-.412,0-.653.25-.722.755Zm3.43,1.449a1.44,1.44,0,0,1-1.12.463,3.977,3.977,0,0,1-1.009-.116V58.682h.532V60.1a2.548,2.548,0,0,1-.051.546h0a1.055,1.055,0,0,1,1.768-.3,1.639,1.639,0,0,1,.282,1.028A1.694,1.694,0,0,1,118.676,62.589Zm-.792-2.153a.694.694,0,0,0-.606.375,1.426,1.426,0,0,0-.2.755v.972a1.661,1.661,0,0,0,.523.074q.926,0,.926-1.18C118.533,60.77,118.315,60.436,117.885,60.436Zm1.977,3.5h-.5l2.065-5.421h.528Zm5.032-.954-.333-.926h-1.685l-.329.926h-.555l1.449-3.981h.611l1.458,3.981Zm-1-2.856-.171-.542-.162.532-.542,1.5h1.421Z" transform="translate(170.156 5040.277)" fill="#fef6f9"/>
    <path id="Path_1527" data-name="Path 1527" d="M142.629,64.3a1.449,1.449,0,0,1-1.111.426,3.048,3.048,0,0,1-.5-.037v1.463h-.532V61.762H141a2.857,2.857,0,0,1-.046.593h0a.977.977,0,0,1,.986-.657.926.926,0,0,1,.792.356,1.606,1.606,0,0,1,.282,1.028A1.722,1.722,0,0,1,142.629,64.3Zm-.8-2.162a.685.685,0,0,0-.6.375,1.445,1.445,0,0,0-.2.759v.967a1.662,1.662,0,0,0,.523.074q.926,0,.926-1.18C142.476,62.475,142.258,62.142,141.828,62.142Z" transform="translate(155.545 5038.572)" fill="#fef6f9"/>
    <path id="Path_1528" data-name="Path 1528" d="M142.629,64.3a1.449,1.449,0,0,1-1.111.426,3.048,3.048,0,0,1-.5-.037v1.463h-.532V61.762H141a2.857,2.857,0,0,1-.046.593h0a.977.977,0,0,1,.986-.657.926.926,0,0,1,.792.356,1.606,1.606,0,0,1,.282,1.028A1.722,1.722,0,0,1,142.629,64.3Zm-.8-2.162a.685.685,0,0,0-.6.375,1.445,1.445,0,0,0-.2.759v.967a1.662,1.662,0,0,0,.523.074q.926,0,.926-1.18C142.476,62.475,142.258,62.142,141.828,62.142Z" transform="translate(158.799 5038.572)" fill="#fef6f9"/>
    <path id="Path_1529" data-name="Path 1529" d="M72.958,31.343a1.389,1.389,0,0,1-.926.268,2.375,2.375,0,0,1-.653-.079l.046-.463a1.727,1.727,0,0,0,.653.12.8.8,0,0,0,.463-.12.375.375,0,0,0,.176-.329.361.361,0,0,0-.213-.333,4.881,4.881,0,0,0-.463-.171A1.185,1.185,0,0,1,71.578,30a.68.68,0,0,1-.213-.542.764.764,0,0,1,.292-.625,1.347,1.347,0,0,1,.88-.255,2.731,2.731,0,0,1,.565.06l-.042.435a2.055,2.055,0,0,0-.574-.088c-.384,0-.574.139-.574.417a.38.38,0,0,0,.218.338,3.8,3.8,0,0,0,.463.171c.463.153.685.407.685.768a.81.81,0,0,1-.319.662Zm4.064-.074a1.625,1.625,0,0,1-1.074.343,3.24,3.24,0,0,1-.875-.111l.069-.523a2.162,2.162,0,0,0,.838.162,1.028,1.028,0,0,0,.6-.157.593.593,0,0,0,.259-.523A.56.56,0,0,0,76.559,30a4.754,4.754,0,0,0-.62-.282,2.116,2.116,0,0,1-.616-.352.926.926,0,0,1-.282-.694,1,1,0,0,1,.361-.81,1.532,1.532,0,0,1,1.028-.319,3.106,3.106,0,0,1,.722.079l-.065.463a2.37,2.37,0,0,0-.685-.106c-.532,0-.8.208-.8.62a.546.546,0,0,0,.282.463,5.717,5.717,0,0,0,.63.287,2.176,2.176,0,0,1,.63.356.926.926,0,0,1,.282.69,1.1,1.1,0,0,1-.4.88Zm3.338-.111a1.329,1.329,0,0,1-1.042.463q-1.31,0-1.315-1.5a1.588,1.588,0,0,1,.384-1.1,1.333,1.333,0,0,1,1.046-.463,1.292,1.292,0,0,1,.926.338,1.551,1.551,0,0,1,.375,1.134,1.629,1.629,0,0,1-.375,1.12Zm-.977-2.143a.745.745,0,0,0-.574.25,1.157,1.157,0,0,0-.259.8q0,1.1.833,1.1a.7.7,0,0,0,.569-.264,1.236,1.236,0,0,0,.245-.829C80.2,29.367,79.929,29.015,79.383,29.015Zm2.088,2.541V27.251H82v4.305Zm3.351,0a3.124,3.124,0,0,1,.051-.616h0a1.037,1.037,0,0,1-1.032.671c-.588,0-.88-.315-.88-.926v-2.06h.523v1.889c0,.463.167.662.5.662a.717.717,0,0,0,.6-.329,1.361,1.361,0,0,0,.231-.819V28.64h.532v2.93Zm2.963-.014a2.648,2.648,0,0,1-.593.06.778.778,0,0,1-.616-.2,1.06,1.06,0,0,1-.167-.68V29.038H85.8v-.412h.606v-.954l.528-.148v1.1h.824v.412h-.824v1.514a.954.954,0,0,0,.088.463.375.375,0,0,0,.333.13,1.324,1.324,0,0,0,.37-.051Zm1.222-3.6a.37.37,0,0,1-.5,0A.324.324,0,0,1,88.4,27.7a.338.338,0,0,1,.106-.25.356.356,0,0,1,.5,0,.338.338,0,0,1,.106.25.329.329,0,0,1-.106.241Zm-.514,3.615v-2.93h.528v2.93Zm3.625-.4a1.319,1.319,0,0,1-1.037.463q-1.319,0-1.319-1.5a1.611,1.611,0,0,1,.384-1.1,1.342,1.342,0,0,1,1.046-.463,1.292,1.292,0,0,1,.926.338,1.551,1.551,0,0,1,.375,1.134,1.629,1.629,0,0,1-.375,1.12Zm-.977-2.143a.75.75,0,0,0-.574.25,1.157,1.157,0,0,0-.259.8q0,1.1.833,1.1a.713.713,0,0,0,.574-.264,1.264,1.264,0,0,0,.245-.829q0-1.055-.824-1.055Zm3.916,2.541V29.672q0-.667-.5-.667a.713.713,0,0,0-.6.329,1.389,1.389,0,0,0-.236.819v1.389h-.532V28.626h.514a3.176,3.176,0,0,1-.046.616h0a1.032,1.032,0,0,1,1.032-.671c.588,0,.884.315.884.926v2.046Zm2.879-.213a1.421,1.421,0,0,1-.926.268,2.4,2.4,0,0,1-.653-.079l.051-.463a1.685,1.685,0,0,0,.648.12.829.829,0,0,0,.463-.12.384.384,0,0,0,.176-.329.37.37,0,0,0-.213-.333c-.056-.028-.208-.083-.463-.171A1.176,1.176,0,0,1,96.557,30a.694.694,0,0,1-.213-.542.764.764,0,0,1,.292-.625,1.356,1.356,0,0,1,.88-.255,2.7,2.7,0,0,1,.565.06l-.042.435a2.032,2.032,0,0,0-.574-.088c-.38,0-.574.139-.574.417a.38.38,0,0,0,.218.338,4.4,4.4,0,0,0,.463.171c.463.153.685.407.685.768a.81.81,0,0,1-.319.662ZM11.507,0V35.811A19.683,19.683,0,0,1,11.507,0Zm11.48,19.363a16.239,16.239,0,0,1-3.421-.333V4.972l3.12-.06q8.055,0,8.059,7.059,0,7.393-7.758,7.393Z" transform="translate(231.002 5071.708)" fill="#fef6f9"/>
    <path id="Path_1530" data-name="Path 1530" d="M62.05,33.873A19.678,19.678,0,0,1,42.381,53.551H42.27V41.891q1.361.12,2.907.12,7.869,0,12.392-4.273a13.475,13.475,0,0,0,4.06-8.008A19.821,19.821,0,0,1,62.05,33.873Z" transform="translate(208.298 5055.74)" fill="#fef6f9"/>
  </g>
</svg>
