<svg width="140" height="140" xmlns="http://www.w3.org/2000/svg" xmlns:xlink="http://www.w3.org/1999/xlink"><defs><linearGradient x1="50%" y1="100%" x2="50%" y2="0%" id="c"><stop stop-color="#F16B2E" offset=".099%"/><stop stop-color="#EF5B76" offset="100%"/></linearGradient><circle id="a" cx="70" cy="70" r="70"/></defs><g fill="none" fill-rule="evenodd" opacity=".498"><mask id="b" fill="#fff"><use xlink:href="#a"/></mask><use fill="#FBCA26" fill-rule="nonzero" xlink:href="#a"/><circle fill="#F7A21D" fill-rule="nonzero" mask="url(#b)" cx="70" cy="70" r="53.846"/><g mask="url(#b)"><path d="M59.519 89.09H42.674a1.872 1.872 0 0 1-1.872-1.87v-5.3c0-7.41 5.914-13.417 13.21-13.417h5.507V89.09Z" fill="#F38D18"/><path d="M38.369 46.791H19.652V26.646c0-7.48 5.914-13.544 13.21-13.544h5.507v33.69Z" fill="url(#c)" transform="translate(38.930481, 40.427807) translate(1.871658, 1.871658)"/><path d="M80.107 89.09V55.915c0-7.519 5.914-13.615 13.21-13.615h3.635c1.034 0 1.872.838 1.872 1.872v29.795c0 8.353-6.57 15.125-14.675 15.125h-4.042Z" fill="#F38D18"/><g fill="#FCD038"><path d="M57.647 87.22H40.802a1.872 1.872 0 0 1-1.872-1.872v-5.3c0-7.41 5.914-13.417 13.21-13.417h5.507v20.588ZM77.3 87.22H58.582V67.072c0-7.48 5.914-13.544 13.21-13.544h5.506v33.69ZM78.235 87.22V54.042c0-7.52 5.914-13.615 13.21-13.615h3.635c1.034 0 1.872.838 1.872 1.871v29.795c0 8.353-6.57 15.125-14.675 15.125h-4.042Z"/></g></g><path fill="#FFDE5D" fill-rule="nonzero" opacity=".335" mask="url(#b)" transform="translate(47.011956, 26.550418) rotate(-45.000000) translate(-47.011956, -26.550418)" d="M-56.777-18.007H150.8v89.115H-56.777z"/><path d="M56.642 19.397c29.738 0 53.846 24.108 53.846 53.846 0 .858-.02 1.71-.06 2.558-1.335-28.551-24.905-51.289-53.786-51.289S4.19 47.25 2.855 75.8c-.04-.847-.06-1.7-.06-2.557 0-29.738 24.108-53.846 53.847-53.846Z" fill="#F38D18" fill-rule="nonzero" mask="url(#b)" transform="translate(56.641819, 47.598984) rotate(-31.000000) translate(-56.641819, -47.598984)"/><circle fill="#F7A21D" fill-rule="nonzero" mask="url(#b)" cx="70" cy="7.808" r="2.154"/><circle fill="#F7A21D" fill-rule="nonzero" mask="url(#b)" transform="translate(98.714530, 14.885188) rotate(28.000000) translate(-98.714530, -14.885188)" cx="98.715" cy="14.885" r="2.154"/><circle fill="#F7A21D" fill-rule="nonzero" mask="url(#b)" transform="translate(120.850907, 34.496307) rotate(55.000000) translate(-120.850907, -34.496307)" cx="120.851" cy="34.496" r="2.154"/><circle fill="#F7A21D" fill-rule="nonzero" mask="url(#b)" transform="translate(131.337954, 62.148378) rotate(83.000000) translate(-131.337954, -62.148378)" cx="131.338" cy="62.148" r="2.154"/><circle fill="#F7A21D" fill-rule="nonzero" mask="url(#b)" transform="translate(127.773215, 91.506644) rotate(111.000000) translate(-127.773215, -91.506644)" cx="127.773" cy="91.507" r="2.154"/><circle fill="#F7A21D" fill-rule="nonzero" mask="url(#b)" transform="translate(110.973329, 115.845481) rotate(138.000000) translate(-110.973329, -115.845481)" cx="110.973" cy="115.845" r="2.154"/><circle fill="#F7A21D" fill-rule="nonzero" mask="url(#b)" transform="translate(84.786947, 129.589155) rotate(166.000000) translate(-84.786947, -129.589155)" cx="84.787" cy="129.589" r="2.154"/><circle fill="#F7A21D" fill-rule="nonzero" mask="url(#b)" transform="translate(55.213053, 129.589155) rotate(194.000000) translate(-55.213053, -129.589155)" cx="55.213" cy="129.589" r="2.154"/><circle fill="#F7A21D" fill-rule="nonzero" mask="url(#b)" transform="translate(29.026671, 115.845481) rotate(222.000000) translate(-29.026671, -115.845481)" cx="29.027" cy="115.845" r="2.154"/><circle fill="#F7A21D" fill-rule="nonzero" mask="url(#b)" transform="translate(12.226785, 91.506644) rotate(249.000000) translate(-12.226785, -91.506644)" cx="12.227" cy="91.507" r="2.154"/><circle fill="#F7A21D" fill-rule="nonzero" mask="url(#b)" transform="translate(8.662046, 62.148378) rotate(277.000000) translate(-8.662046, -62.148378)" cx="8.662" cy="62.148" r="2.154"/><circle fill="#F7A21D" fill-rule="nonzero" mask="url(#b)" transform="translate(19.149093, 34.496307) rotate(305.000000) translate(-19.149093, -34.496307)" cx="19.149" cy="34.496" r="2.154"/><circle fill="#F7A21D" fill-rule="nonzero" mask="url(#b)" transform="translate(41.285470, 14.885188) rotate(332.000000) translate(-41.285470, -14.885188)" cx="41.285" cy="14.885" r="2.154"/></g></svg>