<svg id="Layer_93" data-name="Layer 93" xmlns="http://www.w3.org/2000/svg" width="14" height="14" viewBox="0 0 14 14">
  <path id="Path_2546" data-name="Path 2546" d="M13.9,4.1h-.7V2.7a.7.7,0,1,0-1.4,0V4.1H6.2V2.7a.7.7,0,1,0-1.4,0V4.1H4.1A2.1,2.1,0,0,0,2,6.2v.7H16V6.2A2.1,2.1,0,0,0,13.9,4.1Z" transform="translate(-2 -2)" fill="#fff"/>
  <path id="Path_2547" data-name="Path 2547" d="M2,16.6a2.1,2.1,0,0,0,2.1,2.1h9.8A2.1,2.1,0,0,0,16,16.6V11H2Z" transform="translate(-2 -4.7)" fill="#fff"/>
</svg>
