<svg width="298" height="350" xmlns="http://www.w3.org/2000/svg" xmlns:xlink="http://www.w3.org/1999/xlink"><defs><path id="a" d="M0 0h350v376H0z"/></defs><g transform="translate(-571.000000, -366.000000) translate(545.000000, 280.000000) translate(0.000000, 60.000000)" fill="none" fill-rule="evenodd"><mask id="b" fill="#fff"><use xlink:href="#a"/></mask><g mask="url(#b)"><path d="M195.54 241.025c-2.319.645-4.894-.178-6.966-1.28-2.47-1.314-3.777-3.483-5.947-5.044 1.652 1.188-3.2 10.977-3.87 12.448-2.668 5.857-4.309 9.637-11.285 9.99-.307 6.273 3.475 10.884 8.313 14.75 4.573 3.655 11.519 5.91 16.436 1.587 4.339-3.815 3.567-7.404 2.338-11.297-.903-2.865-2.054-5.895-1.597-9.308.548-4.095 1.316-7.893 2.577-11.846" fill="#919291"/><path d="M185.156 246.934c-2.904-1.36-4.95-4.233-7.279-6.55a9.851 9.851 0 0 1-.06.26c-.673 2.75.61 5.395-.833 8.158-1.3 2.489-3.708 5.524-5.788 7.405 2.267 4.805 7.69-.227 9.323-2.412 2.046-2.74 2.064-4.104 5.725-2.744 2.527.94 5.353.922 6.516-1.956-.46 1.14-6.652-1.715-7.604-2.161" fill="#848584"/><path d="M196.528 224.608c-1.984-2.319-4.562-4.929-7.732-5.398-4.63-.683-4.132 2.2-3.691 5.6.312 2.41.848 5.413-.601 7.57-.854 1.271-2.367 1.717-3.324 2.835-3.728 4.357 3.531 7.416 6.136 9.452 1.88 1.469 2.787 2.806 5.434 2.96 2.287.133 4.739-.669 6.196-2.509 2.683-3.394 1.328-9.257.768-13.152-.365-2.542-1.503-5.39-3.186-7.358" fill="#1A1919"/><path d="M192.382 224.846c-.896-.385-1.924-.623-3.1-.678-11.672-.54-15.876 14.162-7.084 21 1.238.964 2.576 1.968 3.883 2.845 2.513 1.683 5.855 2.513 7.922-.347 1.58-2.183 2.562-4.643 3.117-7.294 1.159-5.547.63-13.21-4.738-15.526" fill="#ACADAC"/><path d="M185.084 232.682c-.645.087-2.005.106-2.073 1.06.002-.03.158-.04.4-.037.74.01 2.258.138 2.417.135.982-.014 1.123-.854 1.053-1.735-.619.225-1.14.488-1.797.577M194.396 232.136c-.162.006-2.005.139-2.027-.01.105.728.25 1.268.76 1.41.17.048.383.05.65 0 .154-.03 2.074-.708 2.09-.537-.091-1.032-.64-.888-1.473-.863" fill="#1C1B1B"/><path d="M191.946 238.176c-.204-.216-.399-.446-.495-.71-.29-.807-.26-1.725-.594-2.503-1.465-.082-1.001 3.788-.524 4.483.632.92 2.809 1.234 2.26-.452-.088-.275-.376-.532-.647-.818" fill="#A0A1A0"/><path d="m187.11 237.015.057.01a1.294 1.294 0 0 1-.126-.032l.069.022Z" fill="#E7E7E6"/><path d="M195.638 235.834c.2.737.12 1.297-.227 1.577-.317.26-.851.274-1.325.033-.497-.25-.779-.707-.753-1.218l-.583-.028c-.036.749.364 1.407 1.072 1.767.676.342 1.464.301 1.957-.1.31-.25.775-.87.422-2.183l-.563.152ZM186.788 235.765c.21 1.099.031 1.908-.505 2.28-.492.342-1.272.302-1.938-.101-.697-.422-1.058-1.118-.965-1.86l-.848-.106c-.135 1.087.376 2.095 1.37 2.696.95.574 2.102.602 2.868.07.48-.332 1.228-1.184.856-3.14l-.838.16Z" fill="#1C1B1B"/><path d="M185.786 240.584c-.486-1.158-3.745-1.27-3.047.716.555 1.583 3.917 1.052 3.066-.681.05.14.005.03-.019-.035M196.14 239.67c-.352-.837-2.713-.92-2.208.521.403 1.147 2.839.762 2.222-.494.035.102.004.021-.014-.026" fill="#999998"/><path d="m184.11 223.01.032-.02-.032.02ZM175.114 231.79l-.034.037.034-.038Z" fill="#6C6D6C"/><path d="M192.329 242.42c-.185.514-.272 1.065-.364 1.603a.497.497 0 0 0 .42.557c.272.03.487-.177.533-.448.079-.456.147-.916.304-1.353.218-.61-.675-.972-.893-.36M190.358 242.596a.496.496 0 0 0-.534.449c-.024.353-.161.683-.285 1.013-.227.61.667.97.894.36.15-.406.313-.826.345-1.264.019-.275-.152-.526-.42-.558" fill="#7A7B79"/><path d="m187.638 242.726-.078.014c.171 1.496 2.096 2.94 4.15 2.74.762-.073.998-.864 1.607-3.006-.075.261-5.039.38-5.68.252" fill="#FFFFFE"/><path d="M187.031 242.18c-.152.013-.28.744-.252.746l.082-.013c.177-.067.42-.752.17-.733M193.432 242.019l-.033.057c-.045.146.27.644.382.474.069-.103-.333-.55-.35-.531" fill="#A1A2A1"/><path d="M187.938 243.815c.073.014.655.952 1.41 1.31.959.453 2.044.558 2.781.412.154-.03.606-.95.827-1.761-.826.173-4.182.21-5.018.039" fill="#676766"/><path d="M190.477 244.327c-.533.03-1.513.193-1.67.434.537.469 1.17.639 1.79.767.133.027 1.467.207 1.457-.04-.02-.638-.907-1.2-1.577-1.161" fill="#7D7E7D"/><path d="M192.018 241.623c-.064.019-.558.335-.553.338-.628-.613-1.524-.26-2.224.01-.545.21-1.193.444-1.794.47-.073.002.187.163.202.17.092.035.327.022.43.03.28.024.558.06.837.072.221.01 1.173.105 2.094.105.456-.001.91-.047 1.36-.118.082-.013.979-.205 1.004-.187-.401-.28-.778-1.06-1.356-.89" fill="#878786"/><path d="M192.557 244.724c-.39.527-.966.847-1.632.78-.72-.07-1.49-.372-1.913-.662-.527-.36-.908-.772-1.148-1.36-.074-.178-.157-.739-.318-.79-.05-.016.139 1.127.167 1.21.15.46.393.884.711 1.25.657.756 1.763 1.319 2.804 1.18.765-.103 1.425-.919 1.718-1.583.159-.362.229-.743.269-1.134.02-.18-.015-.93.094-1.06-.235.283-.345.858-.394 1.21-.052.36-.13.65-.358.96" fill="#878786"/><path d="M192.436 224.608c-2.957-1.02-6.337.014-8.735 1.856-1.845 1.418-3.453 3.277-4.468 5.38-.632 1.311-1.087 2.719-.316 4.092.668-.695.733-1.943 1.107-2.812.498-1.16 1.202-2.803 2.104-3.694 1.514-1.498 4.03-1.492 5.902-2.38 1.006-.476 1.72-1.632 2.95-1.543.93.067 2.038.942 2.83 1.425 1.37.835 2.7 2.292 3.141 3.872a34.245 34.245 0 0 0-.088-.306c-.71-2.432-1.847-5-4.427-5.89" fill="#A1A2A1"/><path d="M187.133 218.938c-2.261-1.353-5.283-1.55-7.61-.705-4.267 1.55-6.08 2.473-10.693 1.452-3.279-.726-6.948-1.353-9.445 1.361-2.369 2.577-1.295 6.747-5.052 7.957-3.399 1.095-8.291-1.366-12.127-.157-6.94 2.186-12.367 12.075-8.78 19.227 2.846 5.672 7.912 1.305 11.805 4.52 3.092 2.55 4.25 7.075 9.196 5.135 3.328-1.305 5.946-4.248 9.832-3.107 3.876 1.14 5.187 5.703 9.37 3.054 2.578-1.632 5.865-6.138 6.808-9.048 1.233-3.803-1.698-8.512-1.512-12.432.149-3.152 1.288-6.27 3.647-8.378 1.79-1.6 8.884-1.901 7.277-5.794-.56-1.356-1.534-2.378-2.716-3.085" fill="#1A1919"/><path d="M177.398 235.43c-2.333.127-2.239 3.872-.507 4.78.082.043.32.07.624.091.856.06 2.25.081 2.285.28-.253-1.467-.058-5.28-2.402-5.15" fill="#ACADAC"/><path d="M176.956 237.553c-.107.636-.124 1.662.853 1.291-.032-.515-.116-1.038-.18-1.553l-.673.262Z" fill="#8D8E8D"/><path d="M172.846 243.379c-2.952 1.271-4.9 3.807-7.967.991-1.442-1.325-2.523-3.379-4.302-4.278-2.165-1.094-5.182-.31-7.138.858-1.655.989-3.182 3.09-5.276 2.65a3.436 3.436 0 0 1-.238-.058c-3.891-1.1-3.542-6.504-8.309-6.317-4.207.164-7.888 5.308-7.636 9.272.753 11.79 15.665 10.883 23.513 13.338 11.087 3.468 22.392-1.454 24.705-13.505.805-4.193-4.597-4.138-7.352-2.951" fill="#1A1919"/><path d="M135.824 236.912c-.53.795-.955 1.592-.983 2.568-.026.863 1.312.86 1.337 0 .021-.726.41-1.307.8-1.893.48-.72-.679-1.39-1.154-.675M145.719 231.698c-.94-.218-1.892-.247-2.853-.247-.863 0-.863 1.337 0 1.338.841 0 1.674.009 2.497.2.84.193 1.196-1.097.356-1.291M157.464 230.65c-1.066.814-2.337 1.223-3.675 1.247-.861.015-.863 1.353 0 1.338 1.553-.027 3.107-.48 4.35-1.43.676-.516.011-1.679-.675-1.155M164.017 223.172c-.423.434-.727.934-.996 1.473-.164.326-.09.723.24.915.299.176.752.087.915-.24.218-.436.444-.85.787-1.202.601-.619-.344-1.566-.946-.946M178.42 221.506c-.796.368-1.703.354-2.56.354-.863.001-.864 1.339 0 1.339 1.118 0 2.205-.061 3.235-.538.782-.362.102-1.515-.675-1.155M182.993 220.076h-.446a.676.676 0 0 0-.669.67c0 .364.305.668.669.668h.446a.675.675 0 0 0 .668-.669.675.675 0 0 0-.668-.669M140.083 246.485c-.598-.311-.992-.732-1.007-1.43-.018-.861-1.355-.863-1.337 0 .024 1.16.653 2.056 1.668 2.586.764.398 1.44-.757.676-1.156M149.462 250.07c-.476-.713-1.635-.044-1.155.676.504.756 1.028 1.493 1.666 2.143.604.616 1.55-.33.945-.946-.56-.571-1.013-1.209-1.456-1.872M163.553 250.21c-1.078-.236-2.247-.075-3.19.513-.73.455-.06 1.613.675 1.155a2.943 2.943 0 0 1 2.16-.378c.84.183 1.198-1.107.355-1.29M171.82 251.943c-.415.385-.87.385-1.284 0-.63-.588-1.578.356-.946.946.957.892 2.218.892 3.175 0 .632-.59-.316-1.534-.946-.946M175.859 246.394c0 .14-.002.28-.013.42-.003-.025-.034.145-.042.17-.03.107-.038.107-.077.187-.159.328-.092.721.24.916.296.173.757.088.915-.24.232-.477.314-.926.314-1.453.001-.863-1.336-.863-1.337 0M144.026 238.835c-.748.25-1.495.512-2.079 1.064-.628.593.32 1.538.946.946.407-.384.97-.546 1.488-.72.814-.272.465-1.565-.355-1.29M156.91 239.034c-1.415.014-2.82.21-4.235.223-.862.007-.863 1.346 0 1.338 1.415-.012 2.82-.209 4.235-.223.862-.009.863-1.347 0-1.338M164.758 235.935c-.952.263-1.82.824-2.524 1.51-.62.604.328 1.55.946.947.541-.529 1.2-.964 1.934-1.166.83-.23.477-1.52-.356-1.29M172.07 233.235h-2.453c-.862 0-.862 1.338 0 1.338h2.452c.863 0 .863-1.338 0-1.338" fill="#434443"/><path d="M147.324 235.465c-1.034 0-2.063.01-3.075.247-.84.197-.484 1.487.355 1.29.894-.208 1.807-.198 2.72-.198.863 0 .863-1.339 0-1.339M155.395 235.712c-.824.19-1.656.199-2.497.2-.863 0-.863 1.338 0 1.338.96 0 1.912-.03 2.853-.247.84-.195.484-1.485-.356-1.29M164.24 229.863l-2.23 2.23c-.61.61.336 1.557.947.946l2.229-2.23c.61-.61-.336-1.557-.946-.946M173.853 228.775a5.54 5.54 0 0 1-2.338-.578c-.773-.373-1.452.78-.675 1.155.958.462 1.945.741 3.013.76.863.016.861-1.322 0-1.337M173.184 238.365c-1.09.038-2.053.504-3.013.983-.772.386-.094 1.54.675 1.156.738-.369 1.496-.772 2.338-.801.86-.03.863-1.368 0-1.338M179.399 228.078a3.678 3.678 0 0 1-.164.151c-.049.028-.139.071-.153.082-.012.004-.024.008-.037.01l-.003.001-.01.001c-.091.007-.184.005-.275.005-.862 0-.863 1.34 0 1.339.246 0 .498-.008.735-.08.333-.101.608-.324.853-.562a.675.675 0 0 0 0-.947.676.676 0 0 0-.946 0M149.509 245.303c-1.23-.217-2.326-.005-3.477.446-.794.31-.449 1.605.356 1.29.902-.353 1.79-.618 2.765-.446.843.148 1.204-1.141.356-1.29M159.363 245.502c-.924-.015-1.827-.203-2.72-.422-.839-.207-1.194 1.084-.356 1.29 1.006.247 2.036.453 3.076.47.863.014.861-1.325 0-1.338M167.21 243.296c-.79.285-1.362.907-1.737 1.645-.166.325-.088.723.24.916.3.176.75.084.915-.24.23-.452.521-.88.938-1.031.342-.124.57-.45.467-.823-.091-.331-.48-.592-.823-.467M173.63 243.94c-.453 0-1.02.062-1.446-.131-.332-.15-.717-.099-.915.24-.17.29-.092.765.24.915.673.305 1.393.314 2.12.315.863 0 .863-1.338 0-1.338" fill="#1A1919"/><path d="M233.923 218.482c.123 3.97-.543 9.06-.811 9.955-1.557 5.182-3.364 11.21-6.949 15.312-4.27 4.886-13.76 12.164-20.825 13.128-1.202.164-.494 9.887-.47 10.927.04 1.803.425 4.137.006 5.89l-.002.008c-.57 2.372-1.619 4.601-2.209 6.966-.7 2.803-1.292 4.282 2.053 4.2 4.424-.11 10.239-2.287 14.035-4.204 10.598-5.35 18.36-12.133 24.628-22.189 7.89-12.66 10.95-25.004 7.21-39.975-.259-1.032-15.63-5.17-17.216-4.958.03.797.487 2.908.55 4.94" fill="#959694"/><path d="M209.148 255.807c-1.3-.891-3.177-.21-5.494.598-3.362 1.172-7.132 1.704-6.456 6.203.396 2.636 1.888 5.631 1.542 8.322-.42 3.26-1.868 6.29-2.46 9.514-.719 3.93-.027 7.698-.315 11.6-.156 2.124-1.303 4.31-.936 6.369 2.546-.4 4.663-3.395 6.708-4.911 3.185-2.359 7.854-1.87 9.353-6.107 1.794-5.072.953-10.607.642-15.844-.27-4.57.084-8.912-1.169-13.375-.34-1.216-.817-1.959-1.415-2.369" fill="#CCCDCB"/><path d="M109.407 204.066c.302-.424.616-.839.941-1.246 3.026-3.789 7.685-11.528 13.653-8.094 6.983 4.02-1.107 12.406-2.466 17.265-4.227 15.118 7.665 29.475 18.399 38.542 3.918 3.31 10.683 5.229 13.206 9.964 1.908 3.583 1.28 7.702.764 11.544-.496 3.69.184 6.9.103 10.463-.134 5.919-10.547 1.104-13.525-.33-6.612-3.189-12.708-7.73-18.45-12.328-8.256-6.61-13.617-15.486-16.708-25.535-3.888-12.644-3.887-29.088 4.083-40.245M228.88 203.784c-1.782-3.26-4.849-6.266-.135-7.712 2.242-.688 6.198.552 8.255 1.515 3.662 1.714 6.269 4.544 8.492 7.881 3.326 4.99 5.632 12.643 6.278 18.548.973 8.905-10.911 8.792-19.412 8.537 2.159-11.459 1.83-11.599.616-18.873-.134-.804-2.682-7.313-4.094-9.896" fill="#959694"/><path d="M106.455 230.607c4.06 14.016 13.963 24.943 25.534 33.53 3.768 2.797 7.687 5.385 11.464 8.167 3.285 2.42 3.992 3.967 3.384 8.024-12.731-1.386-25.482-13.075-32.432-23.138-4.935-7.145-10.041-17.593-7.95-26.583" fill="#8B8C8B"/><path d="m167.085 272.447-.025-.16c-.825-5.186-1.652-9.384-2.708-14.529-4.806-.304-12.029-5.188-14.818.345-2.373 4.708-1.992 12.16-1.517 17.277.39 4.19.365 10.526 2.898 14.097 1.977 2.786 5.195 1.931 7.839 3.211 3.327 1.61 4.77 5.657 7.664 7.825 2.547-3.744 1.507-8.586 1.775-12.773.36-5.621-.231-9.695-1.108-15.293" fill="#CCCDCB"/><path d="M202.502 261.283a.152.152 0 0 0-.062.036c-.122.11-.105.745.092.65.12-.057-.005-.693-.03-.686" fill="#AAABAA"/><path d="m99.578 199.456 51.42.22v-.02c6.844.03 13.69.055 20.538.084 11.174.042 69.354.469 80.53.512 5.812.024 6.938-.017 12.749.032 15.988.129 17.581-9.344 17.662-19.258.096-11.814.167-17.167.275-28.98.153-17.293.304-34.584.44-51.876.063-8.036.173-14.865.23-22.901.045-7.034-.694-21.25-13.958-21.357-8.992-.073-79.756-.616-88.747-.692-9.517-.077-19.031-.163-28.548-.244v-.002c-17.186-.147-34.375-.291-51.562-.443-3.652-.032-6.724-.055-9.608-.079-5.597-.044-10.498-.082-17.58-.16-5.954-.066-19.554-1.645-19.756 23.394-.08 9.994-.556 93.653-.684 101.914-.3 19.548 13.184 19.71 16.546 19.726 10.017.046 20.035.087 30.053.13" fill="#1B1A19"/><path d="m54.342 77.322-.107-.067a.522.522 0 0 0 .107.067" fill="#B6B7B6"/><path d="M135.373 188.225c8.873.24 18.086-.654 23.089-9.585 6.475-11.555.65-31.377-4.08-42.402-7.061-16.456-20.19-32.686-35.054-42.853-10.216-6.989-32.093-20.656-44.565-12.865-7.024 4.388-7.182 14.049-6.935 22.775.094 3.363.25 6.586.094 9.315-.802 14.164-1.88 28.332-1.325 42.528.901 23.09 4.099 34.877 29.843 33.957 13.053-.466 25.954-1.219 38.933-.87" fill="#4A4B4A"/><path d="M264.155 167.416c.08-10.22-38.45-10.85-38.366 4.856.042 7.953 1 12.084 7.406 14.07.891.278 1.887.512 3 .71 7.936 1.413 17.24 1.232 24.219-2.132 6.055-2.916 3.698-12.084 3.74-17.504" fill="#FFFFFE"/><path d="M109.113 97.497c10.761.04 25.125-5.371 17.26-19.327-3.262-5.787-9.64-5.8-15.696-5.85h-.027a3632.1 3632.1 0 0 1-4.782-.043l-8.66-.073c-.597-.006-1.103-.01-1.577-.013-7.851-.063-8.767 11.565-7.47 17.084 1.439 6.113 4.605 7.773 8.865 8.17 2.536.235 5.46.024 8.637.037l3.45.015" fill="#C6C7C5"/><path d="M260.95 128.383a.046.046 0 0 0-.003-.011c-1.218-4.387-6.042-2.452-6.417 1.31-.165 1.659.293 2.773 1.034 3.41 2.131 1.832 6.611-.276 5.386-4.71M251.204 130.151c.32-1.636-.032-2.788-.71-3.491-1.954-2.023-6.607-.341-5.803 4.187l.003.012c.804 4.479 5.789 3.003 6.51-.708M241.575 130.476c.319-1.635-.033-2.787-.713-3.49-1.95-2.022-6.607-.341-5.801 4.185l.003.014c.804 4.479 5.788 3.003 6.51-.709M232.608 129.094v-.013c-.283-4.573-5.404-3.668-6.55-.038-.506 1.6-.289 2.792.304 3.573 1.707 2.247 6.524 1.097 6.246-3.522M216.044 128.118l-.002-.01c-1.218-4.387-6.043-2.452-6.417 1.31-.165 1.658.292 2.772 1.034 3.41 2.132 1.83 6.61-.278 5.385-4.71M206.3 129.886c.318-1.635-.032-2.787-.713-3.49-1.951-2.023-6.607-.34-5.8 4.186v.012c.806 4.479 5.79 3.004 6.513-.708M196.67 130.211c.318-1.634-.034-2.786-.713-3.49-1.952-2.022-6.607-.34-5.8 4.187l.001.012c.805 4.48 5.789 3.003 6.511-.709M187.703 128.829l-.001-.012c-.282-4.573-5.403-3.669-6.55-.039-.505 1.6-.288 2.793.304 3.574 1.707 2.246 6.525 1.098 6.247-3.523M166.893 127.438l-.003-.012c-1.218-4.386-6.043-2.451-6.418 1.311-.164 1.659.294 2.773 1.035 3.41 2.132 1.831 6.61-.277 5.386-4.71M157.147 129.206c.319-1.637-.032-2.788-.712-3.492-1.952-2.022-6.607-.34-5.8 4.186l.001.013c.805 4.48 5.789 3.004 6.511-.707M147.517 129.53c.319-1.634-.033-2.786-.712-3.49-1.952-2.022-6.607-.34-5.8 4.187v.012c.806 4.48 5.79 3.003 6.512-.709M138.55 128.148v-.012c-.283-4.573-5.404-3.668-6.55-.039-.505 1.6-.289 2.792.305 3.574 1.706 2.246 6.525 1.097 6.245-3.523M124.152 127.09l-.003-.012c-1.218-4.386-6.043-2.451-6.418 1.31-.164 1.66.294 2.773 1.034 3.411 2.133 1.83 6.612-.277 5.387-4.71M114.407 128.858c.318-1.636-.034-2.788-.713-3.491-1.952-2.023-6.607-.341-5.8 4.186a.11.11 0 0 0 .002.013c.803 4.479 5.787 3.003 6.51-.708M181.547 92.24c.393.018.803.023.869-.44.052-.381.015-.797.012-1.18-.004-.659-.04-1.32-.028-1.977.688.94 1.535 1.734 2.252 2.644.15.19.342.368.515.544.376.38.693.412 1.23.414.557.002 1.078.026 1.63.004.29-.011.575-.017.862-.04.293-.024.946.066 1.175-.116.25-.197-.03-.613-.236-.86a2.942 2.942 0 0 0-.119-.133c-.313-.335-2.956-3.734-3.536-4.547-.456-.634-.874-1.35-1.397-1.931-.028-.031.813-.986.867-1.05.658-.785 1.318-1.57 1.959-2.369.143-.178.32-.31.45-.5.147-.214.249-.455.398-.666.173-.247.35-.544.007-.68-.418-.162-.895-.128-1.333-.105-.438.024-.89-.014-1.323.027-.361.035-.623.459-.823.714a20.66 20.66 0 0 1-.687.829c-.255.292-.516.578-.776.866l-.459.507c-.084.093-.492.434-.49.547-.013-.779-.014-1.75-.036-2.528-.005-.233-.003-.424-.116-.634-.179-.331-.404-.314-.745-.315-.9-.003-1.82.072-2.718.004-.207-.016-.354-.06-.528.1-.218.203-.145.78-.117 1.065.116 1.198.028 2.442.042 3.649.015 1.332.036 2.665.059 3.996.02 1.217-.013 2.45.057 3.664.042.738 1.229.489 1.73.463.453-.023.902.017 1.353.035M167.47 92.004c.5-.361.276-1.418.285-1.952.019-.98.034-1.963.003-2.941.955 1.033 1.587 2.42 2.323 3.61.286.464.458 1.041 1.01 1.206.624.186 1.309.09 1.95.09.56.001 1.58.169 1.95-.383.237-.35.163-.965.17-1.377.027-1.309.052-2.617.076-3.927.028-1.446.054-2.893.08-4.34.01-.602.177-1.373.078-1.96a1.171 1.171 0 0 0-.021-.102c-.178-.662-.902-.612-1.472-.644-.617-.033-1.64-.225-2.198.109-.67.402-.332 1.785-.35 2.437-.045 1.587-.201 3.31.101 4.88-.008.044.034.2.007.204-.527-1.127-2.419-4.918-2.823-5.693-.264-.503-.376-1.162-.76-1.59-.451-.503-1.083-.269-1.664-.27-.522-.003-1.072-.114-1.586.024-.81.218-.581 1.226-.591 1.892-.03 2.04.048 4.08.056 6.12.004.928.025 1.854.022 2.782-.001.515-.319 1.557.335 1.811.445.172 1.045.138 1.515.14.436 0 1.124.15 1.504-.126M142.84 89.191c.087-1.07-.094-1.813-.039-2.888.002-.054.006-.107.011-.161.084-.029.17-.056.256-.08.633-.01 1.366-.243 1.846.18.392.343.617.887.63 1.423l-.004.05c-.023.136-.055.27-.09.403-.027.09-.058.176-.09.264.04-.115-.1.196-.13.247-.016.028-.12.18-.128.198-.012.012-.022.025-.033.038-.274.17-.677.185-.98.27-.104.028-1.254.132-1.249.056m-.304-6.49c.004-.339-.055-.685-.07-1.023l.01-.287c.195-.032.392-.043.583-.032.074.025.148.052.222.079l.06.026a4.7 4.7 0 0 1 .634.352l.058.04c-.013-.007.102.083.143.118.086.16.143.355.158.59.065.956-.919 1.303-1.687 1.349a2.817 2.817 0 0 1-.112.005c-.123-.274-.001-.93.001-1.218m6.578 5.433a5.28 5.28 0 0 0 .07-1.197c-.047-.684-.282-1.299-.813-1.897a2.91 2.91 0 0 0-1.193-.796c-.137-.05-1.369-.365-1.418-.2.249-.82.957-1.417 1.047-2.306.078-.766-.33-1.648-.936-2.102-1.154-.864-3.062-.869-4.457-.73-.542.053-1.047.11-1.534.322-.272.119-.57.573-.57.573s.056 2.665.07 3.527c.032 2.107.076 4.215.129 6.32.013.531-.106 1.356.122 1.841.346.74 1.499.771 2.192.814 1.528.096 3.371.24 4.765-.495 1.473-.775 2.272-2.074 2.526-3.674" fill="#FFFFFE"/><path d="M145.853 83.161c-.055.052-.07.093-.062.128.01.048.04.092.062.136l.094-.026-.094-.238M234.336 91.67c.315.012 1.59-.003 1.922 0 .238 0 .59.033.751-.17.134-.166.092-.574.103-.784.089-1.515-.106-8.66-.122-9.747-.014-.86.234-1.855-.96-1.864-.848-.007-1.697-.002-2.546-.017-.663-.013-3.374 5.145-3.879 5.034-.393-.084-2.426-4.592-2.642-4.786-.337-.304-3.347-.208-4.11-.176-.418.017-.535.017-.613.432-.116.62.048 10.015.048 10.016-.002.675-.294 1.653.59 1.85.466.104 2.305.09 2.758.076.644-.02.651-.242.737-.786.098-.625-.01-3.272.24-3.757.231.141 1.756 4.073 1.96 4.216.217.153 2.328.32 2.635-.328.259-.55.863-2.542 1.002-2.96.103-.309.094-.817.45-.961.312.332.085 3.892.279 4.388.216.559.953.306 1.397.324M248.259 90.463c.012-.908-.017-1.945-.05-1.947a34.093 34.093 0 0 0-2.174-.013c-.574.01-1.551.225-2.088.037-.408-.143-.34-.455-.359-.903-.013-.278-.077-.665.01-.936.42-.032.823-.093 1.263-.091.236 0 1.157.142 1.32-.002.157-.138.08-1.075.093-1.298.023-.412.018-.844-.002-1.254-.391.019-.752.128-1.174.124-.53-.002-1.27.11-1.764-.059-.062-.421.022-1.137.129-1.55.094-.366.005-.303.478-.349.837-.08 1.686-.026 2.525-.105.524-.05 1.002.226 1.537.042.012-.214-.163-3.137-.124-3.136-1.145-.064-2.352-.116-3.523-.066-1.337.058-2.816-.011-4.136.221-.288.781-.155 1.695-.198 2.51-.086 1.627-.038 3.257-.025 4.887.013 1.572.035 5.189.035 5.189s7.965.344 8.129.021c.06-.12.089-.69.098-1.322M199.37 91.664c.497-.366.276-1.431.285-1.97.018-.988.034-1.98.003-2.968.952 1.043 1.58 2.442 2.314 3.642.285.47.457 1.052 1.006 1.217.622.188 1.305.092 1.943.092.558 0 1.575.17 1.945-.387.235-.354.16-.974.168-1.389.027-1.32.052-2.641.076-3.962l.08-4.378c.01-.608.175-1.386.077-1.978a1.068 1.068 0 0 0-.02-.103c-.178-.667-.9-.618-1.468-.648-.614-.034-1.634-.228-2.19.108-.667.405-.33 1.8-.348 2.458-.045 1.601-.2 3.341.1 4.925-.009.044.034.2.008.205a299.401 299.401 0 0 0-2.813-5.742c-.262-.508-.375-1.173-.757-1.605-.45-.508-1.079-.271-1.66-.274-.518 0-1.067-.114-1.58.026-.805.22-.579 1.236-.588 1.908-.028 2.059.048 4.117.057 6.175.002.936.023 1.87.02 2.806 0 .52-.317 1.57.335 1.828.442.174 1.04.139 1.51.14.434.002 1.118.152 1.497-.126M155.026 86.605l.615-3.656s.416-.07.84.018c.16.977.747 3.807.747 3.807l-2.202-.17Zm5.988 4.71-.037.002.033-.035.004.034Zm-3.037.652c.266.226 3.54-.133 3.61-.135-.093-.296-2.508-11.684-2.582-11.955-.112-.414-.073-.5-.514-.568-.142-.023-3.44-.083-4.244.07-.058.01-.123.109-.145.18-.354 1.16-2.055 7.261-2.413 8.233-.235.637-.918 3.145-1.01 3.77-.086.602 3.435.379 3.435.379s.45-1.436.642-1.898c.016-.006 2.312-.067 2.914.002.016.067.123 1.767.307 1.922ZM213.444 86.284l.615-3.656s.416-.07.84.018c.16.977.747 3.807.747 3.807l-2.202-.169Zm5.99 4.71-.04.003a.454.454 0 0 0 .034-.036l.005.034Zm-3.039.652c.268.226 3.54-.134 3.61-.134-.093-.296-2.507-11.684-2.58-11.956-.114-.414-.076-.5-.516-.569-.142-.022-3.44-.081-4.244.07-.058.012-.121.11-.144.18-.354 1.161-2.056 7.262-2.414 8.234-.235.636-.918 3.145-1.008 3.771-.089.601 3.434.378 3.434.378s.451-1.436.641-1.897c.017-.007 2.312-.068 2.915.001.014.068.123 1.766.306 1.922ZM186.123 181.994c.286.01 1.44-.003 1.74 0 .215 0 .534.03.68-.154.12-.15.084-.52.094-.71.079-1.371-.096-7.84-.112-8.822-.01-.78.213-1.68-.869-1.688-.767-.005-1.536-.002-2.302-.015-.602-.012-3.055 4.658-3.512 4.558-.356-.077-2.197-4.158-2.391-4.334-.306-.274-3.03-.188-3.72-.16-.38.016-.485.016-.556.392-.106.562.044 9.065.044 9.067-.002.61-.267 1.496.534 1.674.421.093 2.085.081 2.495.068.584-.017.59-.218.668-.712.09-.564-.01-2.96.218-3.4.208.128 1.588 3.687 1.773 3.816.197.14 2.108.29 2.385-.296.234-.498.782-2.3.908-2.68.093-.278.084-.739.406-.87.283.3.078 3.524.252 3.973.197.505.865.277 1.265.293M198.726 180.902c.012-.822-.016-1.761-.046-1.763a30.079 30.079 0 0 0-1.967-.011c-.52.008-1.404.204-1.89.032-.369-.128-.308-.411-.325-.817-.012-.252-.07-.601.01-.847.38-.03.744-.084 1.143-.083.213.002 1.046.129 1.195-.002.14-.123.072-.972.083-1.175.022-.37.016-.763-.001-1.133-.354.016-.681.114-1.063.112-.48-.003-1.15.098-1.597-.054-.055-.382.02-1.028.117-1.403.085-.332.005-.275.433-.316.756-.072 1.526-.023 2.285-.094.474-.045.906.203 1.392.037.01-.195-.148-2.84-.113-2.837-1.036-.06-2.13-.107-3.189-.061-1.21.052-2.548-.01-3.743.2-.262.706-.14 1.534-.18 2.271-.078 1.474-.034 2.95-.022 4.424l.032 4.696s7.208.312 7.357.02c.055-.11.081-.626.089-1.196M154.475 181.988c.45-.33.248-1.295.257-1.782.016-.896.03-1.792.002-2.688.863.945 1.431 2.211 2.094 3.298.26.424.415.951.912 1.101.563.17 1.182.083 1.759.084.505 0 1.425.153 1.76-.351.213-.32.145-.881.153-1.258l.068-3.586.072-3.962c.01-.551.16-1.254.07-1.79a1.455 1.455 0 0 0-.019-.094c-.16-.604-.812-.56-1.328-.586-.556-.033-1.48-.208-1.982.097-.604.367-.299 1.63-.316 2.226-.04 1.449-.181 3.023.092 4.456-.009.04.03.182.006.187a268.565 268.565 0 0 0-2.546-5.199c-.237-.458-.339-1.06-.685-1.451-.406-.46-.976-.246-1.5-.247-.47-.003-.968-.105-1.431.021-.73.2-.525 1.12-.534 1.728-.025 1.864.044 3.726.052 5.59.003.846.02 1.693.02 2.54-.002.47-.289 1.421.3 1.653.402.157.942.126 1.367.128.394 0 1.014.137 1.357-.115M167.213 177.118l.557-3.31s.378-.061.76.018c.146.883.677 3.445.677 3.445l-1.994-.153Zm5.421 4.265-.033.001.028-.032.005.03Zm-2.75.59c.243.204 3.205-.122 3.267-.123-.083-.267-2.268-10.574-2.335-10.82-.102-.377-.067-.454-.466-.516-.13-.02-3.115-.074-3.842.064-.052.01-.11.1-.13.163-.32 1.051-1.86 6.572-2.187 7.453-.21.575-.83 2.846-.912 3.413-.078.543 3.11.342 3.11.342s.407-1.3.58-1.718c.015-.007 2.093-.061 2.638.001.014.062.11 1.598.278 1.74ZM110.179 130.17c-.025.23-.047.459-.078.695.031-.235.057-.466.078-.695M104.88 94.432c-.01 2.692 4.48 2.73 4.491.035.009-1.94-.091-3.94-.164-5.954 1.26.002 2.52-.003 3.779-.03.67 2.151 1.712 4.177 2.98 5.839 1.66 2.175 5.577.125 3.895-2.077a16.783 16.783 0 0 1-2.214-3.937 93.39 93.39 0 0 0 5.623-.486c2.862-.339 1.673-4.373-1.16-4.038-1.81.215-3.624.36-5.44.455-.198-2.667.568-5.25 2.962-7.01 2.271-1.669-.904-4.63-3.152-2.979-3.373 2.479-4.53 6.274-4.274 10.133-1.022.014-2.045.014-3.069.01.034-2.572.261-5.115.97-7.535.763-2.601-3.56-3.742-4.32-1.146-.816 2.784-1.062 5.69-1.096 8.62l-1.975-.046c-.151-3.812-1.894-7.567-5.29-10.19-2.208-1.707-5.43 1.205-3.199 2.928 2.481 1.917 3.794 4.508 3.983 7.153a315.288 315.288 0 0 0-3.8-.065c-2.895-.03-2.929 4.147-.033 4.177 1.065.01 2.129.028 3.192.048-.665 1.693-1.823 3.265-3.47 4.529-2.235 1.716.936 4.68 3.152 2.98a13.9 13.9 0 0 0 4.991-7.418c.835.017 1.67.032 2.503.046.062 2.008.144 4.003.135 5.958M110.776 180.695c.231-.395.015-1.015.02-1.443.004-.397-.073-.608-.228-.72-.193-.141-2.35-.109-3.035-.248-.406-.083-.536-.082-.598-.49-.122-.814-.062-1.592-.07-2.4-.012-.956-.007-1.912 0-2.869.004-.586.052-2.876-.133-3.359-.153-.402-2.543-.604-3.264-.259-.521.25-.36.824-.357 1.32.006.84.045 1.678.047 2.518.003.849.003 1.698.004 2.548-.002 1.182-.003 2.365-.01 3.547-.004.437-.186 1.449.17 1.79.334.318 2.4.205 2.99.21.55.005 1.092.04 1.637.045l1.397.012c.438.003 1.154.27 1.43-.202M93.995 177.23c-.394-.794-.253-1.852-.211-2.717.04-.817.19-2.068.98-2.534.562-.334 1.259-.15 1.685.318.46.505.478 1.324.553 1.97.147 1.256.075 2.682-.747 3.712-.722.902-1.813.146-2.26-.749m6.294.302c.155-1.16.218-2.523.134-3.704a6.814 6.814 0 0 0-1.568-3.937c-1.374-1.637-4.77-1.485-6.433-.379-2.242 1.493-2.205 4.566-2.088 6.976.055 1.14.355 2.394 1.128 3.314.937 1.115 2.532 1.668 3.96 1.63 1.19-.031 2.196-.199 3.167-.959.876-.684 1.552-1.832 1.7-2.941M116.558 177.987c-.05-.603.008-1.25-.017-1.868l-.081-2.134c-.027-.743-.057-1.51-.06-2.232 0-.113 1.588.302 1.697.349 1.076.46 1.208 1.613 1.448 2.604.042.177.074.36.09.544.078.817-.113 1.676-.778 2.231-.596.494-1.553.55-2.299.506m-.654 2.933c2.027.034 4.553-.491 5.567-2.454.407-.786.506-1.685.48-2.558-.022-.731.064-1.381-.04-2.12-.31-2.191-1.581-3.855-3.792-4.343-.813-.18-3.324-.396-3.753-.404-.333-.006-.793-.032-1.11.01-.332.043-.279.025-.308.397-.04.489-.031.987-.038 1.476-.028 2.067 0 4.134.02 6.2.009.845.019 1.69.017 2.537 0 .375.061.835-.037 1.203-.01.044 2.774.05 2.994.056M81.868 179.723c.196-.694.18-3.562.183-3.996.002-.188 1.296-.135 1.427-.135.239 0 .9-.097 1.067.095.122.142.137 3.319.131 3.828-.006.632.281.657.837.744.555.086 1.1.017 1.654-.025.21-.016.54.008.696-.136.29-.27.256-.833.186-1.181-.09-.447-.01-8.266-.092-8.897-.042-.323-.053-1.2-.295-1.397-.11-.091-.647-.089-.798-.106-.358-.04-.716.042-1.068.054-.676.023-1.484-.368-1.626.516-.094.584.035 1.174.038 1.758.005.83-.006 1.663.045 2.492-.164.018-.329.038-.494.061-.6-.024-1.602-.043-1.604-.03.003-.25.013-.461.005-.672-.023-.695.008-1.393.028-2.088.013-.458.238-1.514-.223-1.816-.415-.273-1.526-.084-2.015-.056-.451.026-.933-.072-1.316.242-.365.299-.276.874-.273 1.29.015 2.036-.066 4.073-.062 6.11.001.953-.006 1.912.064 2.863.029.397.014.725.426.914.647.297 1.447.146 2.134.15.595.005.785-.017.945-.582M137.637 175.494c.061-.993-.29-1.869-.134-2.844.27-.014.541-.037.814-.056.315-.021.63-.035.945-.029.056.001.274.025.32.027 0 0 .003 0 .005.002.377.227.613.634.544 1.335-.118 1.205-1.233 1.66-2.342 1.61-.095-.006-.154-.02-.152-.045m-.304 6.204c.74-.145.692-.61.635-1.291-.039-.45.004-.85.02-1.296.464.02.66.769.9 1.09.326.44.739 1.177 1.255 1.342.6.193 1.314.008 1.93.013.4.002.837.11 1.234.024.292-.063.395-.19.386-.347-.01-.239-2.315-2.909-2.549-3.262-.015-.021-.08-.054-.153-.091l-.028-.05c.284-.085.59-.26.706-.327 2.039-1.148 2.267-3.855 1.257-5.743-.405-.76-1.092-1.467-1.943-1.749a9.193 9.193 0 0 0-4.48-.322c-.698.122-2.4.408-2.4.408s.042 5.546.02 6.982c-.014.825-.094 1.65-.087 2.476.005.696-.223 2.008.73 2.162.353.058.71.036 1.057.041.499.007 1.02.036 1.51-.06M131.588 180.073c.016-.856-.006-1.831-.037-1.833a31.712 31.712 0 0 0-2.02-.02c-.533.006-1.442.205-1.94.025-.378-.137-.314-.43-.33-.85-.01-.263-.068-.627.015-.882.389-.029.764-.083 1.175-.081.216.002 1.072.14 1.225.004.145-.128.078-1.009.091-1.22.024-.387.02-.795.004-1.18-.364.015-.7.116-1.091.112-.493-.004-1.18.098-1.64-.063-.054-.397.026-1.07.127-1.458.09-.344.008-.285.446-.325.778-.073 1.567-.018 2.347-.088.487-.045.929.215 1.428.046.01-.203-.138-2.954-.103-2.95-1.062-.067-2.185-.12-3.272-.078-1.243.048-2.616-.023-3.843.19-.271.733-.152 1.595-.196 2.36-.087 1.53-.05 3.064-.044 4.597l.01 4.88s7.398.359 7.551.056c.058-.113.087-.65.097-1.242" fill="#FFFFFE"/><path d="M124.56 193.584c-.365-.312-.762-.83-1.177-.491-.34.277-.097 1.552.028 1.888.396 1.067 1.337 1.007 2.017 1.705.944.97.026 1.26.633 2.09.811 1.11 3.672-.98 3.48-2.198l-.003-.02c-.211-1.178-4.08-2.21-4.977-2.974" fill="#959694"/><path d="M122.667 198.53c-1.03.918-1.483 2.598-1.23 3.945.244 1.297.702 2.627 2.056 2.747 2.927.26 4.175-1.457 4.957-3.925.148-.472.475-1.198.724-1.959.35-1.064.55-2.196-.09-2.803-1.412-1.336-5.297 1-6.417 1.995M227.529 195.714c.181-.445.295-1.088.82-.978.43.09.8 1.334.843 1.689.139 1.13-.724 1.51-1.007 2.443-.393 1.295.556 1.131.399 2.147-.211 1.359-3.713.82-4.1-.351l-.007-.018c-.354-1.144 2.606-3.84 3.052-4.932" fill="#959694"/><path d="M231.483 199.235c1.338.34 2.513 1.625 2.907 2.937.38 1.264.584 2.655-.563 3.385-2.48 1.578-4.377.628-6.205-1.205-.35-.35-.973-.845-1.544-1.405-.8-.784-1.498-1.698-1.209-2.531.639-1.836 5.164-1.55 6.614-1.181" fill="#959694"/><path d="M246.798 227.88c-2.055 8.745-4.779 18.243-9.124 26.085-2.941 5.31-6.105 9.016-11.226 12.073-2.929 1.748-9.762 5.05-10.564 8.752-1.516 7.024 5.6 1.944 7.814.574 11.822-7.311 23.055-21.87 24.583-36.069.408-3.783 1.194-8.244-1.483-11.414" fill="#8B8C8B"/><path d="M177.065 309.647c-1.196.381-2.364.87-3.492 1.478-9.885 5.33-14.403 10.06-20.27 19.705-4.944 8.13-8.98 16.776-11.3 26.034-3.81 15.196-4.008 30.962-5.477 46.48-.705 7.455-.693 14.911-1.279 22.326-.387 4.894-3.805 14.558.273 18.668 1.494 1.505 8.043 1.567 9.975 1.845 15.893 2.294 32.902 4.115 48.786 1.872 13.548-1.913 43.054-6.253 49.48-20.008 3.59-7.682-2.06-16.952-4.6-24.046-4.356-12.155-8.222-24.556-11.914-36.922-4.304-14.417-11.635-28.179-18.42-41.538-5.913-11.643-18.53-20.09-31.762-15.894" fill="#1A1919"/><path d="M170.954 330.308c.712 5.13-3.595 10.048-8.465 10.992-2.631.512-1.654 4.548.965 4.04 7.26-1.41 12.551-8.69 11.537-15.998-.37-2.652-4.402-1.662-4.037.966" fill="#F2F1F0"/><path d="m173.572 253.57.005.01-.005-.01Z" fill="#A8A8A7"/><path d="M196.713 258.339c-.629.202-1.302.506-2.016.897-4.426 2.424-7.348 8.647-13.452 6.518-2.537-.884-4.666-2.74-6.64-4.502-.657-.586-1.485-1.006-2.09-1.645-.708-.746-1.06-2.114-2.112-2.473-.846-.288-2.763.454-3.693.565-2.814.336-2.822.1-5.32.624 0 0-2.44 14.934-2.806 19.19-.906 10.537-.309 21.166.658 31.678.279 3.034-.87 7.032.527 9.866 2.069 4.195 7.87 2.818 11.513 2.99 10.967.517 26.137 1.69 31.764-10.464 1.813-3.917 1.38-8.562 1.227-12.758-.118-3.272-.318-6.957.052-10.201.424-3.727 1.903-6.901 1.54-10.798-.285-3.069-2.3-5.606-2.915-8.579-.53-2.559-.774-5.186-1.35-7.775-.706-3.168-2.452-3.916-4.887-3.133" fill="#CCCDCB"/><path d="M191.845 259.814c-1.223 1.397-2.52 2.251-4.18 2.772-3.16.99-5.08 1.366-8.267.452-1.379-.398-3.116-1.789-4.122-2.868-.275-.293-2.712-3.809-2.723-3.805-.738.244-2.378.494-3.125.744.07.515.316 1.126.433 1.513a9.539 9.539 0 0 0 1.926 3.48c1.595 1.852 4.089 3.38 7.03 4.169 6.279 1.684 13.06.552 16.214-6.01.218-.457.418-.94.6-1.45a27.536 27.536 0 0 1-2.477-.842c-.574.486-.66 1.105-1.309 1.845" fill="#A8A9A8"/><path d="M194.497 311.951c-2.822 2.723-6.34 4.308-10.167 5.001l-2.023.367c-3.152.567-8.721 1.556-8.801 1.462 3.38 3.992 14.074 1.004 18.452.054 6.766-1.469 9.224-3.626 10.117-10.882.143-1.154 1.2-8.212 2.27-8.437-.93.195-1.723.56-2.415 1.049-3.792 2.681-4.165 8.234-7.433 11.386" fill="#B8B9B8"/><path d="M164.8 285.018c-.873-1.03-2.018-1.442-3.467-.806-4.552 2.002 3.084 15.054 5.783 15.955-.628-.21-.676-13.21-2.317-15.15" fill="#C4C5C4"/><path d="M148.097 373.256c-.22 2.01-.702 3.994-.607 6.03.044.933 1.487.839 1.444-.092-.09-1.904.373-3.762.58-5.644.1-.921-1.315-1.22-1.417-.294M150.859 356.003c-.545 1.737-.744 3.574-.648 5.39.05.93 1.494.838 1.444-.093-.091-1.697.112-3.381.62-5.002.28-.891-1.14-1.175-1.416-.295M155.002 343.706c-.327-.164-.828-.045-.971.324-.249.637-.271 1.332-.519 1.965-.143.367-.053.782.322.97.328.166.829.047.972-.321.249-.64.27-1.334.518-1.966.143-.367.054-.783-.322-.972M161.359 327.009c.018.446-.102 1.071-.522 1.34-.785.504.022 1.705.808 1.2.854-.547 1.198-1.661 1.157-2.632-.04-.933-1.483-.84-1.443.092" fill="#F2F1F0"/><path d="M215.171 226.825c-.442-.839-1.687-.983-2.438-.497-.863.56-.972 1.577-.53 2.415.374.71.368 1.535.403 2.32.098 2.246 3.622 2.06 3.524-.185-.064-1.447-.28-2.762-.959-4.053" fill="#FFFFFE"/><path d="M33.53 132.457c-1.518-.596-3.1-.611-4.718-.527-2.272.119-2.122 3.6.15 3.482.92-.047 2.1-.177 2.92.145.89.35 1.9.155 2.383-.752.417-.78.156-2-.734-2.348M37.456 90.799c-3.116-1.38-5.912-3.3-8.906-4.9-1.997-1.07-3.637 2.036-1.649 3.1 2.993 1.6 5.79 3.52 8.906 4.9 2.063.914 3.718-2.184 1.65-3.1M46.901 57.34c-2.073-1.758-4.617-2.377-7.324-2.273-2.275.088-2.123 3.57.15 3.483 1.76-.068 3.427.23 4.788 1.384 1.716 1.456 4.107-1.134 2.386-2.593M65.624 33.66c-.917-.28-1.914.46-2.116 1.33-.228.986.408 1.798 1.324 2.076.962.294 1.457 1.41 1.529 2.533.144 2.24 3.668 2.059 3.524-.186-.172-2.682-1.607-4.946-4.261-5.754M109.641 28.729l.277 6.429c.096 2.245 3.62 2.06 3.524-.186l-.277-6.43c-.096-2.245-3.62-2.06-3.524.187M146.108 30.03l.369 8.572c.097 2.245 3.621 2.06 3.525-.186l-.37-8.572c-.096-2.245-3.62-2.06-3.524.186M197.373 32.773c-.558 2.528-1.421 4.896-1.37 7.517.045 2.25 3.568 2.059 3.525-.186-.045-2.279.798-4.383 1.284-6.584.487-2.205-2.952-2.947-3.439-.747M256.382 26.197c-.93-.477-1.832-.03-2.385.752-2.314 3.277-3.085 7.457-3.494 11.34-.1.945.301 1.855 1.323 2.077.85.184 2.015-.383 2.116-1.33.38-3.615 1.019-7.436 3.174-10.49.554-.786.034-1.954-.734-2.349M294.762 41.453c-1.846 1.325-3.845 2.421-5.826 3.53-1.99 1.11-.076 4.02 1.908 2.912 1.982-1.107 3.98-2.203 5.826-3.528 1.842-1.322-.053-4.246-1.908-2.914M316.705 133.264c-1.368.095-2.717.384-4.084.478-.954.066-1.769.732-1.794 1.742-.022.901.757 1.835 1.71 1.769 1.368-.094 2.718-.383 4.085-.477.954-.066 1.769-.732 1.794-1.742.022-.902-.757-1.836-1.71-1.77M307.143 203.713c-1.46-1.947-3.056-3.82-4.859-5.467-1.664-1.52-4.049 1.075-2.386 2.594 1.59 1.45 2.99 3.075 4.278 4.79 1.34 1.787 4.32-.115 2.967-1.917M61.797 224.744c-.756 1.594-1.686 2.884-1.668 4.727.021 2.25 3.545 2.058 3.524-.186-.01-1.047.79-1.949 1.262-2.944.968-2.043-2.15-3.643-3.118-1.597M273.48 233.876l1.823 3.28c1.093 1.965 4.16.218 3.068-1.746l-1.825-3.28c-1.091-1.964-4.16-.218-3.067 1.746M36.968 180.62c-1.245.066-2.455.318-3.37 1.225-.683.677-.577 1.85.106 2.462.703.631 1.723.551 2.407-.054.071-.025.143-.05.216-.07.038-.003.252-.042.326-.05.155-.015.31-.023.465-.031.96-.051 1.728-.885 1.688-1.834-.041-.949-.877-1.7-1.838-1.648M314.39 169.648c-1.504-.631-3.085-.684-4.705-.638-2.274.065-2.207 3.55.068 3.485.921-.026 2.102-.127 2.914.214.882.37 1.897.2 2.401-.695.435-.77.203-1.995-.678-2.366M321.59 78.696c-3.228 1.093-6.585 1.573-9.872 2.42-2.193.565-1.301 3.962.882 3.4 3.287-.848 6.645-1.327 9.872-2.421 2.137-.724 1.26-4.125-.882-3.4" fill="#1A1919"/></g></g></svg>