<svg xmlns="http://www.w3.org/2000/svg" width="16" height="16" viewBox="0 0 16 16">
  <path id="signal" d="M22.781,10H24.7a.305.305,0,0,1,.3.3V24.7a.305.305,0,0,1-.3.3H22.781a.305.305,0,0,1-.3-.3V10.3A.305.305,0,0,1,22.781,10ZM10.3,19.036h1.914a.305.305,0,0,1,.3.3V24.7a.305.305,0,0,1-.3.3H10.3a.305.305,0,0,1-.3-.3V19.341A.305.305,0,0,1,10.3,19.036Zm4.159-3.012h1.914a.305.305,0,0,1,.3.3V24.7a.305.305,0,0,1-.3.3H14.464a.305.305,0,0,1-.3-.3V16.329A.305.305,0,0,1,14.464,16.024Zm4.159-3.012h1.914a.305.305,0,0,1,.3.3V24.7a.305.305,0,0,1-.3.3H18.622a.305.305,0,0,1-.3-.3V13.317A.305.305,0,0,1,18.622,13.012Z" transform="translate(-9.5 -9.5)" fill="none" stroke="#4a4a4a" stroke-width="1" fill-rule="evenodd"/>
</svg>
