<svg xmlns="http://www.w3.org/2000/svg" width="16.259" height="16.263" viewBox="0 0 16.259 16.263">
  <g id="wallet" transform="translate(0.497 0.504)">
    <g id="Group_1631" data-name="Group 1631" transform="translate(0.003 0)">
      <g id="Group_1630" data-name="Group 1630" transform="translate(0 0)">
        <path id="Path_2570" data-name="Path 2570" d="M14.222,12.485H11.794a2.774,2.774,0,0,1,0-5.549h2.428a.347.347,0,0,0,.347-.347V5.549a1.384,1.384,0,0,0-1.277-1.376L11.3.694A1.372,1.372,0,0,0,9.417.187L2.589,4.162H1.39A1.389,1.389,0,0,0,0,5.549v8.323A1.389,1.389,0,0,0,1.39,15.259H13.181a1.389,1.389,0,0,0,1.387-1.387v-1.04A.347.347,0,0,0,14.222,12.485ZM11.73,2.842l.756,1.32H9.463ZM3.968,4.162,9.766.786a.671.671,0,0,1,.515-.069.68.68,0,0,1,.417.322h0L5.337,4.162Z" transform="translate(-0.003 0)" fill="none" stroke="#4a4a4a" stroke-width="1"/>
        <path id="Path_2571" data-name="Path 2571" d="M303.178,234.674h-2.428a2.081,2.081,0,0,0,0,4.162h2.428a1.042,1.042,0,0,0,1.04-1.04v-2.081A1.042,1.042,0,0,0,303.178,234.674Zm-2.428,2.774a.694.694,0,1,1,.694-.694A.694.694,0,0,1,300.751,237.448Z" transform="translate(-288.96 -227.044)" fill="none" stroke="#4a4a4a" stroke-width="1"/>
      </g>
    </g>
  </g>
</svg>
